<?xml version="1.0" encoding="UTF-8" standalone="no"?>
<!-- Created with Inkscape (http://www.inkscape.org/) -->

<svg
   xmlns:dc="http://purl.org/dc/elements/1.1/"
   xmlns:cc="http://creativecommons.org/ns#"
   xmlns:rdf="http://www.w3.org/1999/02/22-rdf-syntax-ns#"
   xmlns:svg="http://www.w3.org/2000/svg"
   xmlns="http://www.w3.org/2000/svg"
   xmlns:sodipodi="http://sodipodi.sourceforge.net/DTD/sodipodi-0.dtd"
   xmlns:inkscape="http://www.inkscape.org/namespaces/inkscape"
   width="100.01849mm"
   height="138.61014mm"
   viewBox="0 0 100.01849 138.61014"
   version="1.1"
   id="svg8"
   inkscape:version="0.92.1 r15371"
   sodipodi:docname="burton.svg">
  <defs
     id="defs2" />
  <sodipodi:namedview
     id="base"
     pagecolor="#ffffff"
     bordercolor="#666666"
     borderopacity="1.0"
     inkscape:pageopacity="0.0"
     inkscape:pageshadow="2"
     inkscape:zoom="1.4"
     inkscape:cx="236.4451"
     inkscape:cy="322.53439"
     inkscape:document-units="mm"
     inkscape:current-layer="layer1"
     showgrid="false"
     inkscape:window-width="1349"
     inkscape:window-height="1408"
     inkscape:window-x="1209"
     inkscape:window-y="30"
     inkscape:window-maximized="0"
     fit-margin-top="0"
     fit-margin-left="0"
     fit-margin-right="0"
     fit-margin-bottom="0"
     inkscape:showpageshadow="false" />
  <metadata
     id="metadata5">
    <rdf:RDF>
      <cc:Work
         rdf:about="">
        <dc:format>image/svg+xml</dc:format>
        <dc:type
           rdf:resource="http://purl.org/dc/dcmitype/StillImage" />
        <dc:title></dc:title>
      </cc:Work>
    </rdf:RDF>
  </metadata>
  <g
     inkscape:label="Layer 1"
     inkscape:groupmode="layer"
     id="layer1"
     transform="translate(-64.317722,-66.514568)">
    <path
       style="fill:#ffffff;fill-opacity:1;stroke:#000000;stroke-width:1;stroke-linecap:butt;stroke-linejoin:miter;stroke-miterlimit:4;stroke-dasharray:none;stroke-opacity:1"
       d="m 119.42759,193.11042 c 0.95606,3.51323 1.60136,10.53851 -1.06867,11.43283 -2.67004,0.89433 -3.42735,-4.97899 -5.26749,-8.15002"
       id="path4663-6"
       inkscape:connector-curvature="0"
       sodipodi:nodetypes="czc"
       inkscape:export-xdpi="126.98"
       inkscape:export-ydpi="126.98" />
    <path
       style="fill:#ffffff;fill-opacity:1;stroke:#000000;stroke-width:1;stroke-linecap:butt;stroke-linejoin:miter;stroke-miterlimit:4;stroke-dasharray:none;stroke-opacity:1"
       d="m 83.477545,192.14678 c -0.739447,3.56512 0.763691,10.24371 3.48341,10.97309 2.719729,0.72939 1.398831,-4.80625 3.041628,-8.08386"
       id="path4663-6-0"
       inkscape:connector-curvature="0"
       sodipodi:nodetypes="czc"
       inkscape:export-xdpi="126.98"
       inkscape:export-ydpi="126.98" />
    <path
       style="opacity:1;fill:#ffffff;fill-opacity:1;stroke:#000000;stroke-width:1;stroke-miterlimit:4;stroke-dasharray:none;stroke-opacity:1"
       d="m 135.50446,151.57366 c -1.27281,9.11383 -5.81899,12.20992 -6.29237,24.07055 -0.47338,11.86064 -10.66659,23.54777 -29.89884,21.57006 -15.33661,-1.57711 -26.64568,-10.49664 -28.027438,-20.02816 -1.381759,-9.53152 -3.958161,-15.03372 -5.706942,-25.42346 -2.594795,-15.41602 1.794531,-25.67296 7.476279,-34.39142 5.011156,-7.68945 16.267012,-10.49326 27.203041,-9.17034 9.09805,1.10058 19.29851,-0.53107 23.67227,5.47326 5.44421,7.47385 14.4236,17.49516 11.574,37.89951 z"
       id="path4623"
       inkscape:connector-curvature="0"
       sodipodi:nodetypes="szszsssss"
       inkscape:export-xdpi="126.98"
       inkscape:export-ydpi="126.98" />
    <path
       style="fill:none;stroke:#000000;stroke-width:0.5;stroke-linecap:butt;stroke-linejoin:miter;stroke-miterlimit:4;stroke-dasharray:none;stroke-opacity:1"
       d="m 102.58927,145.50134 c -0.46824,0.72206 -1.45499,-0.40394 -2.894777,-0.43707 -1.311219,-0.0301 -2.485435,0.86008 -3.080796,0.43707 -0.415835,-0.29545 -0.08559,-1.52713 0.800775,-1.90395 0.436287,-0.18548 1.392685,-0.99285 2.205801,-0.98988 0.741247,0.003 1.288577,0.54668 1.929937,0.83212 0.86205,0.38365 1.30278,1.65504 1.03906,2.06171 z"
       id="path4519"
       inkscape:connector-curvature="0"
       sodipodi:nodetypes="sssssss"
       inkscape:export-xdpi="126.98"
       inkscape:export-ydpi="126.98" />
    <path
       style="opacity:0.3;fill:#000000;fill-opacity:1;stroke:none;stroke-width:0.26458332px;stroke-linecap:butt;stroke-linejoin:miter;stroke-opacity:1"
       d="m 96.792562,145.69305 c 0,0 -0.448362,3.00645 0.138452,3.6818 0.586813,0.67535 2.056124,0.84329 2.407946,0.14713 0.351823,-0.69615 1.47686,0.41583 2.13994,-0.27195 0.66308,-0.68774 -0.10388,-3.64242 -0.10388,-3.64242 0,0 -1.37206,-0.74425 -1.900645,-0.56707 -0.528585,0.17718 -2.214091,0.61906 -2.681811,0.65247 z"
       id="path4550"
       inkscape:connector-curvature="0"
       sodipodi:nodetypes="czzzcccc"
       inkscape:export-xdpi="126.98"
       inkscape:export-ydpi="126.98" />
    <path
       style="fill:#ffffff;fill-opacity:1;stroke:#000000;stroke-width:0.5;stroke-linecap:butt;stroke-linejoin:miter;stroke-miterlimit:4;stroke-dasharray:none;stroke-opacity:1"
       d="m 97.652644,145.66591 -0.08234,3.15187 1.241853,0.27538 0.133635,-3.87541 z"
       id="path4523"
       inkscape:connector-curvature="0"
       sodipodi:nodetypes="ccccc"
       inkscape:export-xdpi="126.98"
       inkscape:export-ydpi="126.98" />
    <path
       style="fill:#ffffff;fill-opacity:1;stroke:#000000;stroke-width:0.5;stroke-linecap:butt;stroke-linejoin:miter;stroke-miterlimit:4;stroke-dasharray:none;stroke-opacity:1"
       d="m 101.37502,145.60764 0.20045,2.92981 -1.33636,0.13364 -0.13363,-3.46436 z"
       id="path4523-2"
       inkscape:connector-curvature="0"
       sodipodi:nodetypes="ccccc"
       inkscape:export-xdpi="126.98"
       inkscape:export-ydpi="126.98" />
    <path
       style="fill:#000000;fill-opacity:1;stroke:none;stroke-width:1.26028359;stroke-linecap:butt;stroke-linejoin:miter;stroke-miterlimit:4;stroke-dasharray:none;stroke-opacity:1"
       d="m 101.49413,135.36154 c 0.10868,-4.42876 1.95571,-11.76171 6.15455,-16.57058 3.38315,0.31431 5.28206,0.90181 7.95353,1.24445 3.79488,0.48672 5.84306,0.75583 9.44825,4.93898 1.51098,1.75321 3.28194,2.32378 4.25528,5.42021 0.89499,2.84719 2.94944,4.59658 2.96119,5.67207 0.0457,4.18457 -1.30991,5.01056 -4.26618,8.83966 -2.32188,3.0074 -5.64588,4.54214 -11.28129,4.31876 -13.00914,-0.51567 -15.33402,-9.4348 -15.22533,-13.86355 z"
       id="path4502-5-4"
       inkscape:connector-curvature="0"
       sodipodi:nodetypes="zcssssssz"
       inkscape:export-xdpi="126.98"
       inkscape:export-ydpi="126.98" />
    <path
       style="fill:#ffffff;fill-opacity:1;stroke:none;stroke-width:1;stroke-linecap:butt;stroke-linejoin:miter;stroke-miterlimit:4;stroke-dasharray:none;stroke-opacity:1"
       d="m 102.23778,136.49854 c 0.0851,-3.56097 1.53138,-9.45706 4.8192,-13.32366 4.84771,0.46247 8.32396,2.23028 11.34791,3.41277 6.34841,2.48247 7.88562,8.75086 7.92887,10.47785 0.0632,2.52381 -1.98758,10.99473 -12.17411,10.5801 -10.18652,-0.41463 -12.00696,-7.5861 -11.92187,-11.14706 z"
       id="path4502-3"
       inkscape:connector-curvature="0"
       sodipodi:nodetypes="zcsszz"
       inkscape:export-xdpi="126.98"
       inkscape:export-ydpi="126.98" />
    <ellipse
       style="opacity:1;fill:#000000;fill-opacity:1;stroke:none;stroke-width:1.69522202;stroke-miterlimit:4;stroke-dasharray:none;stroke-opacity:1"
       id="path4573-8"
       cx="108.54539"
       cy="136.03554"
       rx="0.96113032"
       ry="2.5229673"
       inkscape:export-xdpi="126.98"
       inkscape:export-ydpi="126.98" />
    <path
       style="fill:#000000;fill-opacity:1;stroke:none;stroke-width:1.26028359;stroke-linecap:butt;stroke-linejoin:miter;stroke-miterlimit:4;stroke-dasharray:none;stroke-opacity:1"
       d="m 98.906903,132.76937 c -0.10868,-4.42876 -1.95571,-11.76172 -6.15455,-16.57059 -3.38314,0.31431 -5.28205,0.90181 -7.95352,1.24445 -3.79488,0.48672 -5.84306,0.75583 -9.448255,4.93899 -1.51098,1.75321 -3.28194,2.32378 -4.25528,5.42021 -0.89499,2.84719 -2.94944,4.59658 -2.96119,5.67207 -0.0457,4.18457 1.30991,5.01056 4.26618,8.83966 2.32188,3.0074 5.645885,4.54214 11.281295,4.31875 13.00913,-0.51566 15.33401,-9.43479 15.22532,-13.86354 z"
       id="path4502-5-4-8"
       inkscape:connector-curvature="0"
       sodipodi:nodetypes="zcssssssz"
       inkscape:export-xdpi="126.98"
       inkscape:export-ydpi="126.98" />
    <path
       style="fill:#ffffff;fill-opacity:1;stroke:none;stroke-width:1;stroke-linecap:butt;stroke-linejoin:miter;stroke-miterlimit:4;stroke-dasharray:none;stroke-opacity:1"
       d="m 98.163253,133.90637 c -0.0851,-3.56097 -1.53138,-9.45706 -4.8192,-13.32367 -5.123116,0.48875 -8.685447,2.47719 -11.816143,3.69668 -4.273508,1.66465 -7.418519,8.51223 -7.460632,10.19395 -0.0632,2.52381 1.987585,10.99472 12.174115,10.5801 10.18651,-0.41463 12.00695,-7.5861 11.92186,-11.14706 z"
       id="path4502-3-1"
       inkscape:connector-curvature="0"
       sodipodi:nodetypes="zcsszz"
       inkscape:export-xdpi="126.98"
       inkscape:export-ydpi="126.98" />
    <ellipse
       style="opacity:1;fill:#000000;fill-opacity:1;stroke:none;stroke-width:1.82220614;stroke-miterlimit:4;stroke-dasharray:none;stroke-opacity:1"
       id="path4573-8-3"
       cx="-92.770012"
       cy="135.94604"
       rx="1.0331258"
       ry="2.7119553"
       transform="scale(-1,1)"
       inkscape:export-xdpi="126.98"
       inkscape:export-ydpi="126.98" />
    <path
       style="fill:#000000;fill-opacity:1;stroke:none;stroke-width:0.26458332px;stroke-linecap:butt;stroke-linejoin:miter;stroke-opacity:1"
       d="m 99.643971,141.03757 c -0.749712,-0.0723 -1.67276,1.12714 -1.606396,1.84264 0.06636,0.7155 0.873494,1.19499 1.464656,1.15755 0.591159,-0.0374 1.102789,-0.58275 1.181179,-1.2048 0.0784,-0.62205 -0.28973,-1.72312 -1.039439,-1.79539 z"
       id="path4611"
       inkscape:connector-curvature="0"
       sodipodi:nodetypes="zzzzz"
       inkscape:export-xdpi="126.98"
       inkscape:export-ydpi="126.98" />
    <path
       style="opacity:0.15;fill:#000000;fill-opacity:1;stroke:#000000;stroke-width:0.26458332px;stroke-linecap:butt;stroke-linejoin:miter;stroke-opacity:1"
       d="m 93.344052,120.5827 c -14.255792,2.51525 -21.345104,16.42661 -11.834831,24.04901 -8.568877,-3.84441 -9.623094,-10.69038 -3.835114,-17.15403 5.78798,-6.46365 14.349143,-6.7582 15.669945,-6.89498 z"
       id="path4615"
       inkscape:connector-curvature="0"
       sodipodi:nodetypes="cczc"
       inkscape:export-xdpi="126.98"
       inkscape:export-ydpi="126.98" />
    <path
       style="opacity:0.15;fill:#000000;fill-opacity:1;stroke:#000000;stroke-width:0.26458332px;stroke-linecap:butt;stroke-linejoin:miter;stroke-opacity:1"
       d="m 113.0039,124.18946 c -10.2641,1.06399 -12.56518,18.08206 -2.75154,23.40758 -6.6617,-2.20062 -9.14204,-8.74629 -7.77357,-14.59146 1.36847,-5.84517 2.64447,-7.46588 4.57819,-9.8307 1.42973,0.12745 3.83866,0.35377 5.94692,1.01458 z"
       id="path4619"
       inkscape:connector-curvature="0"
       sodipodi:nodetypes="cczcc"
       inkscape:export-xdpi="126.98"
       inkscape:export-ydpi="126.98" />
    <path
       style="opacity:0.15;fill:#000000;fill-opacity:1;stroke:none;stroke-width:0.26458332px;stroke-linecap:butt;stroke-linejoin:miter;stroke-opacity:1"
       d="m 98.722681,142.98593 c -0.422846,0.76149 -1.83774,1.55799 0.223111,2.23182 l -1.293148,0.44816 c 0,0 -0.734032,0.15976 -1.134937,-0.20773 -0.400904,-0.3675 0.23386,-2.13816 2.204974,-2.47225 z"
       id="path4621"
       inkscape:connector-curvature="0"
       sodipodi:nodetypes="ccccc"
       inkscape:export-xdpi="126.98"
       inkscape:export-ydpi="126.98" />
    <path
       style="fill:none;stroke:#000000;stroke-width:0.5;stroke-linecap:square;stroke-linejoin:miter;stroke-miterlimit:4;stroke-dasharray:none;stroke-opacity:1"
       d="m 126.25946,176.39185 c -3.29344,3.96111 -2.20988,9.3922 -9.69571,12.88558"
       id="path4630"
       inkscape:connector-curvature="0"
       sodipodi:nodetypes="cc"
       inkscape:export-xdpi="126.98"
       inkscape:export-ydpi="126.98" />
    <path
       style="fill:none;stroke:#000000;stroke-width:0.5;stroke-linecap:square;stroke-linejoin:miter;stroke-miterlimit:4;stroke-dasharray:none;stroke-opacity:1"
       d="m 123.85392,177.89802 2.00452,0.93544"
       id="path4632"
       inkscape:connector-curvature="0"
       inkscape:export-xdpi="126.98"
       inkscape:export-ydpi="126.98" />
    <path
       style="fill:none;stroke:#000000;stroke-width:0.5;stroke-linecap:square;stroke-linejoin:miter;stroke-miterlimit:4;stroke-dasharray:none;stroke-opacity:1"
       d="m 123.18575,179.90254 1.5368,1.33635"
       id="path4634"
       inkscape:connector-curvature="0"
       inkscape:export-xdpi="126.98"
       inkscape:export-ydpi="126.98" />
    <path
       style="fill:none;stroke:#000000;stroke-width:0.5;stroke-linecap:square;stroke-linejoin:miter;stroke-miterlimit:4;stroke-dasharray:none;stroke-opacity:1"
       d="m 121.71576,182.77569 2.33861,0.33408"
       id="path4636"
       inkscape:connector-curvature="0"
       inkscape:export-xdpi="126.98"
       inkscape:export-ydpi="126.98" />
    <path
       style="fill:none;stroke:#000000;stroke-width:0.5;stroke-linecap:square;stroke-linejoin:miter;stroke-miterlimit:4;stroke-dasharray:none;stroke-opacity:1"
       d="m 120.7135,185.1143 0.33409,2.13815"
       id="path4638"
       inkscape:connector-curvature="0"
       inkscape:export-xdpi="126.98"
       inkscape:export-ydpi="126.98" />
    <path
       style="fill:none;stroke:#000000;stroke-width:0.5;stroke-linecap:square;stroke-linejoin:miter;stroke-miterlimit:4;stroke-dasharray:none;stroke-opacity:1"
       d="m 117.6399,187.31927 1.87089,1.33635"
       id="path4640"
       inkscape:connector-curvature="0"
       inkscape:export-xdpi="126.98"
       inkscape:export-ydpi="126.98" />
    <path
       style="fill:none;stroke:#000000;stroke-width:0.5;stroke-linecap:square;stroke-linejoin:miter;stroke-miterlimit:4;stroke-dasharray:none;stroke-opacity:1"
       d="m 121.61554,184.19556 1.13589,0.60135"
       id="path4642"
       inkscape:connector-curvature="0"
       inkscape:export-xdpi="126.98"
       inkscape:export-ydpi="126.98" />
    <path
       style="opacity:0.15;fill:#000000;fill-opacity:1;stroke:#000000;stroke-width:0.26458332px;stroke-linecap:butt;stroke-linejoin:miter;stroke-opacity:1"
       d="m 93.738093,107.91741 c -5.152474,1.07405 -6.423504,6.54589 -0.985742,8.28137 l -11.770953,3.81387 c 0,0 -4.441222,3.68526 -5.480656,6.89806 -1.039434,3.2128 -6.425594,5.38616 -4.535712,9.44941 0.09133,6.84859 5.475162,7.87286 11.244792,10.20536 -6.986462,0.32958 -9.631734,8.83709 -8.637031,12.83767 2.215794,8.91167 1.227301,18.44852 4.960262,24.12153 5.384597,8.18301 4.821468,6.15789 8.590457,10.47681 0,0 -6.709077,-2.88207 -8.740698,-5.19718 -2.031622,-2.3151 -5.71689,-4.39397 -7.087053,-11.71726 -1.370166,-7.32329 -5.716892,-24.6157 -5.764138,-26.03311 -0.04725,-1.41741 -2.69308,-10.48884 1.464659,-21.35565 4.157737,-10.86682 8.409969,-16.58371 12.473212,-18.14286 4.063246,-1.55915 7.276042,-3.87426 14.268601,-3.63802 z"
       id="path4644"
       inkscape:connector-curvature="0"
       sodipodi:nodetypes="cccsccssccscssc"
       inkscape:export-xdpi="126.98"
       inkscape:export-ydpi="126.98" />
    <path
       style="fill:#ffffff;fill-opacity:1;stroke:none;stroke-width:0.26458332px;stroke-linecap:butt;stroke-linejoin:miter;stroke-opacity:1"
       d="m 82.116774,111.13953 c 0.831866,3.1403 -3.30122,2.80513 -5.71288,3.67496 0,0 -2.6727,-5.57925 -2.73952,-6.58151 -0.0668,-1.00226 -0.7684,-5.54585 4.27631,-2.37202 3.4893,3.95153 4.13153,5.30085 4.17609,5.27857 z"
       id="path4680-4"
       inkscape:connector-curvature="0"
       sodipodi:nodetypes="ccccc"
       inkscape:export-xdpi="126.98"
       inkscape:export-ydpi="126.98" />
    <path
       style="fill:#ffffff;fill-opacity:1;stroke:none;stroke-width:0.26458332px;stroke-linecap:butt;stroke-linejoin:miter;stroke-opacity:1"
       d="m 117.13087,111.3479 5.71288,3.67496 c 0,0 2.6727,-5.57925 2.73952,-6.58151 0.0668,-1.00226 0.7684,-5.54585 -4.27631,-2.37202 -3.4893,3.95153 -4.13153,5.30085 -4.17609,5.27857 z"
       id="path4680"
       inkscape:connector-curvature="0"
       sodipodi:nodetypes="ccccc"
       inkscape:export-xdpi="126.98"
       inkscape:export-ydpi="126.98" />
    <path
       style="fill:none;stroke:#000000;stroke-width:1;stroke-linecap:butt;stroke-linejoin:miter;stroke-miterlimit:4;stroke-dasharray:none;stroke-opacity:1"
       d="m 122.6957,115.70642 c 1.26965,-3.41245 4.61623,-9.492 2.03794,-10.62396 -2.57829,-1.13197 -5.93231,3.79021 -8.0515,6.78197"
       id="path4663"
       inkscape:connector-curvature="0"
       sodipodi:nodetypes="czc"
       inkscape:export-xdpi="126.98"
       inkscape:export-ydpi="126.98" />
    <path
       style="fill:none;stroke:#000000;stroke-width:0.5;stroke-linecap:square;stroke-linejoin:miter;stroke-miterlimit:4;stroke-dasharray:none;stroke-opacity:1"
       d="m 122.25201,114.8199 c 0,0 -0.30086,-0.3191 -2.79123,-0.60375 -2.49036,-0.28465 -2.64595,-2.17844 -2.64595,-2.17844"
       id="path4682"
       inkscape:connector-curvature="0"
       sodipodi:nodetypes="czc"
       inkscape:export-xdpi="126.98"
       inkscape:export-ydpi="126.98" />
    <path
       style="fill:none;stroke:#000000;stroke-width:0.5;stroke-linecap:butt;stroke-linejoin:miter;stroke-miterlimit:4;stroke-dasharray:none;stroke-opacity:1"
       d="m 118.53592,112.53104 -2.11068,1.905"
       id="path4684"
       inkscape:connector-curvature="0"
       sodipodi:nodetypes="cc"
       inkscape:export-xdpi="126.98"
       inkscape:export-ydpi="126.98" />
    <path
       style="fill:none;stroke:#000000;stroke-width:0.5;stroke-linecap:butt;stroke-linejoin:miter;stroke-miterlimit:4;stroke-dasharray:none;stroke-opacity:1"
       d="m 119.87374,112.68355 -1.03404,2.60035"
       id="path4688"
       inkscape:connector-curvature="0"
       sodipodi:nodetypes="cc"
       inkscape:export-xdpi="126.98"
       inkscape:export-ydpi="126.98" />
    <path
       style="fill:none;stroke:#000000;stroke-width:0.5;stroke-linecap:butt;stroke-linejoin:miter;stroke-miterlimit:4;stroke-dasharray:none;stroke-opacity:1"
       d="m 121.28501,113.40352 -1.0927,2.15458"
       id="path4690"
       inkscape:connector-curvature="0"
       sodipodi:nodetypes="cc"
       inkscape:export-xdpi="126.98"
       inkscape:export-ydpi="126.98" />
    <path
       style="fill:none;stroke:#000000;stroke-width:0.5;stroke-linecap:butt;stroke-linejoin:miter;stroke-miterlimit:4;stroke-dasharray:none;stroke-opacity:1"
       d="m 122.39965,113.71181 -0.0854,2.64739"
       id="path4692"
       inkscape:connector-curvature="0"
       sodipodi:nodetypes="cc"
       inkscape:export-xdpi="126.98"
       inkscape:export-ydpi="126.98" />
    <path
       style="fill:none;stroke:#000000;stroke-width:0.5;stroke-linecap:butt;stroke-linejoin:miter;stroke-miterlimit:4;stroke-dasharray:none;stroke-opacity:1"
       d="m 115.63709,111.41369 1.94894,0.76776"
       id="path4694"
       inkscape:connector-curvature="0"
       sodipodi:nodetypes="cc"
       inkscape:export-xdpi="126.98"
       inkscape:export-ydpi="126.98" />
    <path
       style="fill:none;stroke:#000000;stroke-width:1;stroke-linecap:butt;stroke-linejoin:miter;stroke-miterlimit:4;stroke-dasharray:none;stroke-opacity:1"
       d="m 76.551944,115.49805 c -1.26965,-3.41245 -4.61623,-9.492 -2.03794,-10.62396 2.57829,-1.13197 5.93231,3.79021 8.0515,6.78197"
       id="path4663-0"
       inkscape:connector-curvature="0"
       sodipodi:nodetypes="czc"
       inkscape:export-xdpi="126.98"
       inkscape:export-ydpi="126.98" />
    <path
       style="fill:none;stroke:#000000;stroke-width:0.5;stroke-linecap:square;stroke-linejoin:miter;stroke-miterlimit:4;stroke-dasharray:none;stroke-opacity:1"
       d="m 76.445235,115.18065 c 0,0 0.851259,-0.88822 3.341629,-1.17287 2.49036,-0.28465 2.64595,-2.17844 2.64595,-2.17844"
       id="path4682-4"
       inkscape:connector-curvature="0"
       sodipodi:nodetypes="czc"
       inkscape:export-xdpi="126.98"
       inkscape:export-ydpi="126.98" />
    <path
       style="fill:none;stroke:#000000;stroke-width:0.5;stroke-linecap:butt;stroke-linejoin:miter;stroke-miterlimit:4;stroke-dasharray:none;stroke-opacity:1"
       d="m 80.711724,112.32267 2.11068,1.905"
       id="path4684-8"
       inkscape:connector-curvature="0"
       sodipodi:nodetypes="cc"
       inkscape:export-xdpi="126.98"
       inkscape:export-ydpi="126.98" />
    <path
       style="fill:none;stroke:#000000;stroke-width:0.5;stroke-linecap:butt;stroke-linejoin:miter;stroke-miterlimit:4;stroke-dasharray:none;stroke-opacity:1"
       d="m 79.964492,112.75866 0.443452,2.31687"
       id="path4688-6"
       inkscape:connector-curvature="0"
       sodipodi:nodetypes="cc"
       inkscape:export-xdpi="126.98"
       inkscape:export-ydpi="126.98" />
    <path
       style="fill:none;stroke:#000000;stroke-width:0.5;stroke-linecap:butt;stroke-linejoin:miter;stroke-miterlimit:4;stroke-dasharray:none;stroke-opacity:1"
       d="m 78.26974,113.05341 0.785594,2.29632"
       id="path4690-0"
       inkscape:connector-curvature="0"
       sodipodi:nodetypes="cc"
       inkscape:export-xdpi="126.98"
       inkscape:export-ydpi="126.98" />
    <path
       style="fill:none;stroke:#000000;stroke-width:0.5;stroke-linecap:butt;stroke-linejoin:miter;stroke-miterlimit:4;stroke-dasharray:none;stroke-opacity:1"
       d="m 76.847994,113.50344 0.170109,2.6636"
       id="path4692-0"
       inkscape:connector-curvature="0"
       sodipodi:nodetypes="cc"
       inkscape:export-xdpi="126.98"
       inkscape:export-ydpi="126.98" />
    <path
       style="fill:none;stroke:#000000;stroke-width:0.5;stroke-linecap:butt;stroke-linejoin:miter;stroke-miterlimit:4;stroke-dasharray:none;stroke-opacity:1"
       d="m 83.834977,111.33525 -2.173363,0.63783"
       id="path4694-2"
       inkscape:connector-curvature="0"
       sodipodi:nodetypes="cc"
       inkscape:export-xdpi="126.98"
       inkscape:export-ydpi="126.98" />
    <path
       style="opacity:0.15;fill:#000000;fill-opacity:1;stroke:none;stroke-width:0.26458332px;stroke-linecap:butt;stroke-linejoin:miter;stroke-opacity:1"
       d="m 79.061128,114.01016 c -2.601396,-3.74455 -3.883653,-7.72938 -2.993419,-9.21105 0,0 -3.849937,-1.06097 -1.93713,4.77195 1.511906,4.6302 2.273313,5.24343 2.273313,5.24343 z"
       id="path4732"
       inkscape:connector-curvature="0"
       sodipodi:nodetypes="ccccc"
       inkscape:export-xdpi="126.98"
       inkscape:export-ydpi="126.98" />
    <path
       style="opacity:0.15;fill:#000000;fill-opacity:1;stroke:#000000;stroke-width:0.26458332px;stroke-linecap:butt;stroke-linejoin:miter;stroke-opacity:1"
       d="m 119.29873,114.15402 c -0.23458,-3.56213 2.55701,-8.51964 5.76414,-8.64621 0,0 -2.58058,-1.34843 -5.48065,2.50409 l -2.90008,3.85253 c 0,0 0.80047,2.55664 2.61659,2.28959 z"
       id="path4734"
       inkscape:connector-curvature="0"
       sodipodi:nodetypes="ccscc"
       inkscape:export-xdpi="126.98"
       inkscape:export-ydpi="126.98" />
    <path
       style="opacity:0.15;fill:#000000;fill-opacity:1;stroke:none;stroke-width:0.26458332px;stroke-linecap:butt;stroke-linejoin:miter;stroke-opacity:1"
       d="m 87.572356,203.38002 c -2.440071,-3.30935 -2.820354,-7.3835 -0.448846,-9.37853 l -3.645967,-1.85471 c 0,0 -0.393652,8.82364 4.094813,11.23324 z"
       id="path4769"
       inkscape:connector-curvature="0"
       sodipodi:nodetypes="cccc"
       inkscape:export-xdpi="126.98"
       inkscape:export-ydpi="126.98" />
    <path
       style="opacity:0.15;fill:#000000;fill-opacity:1;stroke:none;stroke-width:0.26458332px;stroke-linecap:butt;stroke-linejoin:miter;stroke-opacity:1"
       d="m 118.63426,204.49133 c -3.31569,-1.72046 -1.30363,-7.65654 -3.74148,-9.07668 l -1.80135,0.97858 c 0,0 3.5049,10.43671 5.54283,8.0981 z"
       id="path4771"
       inkscape:connector-curvature="0"
       sodipodi:nodetypes="cccc"
       inkscape:export-xdpi="126.98"
       inkscape:export-ydpi="126.98" />
    <path
       style="fill:none;stroke:#000000;stroke-width:1;stroke-linecap:butt;stroke-linejoin:miter;stroke-miterlimit:4;stroke-dasharray:none;stroke-opacity:1"
       d="m 134.26182,157.34573 c 3.47786,-1.07766 12.35891,-5.10331 11.68144,-7.83642 -0.67746,-2.73312 -6.04052,-0.22174 -9.70381,-0.0738"
       id="path4663-6-9"
       inkscape:connector-curvature="0"
       sodipodi:nodetypes="czc"
       inkscape:export-xdpi="126.98"
       inkscape:export-ydpi="126.98" />
    <path
       style="opacity:0.3;fill:#000000;fill-opacity:1;stroke:none;stroke-width:1.1374774;stroke-linecap:butt;stroke-linejoin:miter;stroke-miterlimit:4;stroke-dasharray:none;stroke-opacity:1"
       d="m 74.959106,165.57635 c 1.157284,4.21378 3.429644,10.86886 6.534144,10.18291 3.1045,-0.68595 0.03524,-6.66214 -0.130219,-11.10289"
       id="path4663-6-9-6-9"
       inkscape:connector-curvature="0"
       sodipodi:nodetypes="czc"
       inkscape:export-xdpi="126.98"
       inkscape:export-ydpi="126.98" />
    <path
       style="fill:#ffffff;fill-opacity:1;stroke:#000000;stroke-width:1;stroke-linecap:butt;stroke-linejoin:miter;stroke-miterlimit:4;stroke-dasharray:none;stroke-opacity:1"
       d="m 75.3294,165.21148 c 1.084362,3.47578 4.320283,9.74473 7.052084,9.062 2.73181,-0.68273 0.210098,-6.04094 0.05506,-9.70394"
       id="path4663-6-9-6"
       inkscape:connector-curvature="0"
       sodipodi:nodetypes="czc"
       inkscape:export-xdpi="126.98"
       inkscape:export-ydpi="126.98" />
    <path
       style="fill:none;stroke:#000000;stroke-width:0.5;stroke-linecap:square;stroke-linejoin:miter;stroke-miterlimit:4;stroke-dasharray:none;stroke-opacity:1"
       d="m 81.962439,164.77272 c 0,0 -0.405363,0.16741 -2.792946,-0.59575 -2.387574,-0.76315 -3.307147,0.89969 -3.307147,0.89969"
       id="path4682-7"
       inkscape:connector-curvature="0"
       sodipodi:nodetypes="czc"
       inkscape:export-xdpi="126.98"
       inkscape:export-ydpi="126.98" />
    <path
       style="fill:none;stroke:#000000;stroke-width:0.5;stroke-linecap:butt;stroke-linejoin:miter;stroke-miterlimit:4;stroke-dasharray:none;stroke-opacity:1"
       d="m 77.634206,165.33363 -1.142181,-2.60374"
       id="path4684-6"
       inkscape:connector-curvature="0"
       sodipodi:nodetypes="cc"
       inkscape:export-xdpi="126.98"
       inkscape:export-ydpi="126.98" />
    <path
       style="fill:none;stroke:#000000;stroke-width:0.5;stroke-linecap:butt;stroke-linejoin:miter;stroke-miterlimit:4;stroke-dasharray:none;stroke-opacity:1"
       d="m 78.916644,165.74397 0.12504,-2.79562"
       id="path4688-3"
       inkscape:connector-curvature="0"
       sodipodi:nodetypes="cc"
       inkscape:export-xdpi="126.98"
       inkscape:export-ydpi="126.98" />
    <path
       style="fill:none;stroke:#000000;stroke-width:0.5;stroke-linecap:butt;stroke-linejoin:miter;stroke-miterlimit:4;stroke-dasharray:none;stroke-opacity:1"
       d="m 80.499087,165.66705 -0.111501,-2.41324"
       id="path4690-8"
       inkscape:connector-curvature="0"
       sodipodi:nodetypes="cc"
       inkscape:export-xdpi="126.98"
       inkscape:export-ydpi="126.98" />
    <path
       style="fill:none;stroke:#000000;stroke-width:0.5;stroke-linecap:butt;stroke-linejoin:miter;stroke-miterlimit:4;stroke-dasharray:none;stroke-opacity:1"
       d="m 81.642006,165.8437 1.009315,-2.44892"
       id="path4692-1"
       inkscape:connector-curvature="0"
       sodipodi:nodetypes="cc"
       inkscape:export-xdpi="126.98"
       inkscape:export-ydpi="126.98" />
    <path
       style="fill:none;stroke:#000000;stroke-width:0.5;stroke-linecap:butt;stroke-linejoin:miter;stroke-miterlimit:4;stroke-dasharray:none;stroke-opacity:1"
       d="m 74.532237,165.16197 2.092308,0.10033"
       id="path4694-9"
       inkscape:connector-curvature="0"
       sodipodi:nodetypes="cc"
       inkscape:export-xdpi="126.98"
       inkscape:export-ydpi="126.98" />
    <ellipse
       style="opacity:1;fill:#ff2e2e;fill-opacity:1;stroke:#000000;stroke-width:1;stroke-miterlimit:4;stroke-dasharray:none;stroke-opacity:1"
       id="path4597"
       cx="143.65736"
       cy="89.999748"
       rx="20.178848"
       ry="22.98518"
       inkscape:export-xdpi="126.98"
       inkscape:export-ydpi="126.98" />
    <path
       style="fill:none;stroke:#000000;stroke-width:0.5;stroke-linecap:butt;stroke-linejoin:miter;stroke-miterlimit:4;stroke-dasharray:none;stroke-opacity:1"
       d="m 145.7271,148.66101 c -3.89108,-14.75322 6.69226,-24.09503 2.60749,-36.34425"
       id="path4599"
       inkscape:connector-curvature="0"
       sodipodi:nodetypes="cc"
       inkscape:export-xdpi="126.98"
       inkscape:export-ydpi="126.98" />
    <path
       style="opacity:0.15;fill:#000000;fill-opacity:1;stroke:#000000;stroke-width:0.26458332px;stroke-linecap:butt;stroke-linejoin:miter;stroke-opacity:1"
       d="m 143.53646,67.001487 c -21.29753,8.371074 -18.32063,41.517513 0.61421,46.018603 0,0 -19.49612,0.84194 -20.55246,-22.25335 -1.03943,-22.72582 19.37128,-23.906993 19.93825,-23.765253 z"
       id="path4601"
       inkscape:connector-curvature="0"
       sodipodi:nodetypes="ccsc"
       inkscape:export-xdpi="126.98"
       inkscape:export-ydpi="126.98" />
    <path
       style="opacity:0.15;fill:none;fill-opacity:1;stroke:#000000;stroke-width:0.49384508;stroke-linecap:square;stroke-linejoin:miter;stroke-miterlimit:4;stroke-dasharray:none;stroke-opacity:1"
       d="m 126.03335,176.24618 c -3.2529,3.91235 -2.18267,9.27658 -9.57636,12.72696"
       id="path4630-3"
       inkscape:connector-curvature="0"
       sodipodi:nodetypes="cc"
       inkscape:export-xdpi="126.98"
       inkscape:export-ydpi="126.98" />
    <path
       style="opacity:0.15;fill:#000000;fill-opacity:1;stroke:none;stroke-width:0.26458332px;stroke-linecap:butt;stroke-linejoin:miter;stroke-opacity:1"
       d="m 78.174925,164.02325 c -1.215853,1.73693 1.580464,7.72675 5.079053,9.99275 0,0 -4.134119,-0.0236 -5.835007,-3.82701 -1.700899,-3.80341 -2.062679,-4.83166 -1.94783,-4.50504 l 0.695784,-0.99924 z"
       id="path4618"
       inkscape:connector-curvature="0"
       sodipodi:nodetypes="ccsccc"
       inkscape:export-xdpi="126.98"
       inkscape:export-ydpi="126.98" />
  </g>
</svg>
