<?xml version="1.0" encoding="UTF-8" standalone="no"?>
<!-- Created with Inkscape (http://www.inkscape.org/) -->

<svg
   xmlns:dc="http://purl.org/dc/elements/1.1/"
   xmlns:cc="http://creativecommons.org/ns#"
   xmlns:rdf="http://www.w3.org/1999/02/22-rdf-syntax-ns#"
   xmlns:svg="http://www.w3.org/2000/svg"
   xmlns="http://www.w3.org/2000/svg"
   xmlns:sodipodi="http://sodipodi.sourceforge.net/DTD/sodipodi-0.dtd"
   xmlns:inkscape="http://www.inkscape.org/namespaces/inkscape"
   width="103.78891mm"
   height="66.602348mm"
   viewBox="0 0 103.78891 66.602348"
   version="1.1"
   id="svg6256"
   inkscape:version="0.92.1 r15371"
   sodipodi:docname="gopher_boxing.svg"
   inkscape:export-filename="C:\Users\Marcus Olsson\Desktop\gophercises\gopher_boxing.png"
   inkscape:export-xdpi="244.73"
   inkscape:export-ydpi="244.73">
  <defs
     id="defs6250" />
  <sodipodi:namedview
     id="base"
     pagecolor="#ffffff"
     bordercolor="#666666"
     borderopacity="1.0"
     inkscape:pageopacity="0.0"
     inkscape:pageshadow="2"
     inkscape:zoom="1.4"
     inkscape:cx="10.765611"
     inkscape:cy="130.49793"
     inkscape:document-units="mm"
     inkscape:current-layer="layer1"
     showgrid="false"
     fit-margin-top="0"
     fit-margin-left="0"
     fit-margin-right="0"
     fit-margin-bottom="0"
     inkscape:window-width="2560"
     inkscape:window-height="1377"
     inkscape:window-x="-8"
     inkscape:window-y="-8"
     inkscape:window-maximized="1" />
  <metadata
     id="metadata6253">
    <rdf:RDF>
      <cc:Work
         rdf:about="">
        <dc:format>image/svg+xml</dc:format>
        <dc:type
           rdf:resource="http://purl.org/dc/dcmitype/StillImage" />
        <dc:title />
      </cc:Work>
    </rdf:RDF>
  </metadata>
  <g
     inkscape:label="Layer 1"
     inkscape:groupmode="layer"
     id="layer1"
     transform="translate(-25.467291,-117.04406)">
    <path
       inkscape:export-ydpi="74.459999"
       inkscape:export-xdpi="74.459999"
       inkscape:export-filename="C:\Users\Marcus Olsson\Desktop\gophercises_logo.png"
       sodipodi:nodetypes="cczc"
       inkscape:connector-curvature="0"
       id="path5507-2-6-0-9"
       d="m 68.302735,155.93779 -0.161282,-5.62465 c 0,0 9.877692,-1.22389 10.07011,2.23538 0.19241,3.45927 -9.908828,3.38927 -9.908828,3.38927 z"
       style="display:inline;fill:#cdc18b;fill-opacity:1;stroke:#000000;stroke-width:1;stroke-linecap:butt;stroke-linejoin:miter;stroke-miterlimit:4;stroke-dasharray:none;stroke-opacity:1" />
    <path
       sodipodi:nodetypes="ccccccc"
       inkscape:connector-curvature="0"
       id="path7658"
       d="m 75.656654,148.99304 c 0.98248,-4.83158 5.594821,-5.36325 7.20476,-2.99882 6.694681,-0.36022 6.917629,9.57312 1.733719,11.4335 -3.70187,1.17563 -6.164048,0.53784 -7.999928,-1.0161 -1.21018,0.7113 -2.320081,0.75628 -3.319801,0.069 -0.896549,-2.19033 -1.293461,-4.44094 -0.248809,-6.86544 0.764029,-0.66304 1.827099,-0.95369 2.630059,-0.62214 z"
       style="display:inline;fill:#f45866;fill-opacity:1;stroke:#000000;stroke-width:1;stroke-linecap:round;stroke-linejoin:miter;stroke-miterlimit:4;stroke-dasharray:none;stroke-opacity:1"
       inkscape:export-filename="C:\Users\Marcus Olsson\Desktop\gophercises_logo.png"
       inkscape:export-xdpi="74.459999"
       inkscape:export-ydpi="74.459999" />
    <path
       style="opacity:0.15;fill:#000000;fill-opacity:1;stroke:none;stroke-width:0.26458332px;stroke-linecap:butt;stroke-linejoin:miter;stroke-opacity:1"
       d="m 75.035904,156.95994 c -1.822431,-3.38117 -1.505471,-6.00064 0,-7.93519 l -1.63536,-0.47956 -0.909511,3.175 0.264581,3.32383 0.79375,1.60403 z"
       id="path3307"
       inkscape:connector-curvature="0"
       sodipodi:nodetypes="ccccccc"
       inkscape:export-filename="C:\Users\Marcus Olsson\Desktop\gophercises_logo.png"
       inkscape:export-xdpi="74.459999"
       inkscape:export-ydpi="74.459999" />
    <ellipse
       ry="0.46694764"
       rx="4.7683778"
       cy="181.75243"
       cx="63.888393"
       id="path6798-6-4-8-5-1"
       style="display:inline;opacity:0.3;fill:#000000;fill-opacity:1;stroke:none;stroke-width:0.59697044;stroke-linecap:round;stroke-linejoin:round;stroke-miterlimit:4;stroke-dasharray:none;stroke-dashoffset:0;stroke-opacity:1;paint-order:stroke fill markers"
       inkscape:export-filename="C:\Users\Marcus Olsson\Desktop\gophercises_logo.png"
       inkscape:export-xdpi="74.459999"
       inkscape:export-ydpi="74.459999" />
    <path
       inkscape:export-ydpi="74.459999"
       inkscape:export-xdpi="74.459999"
       inkscape:export-filename="C:\Users\Marcus Olsson\Desktop\gophercises_logo.png"
       sodipodi:nodetypes="zzzz"
       inkscape:connector-curvature="0"
       id="path5507-2-5-1-6-5-0"
       d="m 64.990673,172.68672 c -1.202198,-0.72482 -5.01378,0.77033 -5.243029,1.95704 -0.22928,1.1867 2.436149,8.06979 4.494149,6.43959 2.058001,-1.6302 1.95108,-7.6718 0.74888,-8.39663 z"
       style="display:inline;fill:#cdc18b;fill-opacity:1;stroke:#000000;stroke-width:1;stroke-linecap:butt;stroke-linejoin:miter;stroke-miterlimit:4;stroke-dasharray:none;stroke-opacity:1" />
    <ellipse
       ry="0.38073984"
       rx="3.8880405"
       cy="180.75444"
       cx="34.948452"
       id="path6798-6-4-8-5"
       style="display:inline;opacity:0.3;fill:#000000;fill-opacity:1;stroke:none;stroke-width:0.48675784;stroke-linecap:round;stroke-linejoin:round;stroke-miterlimit:4;stroke-dasharray:none;stroke-dashoffset:0;stroke-opacity:1;paint-order:stroke fill markers"
       inkscape:export-filename="C:\Users\Marcus Olsson\Desktop\gophercises_logo.png"
       inkscape:export-xdpi="74.459999"
       inkscape:export-ydpi="74.459999" />
    <path
       inkscape:export-ydpi="74.459999"
       inkscape:export-xdpi="74.459999"
       inkscape:export-filename="C:\Users\Marcus Olsson\Desktop\gophercises_logo.png"
       sodipodi:nodetypes="zzzz"
       inkscape:connector-curvature="0"
       id="path5507-2-5-1-6-5-0-7"
       d="m 36.679234,171.76118 c 1.38156,-0.24891 4.41028,2.50617 4.20166,3.69668 -0.20858,1.19051 -5.151501,6.6722 -6.493611,4.41573 -1.34211,-2.25647 0.910401,-7.86349 2.291951,-8.11241 z"
       style="display:inline;fill:#cdc18b;fill-opacity:1;stroke:#000000;stroke-width:1;stroke-linecap:butt;stroke-linejoin:miter;stroke-miterlimit:4;stroke-dasharray:none;stroke-opacity:1" />
    <path
       inkscape:export-ydpi="74.459999"
       inkscape:export-xdpi="74.459999"
       inkscape:export-filename="C:\Users\Marcus Olsson\Desktop\gophercises_logo.png"
       sodipodi:nodetypes="zzzz"
       inkscape:connector-curvature="0"
       id="path5507-2-6-0-4-2-2-5-3"
       d="m 56.050563,123.76676 c 0.777161,0.52999 4.195831,0.50561 4.24879,-1.04098 0.053,-1.54658 -1.649499,-5.82205 -3.310919,-5.109 -1.66144,0.71305 -1.715031,5.61998 -0.9379,6.14998 z"
       style="display:inline;fill:#dbd56e;fill-opacity:1;stroke:#000000;stroke-width:1;stroke-linecap:butt;stroke-linejoin:miter;stroke-miterlimit:4;stroke-dasharray:none;stroke-opacity:1" />
    <path
       style="display:inline;opacity:0.15;fill:#000000;fill-opacity:1;stroke:none;stroke-width:1;stroke-linecap:butt;stroke-linejoin:miter;stroke-miterlimit:4;stroke-dasharray:none;stroke-opacity:1"
       d="m 57.298682,117.61194 c -0.103722,0.007 -0.207769,0.0329 -0.31161,0.0775 -1.661438,0.71305 -1.715056,5.62002 -0.937927,6.15002 0.331335,0.22595 1.143307,0.34926 1.969389,0.29869 -0.64965,-2.11583 -1.617096,-4.19291 -0.538469,-6.5195 -0.06027,-0.007 -0.120838,-0.0111 -0.181383,-0.007 z"
       id="path5507-2-6-0-4-2-2-5-3-5"
       inkscape:connector-curvature="0"
       sodipodi:nodetypes="cccccc"
       inkscape:export-filename="C:\Users\Marcus Olsson\Desktop\gophercises_logo.png"
       inkscape:export-xdpi="74.459999"
       inkscape:export-ydpi="74.459999" />
    <path
       inkscape:export-ydpi="74.459999"
       inkscape:export-xdpi="74.459999"
       inkscape:export-filename="C:\Users\Marcus Olsson\Desktop\gophercises_logo.png"
       sodipodi:nodetypes="ssszzs"
       inkscape:connector-curvature="0"
       id="path5333-9-5"
       d="m 68.705454,150.07943 c 0.94882,8.09236 1.946061,15.24158 -0.658111,20.1434 -2.43554,4.58441 -14.602949,6.77208 -21.826279,5.64333 -16.631481,-2.59891 -12.405661,-11.67277 -15.082701,-24.98828 -2.67704,-13.31551 -4.66283,-28.79496 18.211501,-30.28625 22.874329,-1.49129 17.51181,13.76249 19.35559,29.4878 z"
       style="display:inline;opacity:1;fill:#dbd56e;fill-opacity:1;stroke:#000000;stroke-width:2;stroke-linecap:round;stroke-linejoin:round;stroke-miterlimit:4;stroke-dasharray:none;stroke-opacity:1;paint-order:stroke fill markers" />
    <path
       style="display:inline;opacity:0.15;fill:#0c0b03;fill-opacity:1;stroke:none;stroke-width:2;stroke-linecap:round;stroke-linejoin:round;stroke-miterlimit:4;stroke-dasharray:none;stroke-opacity:1;paint-order:stroke fill markers"
       d="m 55.679075,120.40608 c -0.67849,0.0139 -5.593527,0.13756 -6.329262,0.18552 -22.87433,1.49129 -20.888333,16.97102 -18.211292,30.28653 2.677041,13.31551 -1.549197,22.38924 15.082284,24.98813 3.389138,0.52961 7.867031,0.32863 11.917101,-0.50694 -6.386724,-3.54378 -11.741904,-19.06175 -4.048847,-24.54217 L 52.38942,130.63388 c -3.419575,-1.50261 -0.736227,-10.31086 3.289655,-10.2278 z"
       id="path5333-9-5-5"
       inkscape:connector-curvature="0"
       sodipodi:nodetypes="cssccccc"
       inkscape:export-filename="C:\Users\Marcus Olsson\Desktop\gophercises_logo.png"
       inkscape:export-xdpi="74.459999"
       inkscape:export-ydpi="74.459999" />
    <path
       inkscape:export-ydpi="74.459999"
       inkscape:export-xdpi="74.459999"
       inkscape:export-filename="C:\Users\Marcus Olsson\Desktop\gophercises_logo.png"
       sodipodi:nodetypes="zzzz"
       inkscape:connector-curvature="0"
       id="path5507-2-6-0-4-2-2-5"
       d="m 36.422194,126.84626 c 0.93324,0.11809 3.966,-1.45996 3.30908,-2.8611 -0.65692,-1.40113 -4.11913,-4.43282 -5.27379,-3.04159 -1.154671,1.39124 1.03148,5.7846 1.96469,5.9027 z"
       style="display:inline;fill:#dbd56e;fill-opacity:1;stroke:#000000;stroke-width:1;stroke-linecap:butt;stroke-linejoin:miter;stroke-miterlimit:4;stroke-dasharray:none;stroke-opacity:1" />
    <circle
       inkscape:export-ydpi="74.459999"
       inkscape:export-xdpi="74.459999"
       inkscape:export-filename="C:\Users\Marcus Olsson\Desktop\gophercises_logo.png"
       r="10.163107"
       cy="140.79698"
       cx="52.389553"
       id="path5336-8-3"
       style="display:inline;opacity:1;fill:#ffffff;fill-opacity:1;stroke:#000000;stroke-width:2;stroke-linecap:round;stroke-linejoin:round;stroke-miterlimit:4;stroke-dasharray:none;stroke-opacity:1;paint-order:stroke fill markers" />
    <path
       sodipodi:nodetypes="czc"
       inkscape:connector-curvature="0"
       id="path7660"
       d="m 82.861414,145.99422 c 0.888381,4.0838 -0.718129,5.25486 -2.355109,5.24264 -1.63698,-0.0122 -3.156741,-2.58065 -1.421442,-4.27691"
       style="display:inline;fill:none;stroke:#000000;stroke-width:1;stroke-linecap:round;stroke-linejoin:miter;stroke-miterlimit:4;stroke-dasharray:none;stroke-opacity:1"
       inkscape:export-filename="C:\Users\Marcus Olsson\Desktop\gophercises_logo.png"
       inkscape:export-xdpi="74.459999"
       inkscape:export-ydpi="74.459999" />
    <path
       style="display:inline;opacity:0.15;fill:#000000;fill-opacity:1;stroke:none;stroke-width:1;stroke-linecap:round;stroke-linejoin:miter;stroke-miterlimit:4;stroke-dasharray:none;stroke-opacity:1"
       d="m 80.133473,144.62993 c -1.612768,0.003 -3.214714,1.16194 -4.032832,3.47421 -0.206243,3.34334 -0.207672,6.50032 0.883179,8.37362 1.184936,0.97598 2.323941,1.56904 4.187825,1.55187 -1.227006,0.32829 -2.436919,-3.31084 -1.452854,-6.3161 0.393436,-1.20151 -0.256937,-2.24573 -0.06887,-3.13056 0.188066,-0.88483 1.405334,-3.95968 1.372897,-3.84245 -0.03244,0.11722 -0.584465,-0.11112 -0.889345,-0.11059 z"
       id="path7658-3"
       inkscape:connector-curvature="0"
       sodipodi:nodetypes="ccccszzc"
       inkscape:export-filename="C:\Users\Marcus Olsson\Desktop\gophercises_logo.png"
       inkscape:export-xdpi="74.459999"
       inkscape:export-ydpi="74.459999" />
    <path
       sodipodi:nodetypes="sssss"
       inkscape:connector-curvature="0"
       id="path5336-0-6-0"
       d="m 79.846945,139.13064 c 0.701839,4.97434 -2.761681,9.57579 -7.736031,10.27764 -4.97433,0.70185 -4.10429,-3.53368 -4.806119,-8.50803 -0.70186,-4.97434 -2.709812,-8.80379 2.264519,-9.50563 4.97432,-0.70185 9.575781,2.76169 10.277631,7.73602 z"
       style="display:inline;opacity:1;fill:#ffffff;fill-opacity:1;stroke:#000000;stroke-width:2;stroke-linecap:round;stroke-linejoin:round;stroke-miterlimit:4;stroke-dasharray:none;stroke-opacity:1;paint-order:stroke fill markers"
       inkscape:export-filename="C:\Users\Marcus Olsson\Desktop\gophercises_logo.png"
       inkscape:export-xdpi="74.459999"
       inkscape:export-ydpi="74.459999" />
    <path
       style="display:inline;opacity:0.15;fill:#000000;fill-opacity:1;stroke:none;stroke-width:2;stroke-linecap:round;stroke-linejoin:round;stroke-miterlimit:4;stroke-dasharray:none;stroke-opacity:1;paint-order:stroke fill markers"
       d="m 52.38942,130.63388 c -5.613006,-5e-5 -10.163257,4.5502 -10.163204,10.16321 -5.3e-5,5.613 4.550198,10.16326 10.163204,10.1632 0.569601,-5.3e-4 1.138148,-0.0489 1.699639,-0.14469 -10.431217,-3.91706 -10.987276,-16.9214 -1.699639,-20.18172 z"
       id="path5336-8-3-5"
       inkscape:connector-curvature="0"
       sodipodi:nodetypes="ccccc"
       inkscape:export-filename="C:\Users\Marcus Olsson\Desktop\gophercises_logo.png"
       inkscape:export-xdpi="74.459999"
       inkscape:export-ydpi="74.459999" />
    <circle
       inkscape:export-ydpi="74.459999"
       inkscape:export-xdpi="74.459999"
       inkscape:export-filename="C:\Users\Marcus Olsson\Desktop\gophercises_logo.png"
       r="2.2256074"
       cy="140.77788"
       cx="59.071926"
       id="path5336-0-9-0-8"
       style="display:inline;opacity:1;fill:#000000;fill-opacity:1;stroke:none;stroke-width:0.70086122;stroke-linecap:round;stroke-linejoin:round;stroke-miterlimit:4;stroke-dasharray:none;stroke-opacity:1;paint-order:stroke fill markers" />
    <circle
       inkscape:export-ydpi="74.459999"
       inkscape:export-xdpi="74.459999"
       inkscape:export-filename="C:\Users\Marcus Olsson\Desktop\gophercises_logo.png"
       r="0.66645539"
       cy="140.13721"
       cx="60.184719"
       id="path5336-0-9-5-0-8"
       style="display:inline;opacity:1;fill:#ffffff;fill-opacity:1;stroke:none;stroke-width:0.20987207;stroke-linecap:round;stroke-linejoin:round;stroke-miterlimit:4;stroke-dasharray:none;stroke-opacity:1;paint-order:stroke fill markers" />
    <path
       style="display:inline;opacity:0.15;fill:#000000;fill-opacity:1;stroke:none;stroke-width:2;stroke-linecap:round;stroke-linejoin:round;stroke-miterlimit:4;stroke-dasharray:none;stroke-opacity:1;paint-order:stroke fill markers"
       d="m 69.780091,131.37027 c -0.07031,0.008 -0.140374,0.0143 -0.210841,0.0243 -4.974331,0.70184 -2.96632,4.53154 -2.26446,9.50588 0.701828,4.97435 -0.168423,9.20986 4.805907,8.50801 0.01799,-0.003 0.03572,-0.006 0.05374,-0.009 -3.58316,-0.48652 -5.492599,-16.44382 -2.384346,-18.02938 z"
       id="path5336-0-6-0-6"
       inkscape:connector-curvature="0"
       sodipodi:nodetypes="cccccc"
       inkscape:export-filename="C:\Users\Marcus Olsson\Desktop\gophercises_logo.png"
       inkscape:export-xdpi="74.459999"
       inkscape:export-ydpi="74.459999" />
    <circle
       inkscape:export-ydpi="74.459999"
       inkscape:export-xdpi="74.459999"
       inkscape:export-filename="C:\Users\Marcus Olsson\Desktop\gophercises_logo.png"
       r="2.2256074"
       cy="140.36951"
       cx="77.49646"
       id="path5336-0-9-0-8-7"
       style="display:inline;opacity:1;fill:#000000;fill-opacity:1;stroke:none;stroke-width:0.70086122;stroke-linecap:round;stroke-linejoin:round;stroke-miterlimit:4;stroke-dasharray:none;stroke-opacity:1;paint-order:stroke fill markers" />
    <circle
       inkscape:export-ydpi="74.459999"
       inkscape:export-xdpi="74.459999"
       inkscape:export-filename="C:\Users\Marcus Olsson\Desktop\gophercises_logo.png"
       r="0.66645539"
       cy="139.72884"
       cx="78.609253"
       id="path5336-0-9-5-0-8-3"
       style="display:inline;opacity:1;fill:#ffffff;fill-opacity:1;stroke:none;stroke-width:0.20987207;stroke-linecap:round;stroke-linejoin:round;stroke-miterlimit:4;stroke-dasharray:none;stroke-opacity:1;paint-order:stroke fill markers" />
    <path
       sodipodi:nodetypes="cc"
       inkscape:connector-curvature="0"
       id="path7662"
       d="m 80.852375,151.22107 c -0.335431,3.4239 0.770689,3.86892 2.92676,4.39694"
       style="display:inline;fill:none;stroke:#000000;stroke-width:1;stroke-linecap:round;stroke-linejoin:miter;stroke-miterlimit:4;stroke-dasharray:none;stroke-opacity:1"
       inkscape:export-filename="C:\Users\Marcus Olsson\Desktop\gophercises_logo.png"
       inkscape:export-xdpi="74.459999"
       inkscape:export-ydpi="74.459999" />
    <path
       sodipodi:nodetypes="cc"
       inkscape:connector-curvature="0"
       id="path7664"
       d="m 81.646585,154.91622 c 0.143028,0.58908 0.187129,1.16175 -0.0118,1.60126"
       style="display:inline;fill:none;stroke:#000000;stroke-width:1;stroke-linecap:round;stroke-linejoin:miter;stroke-miterlimit:4;stroke-dasharray:none;stroke-opacity:1"
       inkscape:export-filename="C:\Users\Marcus Olsson\Desktop\gophercises_logo.png"
       inkscape:export-xdpi="74.459999"
       inkscape:export-ydpi="74.459999" />
    <path
       inkscape:export-ydpi="74.459999"
       inkscape:export-xdpi="74.459999"
       inkscape:export-filename="C:\Users\Marcus Olsson\Desktop\gophercises_logo.png"
       sodipodi:nodetypes="zzzz"
       inkscape:connector-curvature="0"
       id="path5507-2-6-0-9-3"
       d="m 40.782464,158.4783 c -2.06079,0.7987 -4.83385,-1.72918 -3.94171,-4.01567 0.89214,-2.28649 6.41267,-7.61212 8.90527,-5.20579 2.49261,2.40636 -2.90277,8.42276 -4.96356,9.22146 z"
       style="display:inline;fill:#cdc18b;fill-opacity:1;stroke:#000000;stroke-width:1;stroke-linecap:butt;stroke-linejoin:miter;stroke-miterlimit:4;stroke-dasharray:none;stroke-opacity:1" />
    <path
       sodipodi:nodetypes="ccccccc"
       inkscape:connector-curvature="0"
       id="path7658-1"
       d="m 39.975194,149.65135 c -3.06441,-3.86249 -0.50166,-7.73401 2.34405,-7.44359 4.03461,-5.35447 11.778829,0.87032 9.86477,6.03466 -1.48383,3.58945 -3.55707,5.06281 -5.92809,5.46709 -0.23488,1.38395 -0.91505,2.26217 -2.08459,2.58463 -2.2532,-0.72419 -4.23083,-1.8695 -5.41341,-4.2298 -0.0154,-1.01149 0.44661,-2.01205 1.21728,-2.41299 z"
       style="display:inline;fill:#f45866;fill-opacity:1;stroke:#000000;stroke-width:1;stroke-linecap:butt;stroke-linejoin:miter;stroke-miterlimit:4;stroke-dasharray:none;stroke-opacity:1"
       inkscape:export-filename="C:\Users\Marcus Olsson\Desktop\gophercises_logo.png"
       inkscape:export-xdpi="74.459999"
       inkscape:export-ydpi="74.459999" />
    <path
       inkscape:export-ydpi="74.459999"
       inkscape:export-xdpi="74.459999"
       inkscape:export-filename="C:\Users\Marcus Olsson\Desktop\gophercises_logo.png"
       sodipodi:nodetypes="cczzc"
       inkscape:connector-curvature="0"
       id="path5372-6-8-8"
       d="m 65.630954,149.3013 2.429531,-0.15971 c 0,0 1.11592,3.14764 0.563959,4.0489 -0.55195,0.90127 -2.60536,1.10542 -3.185329,0.20342 -0.579972,-0.902 0.191839,-4.09261 0.191839,-4.09261 z"
       style="display:inline;fill:#ffffff;fill-opacity:1;stroke:#000000;stroke-width:1;stroke-linecap:butt;stroke-linejoin:miter;stroke-miterlimit:4;stroke-dasharray:none;stroke-opacity:1" />
    <path
       style="display:inline;opacity:0.15;fill:#000000;fill-opacity:1;stroke:none;stroke-width:1;stroke-linecap:butt;stroke-linejoin:miter;stroke-miterlimit:4;stroke-dasharray:none;stroke-opacity:1"
       d="m 66.845902,149.22138 -5.29e-4,5.3e-4 -1.312582,0.5302 c -0.184658,0.8877 -0.546047,2.93786 -0.09353,3.64163 0.353332,0.54953 1.252855,0.68708 2.027266,0.50799 -1.132612,-1.38094 -0.547917,-4.00735 -0.209854,-4.7073 z"
       id="path5372-6-8-8-4"
       inkscape:connector-curvature="0"
       sodipodi:nodetypes="ccccccc"
       inkscape:export-filename="C:\Users\Marcus Olsson\Desktop\gophercises_logo.png"
       inkscape:export-xdpi="74.459999"
       inkscape:export-ydpi="74.459999" />
    <path
       inkscape:export-ydpi="74.459999"
       inkscape:export-xdpi="74.459999"
       inkscape:export-filename="C:\Users\Marcus Olsson\Desktop\gophercises_logo.png"
       sodipodi:nodetypes="zzzzz"
       inkscape:connector-curvature="0"
       id="path5404-3-2-5"
       d="m 69.167364,149.84778 c -0.65188,0.98522 0.22302,-0.0499 -1.5089,-0.0499 -1.73192,0 -3.273661,1.57297 -4.034401,0.24723 -0.760738,-1.32576 -0.138909,-1.91674 2.850411,-2.91992 2.989329,-1.0032 3.34476,1.73738 2.69289,2.72259 z"
       style="display:inline;opacity:1;fill:#cdc18b;fill-opacity:1;stroke:#000000;stroke-width:1.87502766;stroke-linecap:round;stroke-linejoin:round;stroke-miterlimit:4;stroke-dasharray:none;stroke-opacity:1;paint-order:stroke fill markers" />
    <path
       inkscape:export-ydpi="74.459999"
       inkscape:export-xdpi="74.459999"
       inkscape:export-filename="C:\Users\Marcus Olsson\Desktop\gophercises_logo.png"
       sodipodi:nodetypes="cscsc"
       inkscape:connector-curvature="0"
       id="path5368-0-6-9"
       d="m 69.561133,146.72683 c 0,0.98897 -1.180949,1.36863 -2.637729,1.36863 -1.45678,0 -2.63773,-0.37966 -2.637719,-1.36863 -1.1e-5,-0.98899 1.180939,-2.21278 2.637719,-2.21278 1.45678,0 2.637729,1.22379 2.637729,2.21278 z"
       style="display:inline;opacity:1;fill:#000000;fill-opacity:1;stroke:none;stroke-width:2.23333287;stroke-linecap:round;stroke-linejoin:round;stroke-miterlimit:4;stroke-dasharray:none;stroke-opacity:1;paint-order:stroke fill markers" />
    <path
       sodipodi:nodetypes="cc"
       inkscape:connector-curvature="0"
       id="path7127-2-8-8-7-5-5"
       d="m 46.280854,141.94773 c -0.13663,0.12754 -0.38727,0.5731 -0.67873,0.89883"
       style="display:inline;fill:none;stroke:#000000;stroke-width:0.5;stroke-linecap:round;stroke-linejoin:miter;stroke-miterlimit:4;stroke-dasharray:none;stroke-opacity:1"
       inkscape:export-filename="C:\Users\Marcus Olsson\Desktop\gophercises_logo.png"
       inkscape:export-xdpi="74.459999"
       inkscape:export-ydpi="74.459999" />
    <path
       sodipodi:nodetypes="cc"
       inkscape:connector-curvature="0"
       id="path7127-2-8-8-7-5-5-8"
       d="m 46.922684,142.25499 c -0.13663,0.12754 -0.38727,0.5731 -0.67873,0.89883"
       style="display:inline;fill:none;stroke:#000000;stroke-width:0.5;stroke-linecap:round;stroke-linejoin:miter;stroke-miterlimit:4;stroke-dasharray:none;stroke-opacity:1"
       inkscape:export-filename="C:\Users\Marcus Olsson\Desktop\gophercises_logo.png"
       inkscape:export-xdpi="74.459999"
       inkscape:export-ydpi="74.459999" />
    <path
       sodipodi:nodetypes="cc"
       inkscape:connector-curvature="0"
       id="path7127-2-8-8-7-5-5-8-7"
       d="m 47.293504,143.12892 c 0.43005,0.15401 0.82069,0.52571 1.02131,0.94204"
       style="display:inline;fill:none;stroke:#000000;stroke-width:0.5;stroke-linecap:round;stroke-linejoin:miter;stroke-miterlimit:4;stroke-dasharray:none;stroke-opacity:1"
       inkscape:export-filename="C:\Users\Marcus Olsson\Desktop\gophercises_logo.png"
       inkscape:export-xdpi="74.459999"
       inkscape:export-ydpi="74.459999" />
    <path
       sodipodi:nodetypes="cc"
       inkscape:connector-curvature="0"
       id="path7127-2-8-8-7-5-5-8-7-8"
       d="m 81.703793,149.71649 c -0.318098,0.32784 -0.818089,0.52975 -1.28012,0.54019"
       style="display:inline;fill:none;stroke:#000000;stroke-width:0.5;stroke-linecap:round;stroke-linejoin:miter;stroke-miterlimit:4;stroke-dasharray:none;stroke-opacity:1"
       inkscape:export-filename="C:\Users\Marcus Olsson\Desktop\gophercises_logo.png"
       inkscape:export-xdpi="74.459999"
       inkscape:export-ydpi="74.459999" />
    <path
       sodipodi:nodetypes="cc"
       inkscape:connector-curvature="0"
       id="path7127-2-8-8-7-5-5-8-7-8-5"
       d="m 79.647944,153.46061 c 0.20425,-0.40858 0.229531,-0.94722 0.0867,-1.38672"
       style="display:inline;fill:none;stroke:#000000;stroke-width:0.5;stroke-linecap:round;stroke-linejoin:miter;stroke-miterlimit:4;stroke-dasharray:none;stroke-opacity:1"
       inkscape:export-filename="C:\Users\Marcus Olsson\Desktop\gophercises_logo.png"
       inkscape:export-xdpi="74.459999"
       inkscape:export-ydpi="74.459999" />
    <path
       sodipodi:nodetypes="cc"
       inkscape:connector-curvature="0"
       id="path7127-2-8-8-7-5-5-8-7-8-5-0"
       d="m 79.076563,152.94055 c 0.11907,-0.47465 0.13018,-0.58528 -0.0127,-1.02478"
       style="display:inline;fill:none;stroke:#000000;stroke-width:0.5;stroke-linecap:round;stroke-linejoin:miter;stroke-miterlimit:4;stroke-dasharray:none;stroke-opacity:1"
       inkscape:export-filename="C:\Users\Marcus Olsson\Desktop\gophercises_logo.png"
       inkscape:export-xdpi="74.459999"
       inkscape:export-ydpi="74.459999" />
    <path
       sodipodi:nodetypes="czzc"
       inkscape:connector-curvature="0"
       id="path7924"
       d="m 41.964154,128.49533 c 0,0 -0.69616,1.93954 -1.3758,2.15262 -0.67965,0.21311 -1.3181,-0.65402 -0.8936,-1.32401 0.42448,-0.67 2.2694,-0.82861 2.2694,-0.82861 z"
       style="display:inline;fill:#ffffff;fill-opacity:1;stroke:#000000;stroke-width:1;stroke-linecap:butt;stroke-linejoin:miter;stroke-miterlimit:4;stroke-dasharray:none;stroke-opacity:1"
       inkscape:export-filename="C:\Users\Marcus Olsson\Desktop\gophercises_logo.png"
       inkscape:export-xdpi="74.459999"
       inkscape:export-ydpi="74.459999" />
    <path
       sodipodi:nodetypes="czzc"
       inkscape:connector-curvature="0"
       id="path7924-1"
       d="m 35.435013,132.80599 c -0.0583,3.09183 1.620501,3.62612 0.829621,4.94586 -0.79089,1.31973 -2.310961,1.37653 -3.057111,0.1185 -0.74614,-1.25801 0.135291,-3.16229 2.22749,-5.06436 z"
       style="display:inline;fill:#ffffff;fill-opacity:1;stroke:#000000;stroke-width:1;stroke-linecap:butt;stroke-linejoin:miter;stroke-miterlimit:4;stroke-dasharray:none;stroke-opacity:1"
       inkscape:export-filename="C:\Users\Marcus Olsson\Desktop\gophercises_logo.png"
       inkscape:export-xdpi="74.459999"
       inkscape:export-ydpi="74.459999" />
    <path
       sodipodi:nodetypes="czzc"
       inkscape:connector-curvature="0"
       id="path7924-4"
       d="m 28.367033,130.27371 c 0,0 -0.69616,1.93954 -1.3758,2.15262 -0.67965,0.21311 -1.3181,-0.65402 -0.8936,-1.32401 0.42448,-0.67 2.2694,-0.82861 2.2694,-0.82861 z"
       style="display:inline;fill:#ffffff;fill-opacity:1;stroke:#000000;stroke-width:1;stroke-linecap:butt;stroke-linejoin:miter;stroke-miterlimit:4;stroke-dasharray:none;stroke-opacity:1"
       inkscape:export-filename="C:\Users\Marcus Olsson\Desktop\gophercises_logo.png"
       inkscape:export-xdpi="74.459999"
       inkscape:export-ydpi="74.459999" />
    <ellipse
       ry="1.2368342"
       rx="9.0112209"
       cy="182.40958"
       cx="106.5162"
       id="path6798-62"
       style="display:inline;opacity:0.3;fill:#170d12;fill-opacity:1;stroke:none;stroke-width:1.33561397;stroke-linecap:round;stroke-linejoin:round;stroke-miterlimit:4;stroke-dasharray:none;stroke-dashoffset:0;stroke-opacity:1;paint-order:stroke fill markers"
       inkscape:export-filename="C:\Users\Marcus Olsson\Desktop\gophercises_logo.png"
       inkscape:export-xdpi="74.459999"
       inkscape:export-ydpi="74.459999" />
    <path
       style="display:inline;opacity:0.15;fill:#000000;fill-opacity:1;stroke:none;stroke-width:1;stroke-linecap:butt;stroke-linejoin:miter;stroke-miterlimit:4;stroke-dasharray:none;stroke-opacity:1"
       d="m 46.999051,140.46171 c -1.816159,0.0103 -3.915762,0.73214 -4.679818,1.74614 -2.454212,-0.25046 -4.694812,2.59497 -3.300055,5.86011 2.09e-4,5.3e-4 2.64e-4,0.001 5.29e-4,0.002 0.05346,0.12506 0.112408,0.25059 0.176734,0.37672 0.0036,0.007 0.0072,0.0141 0.01085,0.0212 0.06181,0.12008 0.128501,0.24045 0.200507,0.36122 0.0071,0.0119 0.01349,0.0237 0.02066,0.0357 0.06238,0.10322 0.129913,0.20654 0.199988,0.31006 0.02148,0.0318 0.04082,0.0637 0.06305,0.0956 0.08886,0.127 0.18284,0.25425 0.283705,0.38137 -0.770671,0.40095 -1.232898,1.40129 -1.217496,2.41278 0.687646,1.37247 1.645663,2.33268 2.768822,3.0396 0.16066,-1.61725 0.404087,-3.15788 2.215885,-3.24631 -2.669733,-3.9627 -1.515785,-11.06051 4.448823,-11.28406 -0.369051,-0.0785 -0.773062,-0.11401 -1.192175,-0.11162 z"
       id="path7658-1-7"
       inkscape:connector-curvature="0"
       inkscape:export-filename="C:\Users\Marcus Olsson\Desktop\gophercises_logo.png"
       inkscape:export-xdpi="74.459999"
       inkscape:export-ydpi="74.459999" />
    <path
       style="display:inline;opacity:0.15;fill:#000000;fill-opacity:1;stroke:none;stroke-width:1.87502766;stroke-linecap:round;stroke-linejoin:round;stroke-miterlimit:4;stroke-dasharray:none;stroke-opacity:1;paint-order:stroke fill markers"
       d="m 67.368867,146.92436 c -0.268079,0.0269 -0.56438,0.0902 -0.894517,0.20102 -2.989321,1.00318 -3.611213,1.59396 -2.850473,2.91972 0.695463,1.21199 2.044597,0.004 3.594095,-0.21239 -3.211298,-0.35763 -1.831716,-2.24963 0.150895,-2.90835 z"
       id="path5404-3-2-5-3"
       inkscape:connector-curvature="0"
       sodipodi:nodetypes="ccccc"
       inkscape:export-filename="C:\Users\Marcus Olsson\Desktop\gophercises_logo.png"
       inkscape:export-xdpi="74.459999"
       inkscape:export-ydpi="74.459999" />
    <path
       style="display:inline;opacity:0.15;fill:#000000;fill-opacity:1;stroke:none;stroke-width:0.26458332px;stroke-linecap:butt;stroke-linejoin:miter;stroke-opacity:1"
       d="m 35.316834,120.58721 c -0.345041,-0.0102 -0.642361,0.0952 -0.85886,0.35605 -1.154671,1.39124 1.03101,5.78489 1.96422,5.903 l 5.02e-4,-5.3e-4 c 0.29279,0.037 0.79199,-0.0928 1.3193,-0.33176 -0.93578,-1.98446 -2.36022,-4.06665 -1.52962,-5.69784 -0.31655,-0.13365 -0.62185,-0.22081 -0.89555,-0.22892 z"
       id="path3342"
       inkscape:connector-curvature="0"
       sodipodi:nodetypes="ccccccc"
       inkscape:export-filename="C:\Users\Marcus Olsson\Desktop\gophercises_logo.png"
       inkscape:export-xdpi="74.459999"
       inkscape:export-ydpi="74.459999" />
    <path
       style="display:inline;fill:none;fill-opacity:1;stroke:#000000;stroke-width:0.5;stroke-linecap:round;stroke-linejoin:miter;stroke-miterlimit:4;stroke-dasharray:none;stroke-opacity:1"
       d="m 34.535203,166.22699 c 0.0227,0.18551 0.23535,0.6504 0.32699,1.07778"
       id="path7127-1-08-7-99-6-0"
       inkscape:connector-curvature="0"
       sodipodi:nodetypes="cc"
       inkscape:export-filename="C:\Users\Marcus Olsson\Desktop\gophercises_logo.png"
       inkscape:export-xdpi="74.459999"
       inkscape:export-ydpi="74.459999" />
    <path
       style="display:inline;fill:none;fill-opacity:1;stroke:#000000;stroke-width:0.5;stroke-linecap:round;stroke-linejoin:miter;stroke-miterlimit:4;stroke-dasharray:none;stroke-opacity:1"
       d="m 35.835664,168.38273 c 0.0228,0.18548 -0.0575,0.43178 0.16597,0.83948"
       id="path7127-2-6-4-5-1-05-4"
       inkscape:connector-curvature="0"
       sodipodi:nodetypes="cc"
       inkscape:export-filename="C:\Users\Marcus Olsson\Desktop\gophercises_logo.png"
       inkscape:export-xdpi="74.459999"
       inkscape:export-ydpi="74.459999" />
    <path
       style="display:inline;fill:none;fill-opacity:1;stroke:#000000;stroke-width:0.5;stroke-linecap:round;stroke-linejoin:miter;stroke-miterlimit:4;stroke-dasharray:none;stroke-opacity:1"
       d="m 34.755313,168.43037 c 0.0669,0.17449 0.19211,0.46515 0.36603,0.6997"
       id="path7127-2-6-4-5-1-0-0-1"
       inkscape:connector-curvature="0"
       sodipodi:nodetypes="cc"
       inkscape:export-filename="C:\Users\Marcus Olsson\Desktop\gophercises_logo.png"
       inkscape:export-xdpi="74.459999"
       inkscape:export-ydpi="74.459999" />
    <path
       inkscape:export-ydpi="74.459999"
       inkscape:export-xdpi="74.459999"
       inkscape:export-filename="C:\Users\Marcus Olsson\Desktop\gophercises_logo.png"
       sodipodi:nodetypes="szszs"
       inkscape:connector-curvature="0"
       id="path5333-9-1-4-3"
       d="m 128.17599,150.1394 c 0,14.31468 -0.33819,25.91902 -20.83075,25.91902 -20.492561,0 -20.830741,-11.60434 -20.830741,-25.91902 0,-14.31469 -2.36846,-29.36015 20.830741,-29.66079 23.1992,-0.30064 20.83075,15.3461 20.83075,29.66079 z"
       style="display:inline;opacity:1;fill:#565656;fill-opacity:1;stroke:#000000;stroke-width:2;stroke-linecap:round;stroke-linejoin:round;stroke-miterlimit:4;stroke-dasharray:none;stroke-opacity:1;paint-order:stroke fill markers" />
    <path
       style="display:inline;opacity:1;fill:#eef0f4;fill-opacity:1;stroke:#000000;stroke-width:2;stroke-linecap:round;stroke-linejoin:round;stroke-miterlimit:4;stroke-dasharray:none;stroke-opacity:1;paint-order:stroke fill markers"
       d="m 128.23717,141.72094 c -16.53887,1.43887 -30.884151,1.71239 -41.785041,0.15607 -0.0246,2.70738 0.0625,5.49822 0.0625,8.26254 0,3.50877 0.0225,6.85272 0.35502,9.90482 11.08842,1.73863 25.063371,1.00311 41.087411,-1.48879 0.20164,-2.63981 0.21913,-5.46881 0.21913,-8.41603 0,-2.79871 0.0887,-5.64719 0.061,-8.41861 z"
       id="path5333-9-1-4-6-3"
       inkscape:connector-curvature="0"
       sodipodi:nodetypes="ccsccsc"
       inkscape:export-filename="C:\Users\Marcus Olsson\Desktop\gophercises_logo.png"
       inkscape:export-xdpi="74.459999"
       inkscape:export-ydpi="74.459999" />
    <path
       sodipodi:nodetypes="cc"
       inkscape:connector-curvature="0"
       id="path7127-25-9-4"
       d="m 88.495419,147.75358 c 0.0283,-0.18477 0.0795,-1.03776 -0.0267,-1.62214"
       style="display:inline;fill:none;stroke:#000000;stroke-width:0.5;stroke-linecap:round;stroke-linejoin:miter;stroke-miterlimit:4;stroke-dasharray:none;stroke-opacity:1"
       inkscape:export-filename="C:\Users\Marcus Olsson\Desktop\gophercises_logo.png"
       inkscape:export-xdpi="74.459999"
       inkscape:export-ydpi="74.459999" />
    <path
       sodipodi:nodetypes="cc"
       inkscape:connector-curvature="0"
       id="path7127-2-3-3-1"
       d="m 87.754929,148.52918 c 0.0282,-0.18475 -0.051,-0.68979 -0.0241,-1.12605"
       style="display:inline;fill:none;stroke:#000000;stroke-width:0.5;stroke-linecap:round;stroke-linejoin:miter;stroke-miterlimit:4;stroke-dasharray:none;stroke-opacity:1"
       inkscape:export-filename="C:\Users\Marcus Olsson\Desktop\gophercises_logo.png"
       inkscape:export-xdpi="74.459999"
       inkscape:export-ydpi="74.459999" />
    <path
       sodipodi:nodetypes="cc"
       inkscape:connector-curvature="0"
       id="path7127-0-5-4-7"
       d="m 88.431519,152.2298 c 0.0282,-0.18475 -0.051,-0.6898 -0.0241,-1.12605"
       style="display:inline;fill:none;stroke:#000000;stroke-width:0.5;stroke-linecap:round;stroke-linejoin:miter;stroke-miterlimit:4;stroke-dasharray:none;stroke-opacity:1"
       inkscape:export-filename="C:\Users\Marcus Olsson\Desktop\gophercises_logo.png"
       inkscape:export-xdpi="74.459999"
       inkscape:export-ydpi="74.459999" />
    <path
       style="display:inline;fill:none;fill-opacity:1;stroke:#000000;stroke-width:0.5;stroke-linecap:round;stroke-linejoin:miter;stroke-miterlimit:4;stroke-dasharray:none;stroke-opacity:1"
       d="m 93.798499,156.43541 c 0.17765,-0.0581 0.47571,0.0351 0.75453,-0.30702"
       id="path7127-1-08-7-5-8-86"
       inkscape:connector-curvature="0"
       sodipodi:nodetypes="cc"
       inkscape:export-filename="C:\Users\Marcus Olsson\Desktop\gophercises_logo.png"
       inkscape:export-xdpi="74.459999"
       inkscape:export-ydpi="74.459999" />
    <path
       style="display:inline;fill:none;fill-opacity:1;stroke:#000000;stroke-width:0.5;stroke-linecap:round;stroke-linejoin:miter;stroke-miterlimit:4;stroke-dasharray:none;stroke-opacity:1"
       d="m 92.796079,156.73614 c 0.14552,0.11729 0.62181,0.30292 0.9852,0.54583"
       id="path7127-2-6-4-5-7-31-5"
       inkscape:connector-curvature="0"
       sodipodi:nodetypes="cc"
       inkscape:export-filename="C:\Users\Marcus Olsson\Desktop\gophercises_logo.png"
       inkscape:export-xdpi="74.459999"
       inkscape:export-ydpi="74.459999" />
    <path
       style="display:inline;fill:none;fill-opacity:1;stroke:#000000;stroke-width:0.5;stroke-linecap:round;stroke-linejoin:miter;stroke-miterlimit:4;stroke-dasharray:none;stroke-opacity:1"
       d="m 124.03191,144.64171 c -0.075,-0.10498 -0.38215,-0.25736 -0.61907,-0.22553"
       id="path7127-1-08-7-5-8-8-6"
       inkscape:connector-curvature="0"
       sodipodi:nodetypes="cc"
       inkscape:export-filename="C:\Users\Marcus Olsson\Desktop\gophercises_logo.png"
       inkscape:export-xdpi="74.459999"
       inkscape:export-ydpi="74.459999" />
    <path
       style="display:inline;fill:none;fill-opacity:1;stroke:#000000;stroke-width:0.5;stroke-linecap:round;stroke-linejoin:miter;stroke-miterlimit:4;stroke-dasharray:none;stroke-opacity:1"
       d="m 125.11158,144.86952 c -0.1,-0.15793 -0.23029,-0.65221 -0.43009,-1.04095"
       id="path7127-2-6-4-5-7-31-7-0"
       inkscape:connector-curvature="0"
       sodipodi:nodetypes="cc"
       inkscape:export-filename="C:\Users\Marcus Olsson\Desktop\gophercises_logo.png"
       inkscape:export-xdpi="74.459999"
       inkscape:export-ydpi="74.459999" />
    <path
       style="display:inline;fill:none;fill-opacity:1;stroke:#000000;stroke-width:0.5;stroke-linecap:round;stroke-linejoin:miter;stroke-miterlimit:4;stroke-dasharray:none;stroke-opacity:1"
       d="m 90.938839,128.83717 c -0.0901,0.0923 -0.18585,0.42158 -0.1127,0.64916"
       id="path7127-1-08-7-5-8-8-7-6"
       inkscape:connector-curvature="0"
       sodipodi:nodetypes="cc"
       inkscape:export-filename="C:\Users\Marcus Olsson\Desktop\gophercises_logo.png"
       inkscape:export-xdpi="74.459999"
       inkscape:export-ydpi="74.459999" />
    <path
       style="display:inline;fill:none;fill-opacity:1;stroke:#000000;stroke-width:0.5;stroke-linecap:round;stroke-linejoin:miter;stroke-miterlimit:4;stroke-dasharray:none;stroke-opacity:1"
       d="m 90.972469,127.73424 c -0.13778,0.1263 -0.60131,0.34181 -0.94867,0.6071"
       id="path7127-2-6-4-5-7-31-7-2-6"
       inkscape:connector-curvature="0"
       sodipodi:nodetypes="cc"
       inkscape:export-filename="C:\Users\Marcus Olsson\Desktop\gophercises_logo.png"
       inkscape:export-xdpi="74.459999"
       inkscape:export-ydpi="74.459999" />
    <path
       sodipodi:nodetypes="cc"
       inkscape:connector-curvature="0"
       id="path7127-0-5-4-4-1"
       d="m 105.48761,131.6756 c -0.18249,-0.0403 -0.69166,0.006 -1.12519,-0.0501"
       style="display:inline;fill:none;stroke:#000000;stroke-width:0.5;stroke-linecap:round;stroke-linejoin:miter;stroke-miterlimit:4;stroke-dasharray:none;stroke-opacity:1"
       inkscape:export-filename="C:\Users\Marcus Olsson\Desktop\gophercises_logo.png"
       inkscape:export-xdpi="74.459999"
       inkscape:export-ydpi="74.459999" />
    <path
       style="display:inline;fill:none;fill-opacity:1;stroke:#000000;stroke-width:0.5;stroke-linecap:round;stroke-linejoin:miter;stroke-miterlimit:4;stroke-dasharray:none;stroke-opacity:1"
       d="m 111.39419,159.37176 c 0.18597,0.0184 0.68608,-0.0877 1.12317,-0.0838"
       id="path7127-1-08-7-99-6-9"
       inkscape:connector-curvature="0"
       sodipodi:nodetypes="cc"
       inkscape:export-filename="C:\Users\Marcus Olsson\Desktop\gophercises_logo.png"
       inkscape:export-xdpi="74.459999"
       inkscape:export-ydpi="74.459999" />
    <path
       style="display:inline;fill:none;fill-opacity:1;stroke:#000000;stroke-width:0.5;stroke-linecap:round;stroke-linejoin:miter;stroke-miterlimit:4;stroke-dasharray:none;stroke-opacity:1"
       d="m 113.7818,158.57321 c 0.18598,0.0183 0.40881,0.1504 0.85547,0.0213"
       id="path7127-2-6-4-5-1-05-0"
       inkscape:connector-curvature="0"
       sodipodi:nodetypes="cc"
       inkscape:export-filename="C:\Users\Marcus Olsson\Desktop\gophercises_logo.png"
       inkscape:export-xdpi="74.459999"
       inkscape:export-ydpi="74.459999" />
    <path
       style="display:inline;fill:none;fill-opacity:1;stroke:#000000;stroke-width:0.5;stroke-linecap:round;stroke-linejoin:miter;stroke-miterlimit:4;stroke-dasharray:none;stroke-opacity:1"
       d="m 113.59248,159.6379 c 0.18489,-0.0272 0.49586,-0.0859 0.76272,-0.20447"
       id="path7127-2-6-4-5-1-0-0-2"
       inkscape:connector-curvature="0"
       sodipodi:nodetypes="cc"
       inkscape:export-filename="C:\Users\Marcus Olsson\Desktop\gophercises_logo.png"
       inkscape:export-xdpi="74.459999"
       inkscape:export-ydpi="74.459999" />
    <path
       style="display:inline;fill:none;fill-opacity:1;stroke:#000000;stroke-width:0.5;stroke-linecap:round;stroke-linejoin:miter;stroke-miterlimit:4;stroke-dasharray:none;stroke-opacity:1"
       d="m 126.16579,134.92279 c 0.0206,-0.18572 0.15548,-0.40691 0.0319,-0.85514"
       id="path7127-2-6-4-5-1-05-0-4"
       inkscape:connector-curvature="0"
       sodipodi:nodetypes="cc"
       inkscape:export-filename="C:\Users\Marcus Olsson\Desktop\gophercises_logo.png"
       inkscape:export-xdpi="74.459999"
       inkscape:export-ydpi="74.459999" />
    <path
       style="display:inline;fill:none;fill-opacity:1;stroke:#000000;stroke-width:0.5;stroke-linecap:round;stroke-linejoin:miter;stroke-miterlimit:4;stroke-dasharray:none;stroke-opacity:1"
       d="m 127.22806,135.12529 c -0.0249,-0.18521 -0.0797,-0.49688 -0.195,-0.7652"
       id="path7127-2-6-4-5-1-0-0-2-5"
       inkscape:connector-curvature="0"
       sodipodi:nodetypes="cc"
       inkscape:export-filename="C:\Users\Marcus Olsson\Desktop\gophercises_logo.png"
       inkscape:export-xdpi="74.459999"
       inkscape:export-ydpi="74.459999" />
    <path
       sodipodi:nodetypes="cc"
       inkscape:connector-curvature="0"
       id="path7127-25-5-9"
       d="m 106.93237,131.64943 c 0.18544,0.0235 1.03948,0.0525 1.6209,-0.0689"
       style="display:inline;fill:none;stroke:#000000;stroke-width:0.5;stroke-linecap:round;stroke-linejoin:miter;stroke-miterlimit:4;stroke-dasharray:none;stroke-opacity:1"
       inkscape:export-filename="C:\Users\Marcus Olsson\Desktop\gophercises_logo.png"
       inkscape:export-xdpi="74.459999"
       inkscape:export-ydpi="74.459999" />
  </g>
</svg>
