<?xml version="1.0" encoding="UTF-8" standalone="no"?>
<!-- Created with Inkscape (http://www.inkscape.org/) -->

<svg
   xmlns:dc="http://purl.org/dc/elements/1.1/"
   xmlns:cc="http://creativecommons.org/ns#"
   xmlns:rdf="http://www.w3.org/1999/02/22-rdf-syntax-ns#"
   xmlns:svg="http://www.w3.org/2000/svg"
   xmlns="http://www.w3.org/2000/svg"
   xmlns:sodipodi="http://sodipodi.sourceforge.net/DTD/sodipodi-0.dtd"
   xmlns:inkscape="http://www.inkscape.org/namespaces/inkscape"
   width="207.7509mm"
   height="53.603359mm"
   viewBox="0 0 207.7509 53.603359"
   version="1.1"
   id="svg6599"
   inkscape:version="0.92.1 r15371"
   sodipodi:docname="gopherdata-logo.svg"
   inkscape:export-filename="C:\Users\Marcus Olsson\Desktop\data-science\abacus\gopherdata.png"
   inkscape:export-xdpi="189.53999"
   inkscape:export-ydpi="189.53999">
  <defs
     id="defs6593" />
  <sodipodi:namedview
     id="base"
     pagecolor="#ffffff"
     bordercolor="#666666"
     borderopacity="1.0"
     inkscape:pageopacity="0.0"
     inkscape:pageshadow="2"
     inkscape:zoom="1"
     inkscape:cx="460.31796"
     inkscape:cy="92.412219"
     inkscape:document-units="mm"
     inkscape:current-layer="layer3"
     showgrid="false"
     fit-margin-top="0"
     fit-margin-left="0"
     fit-margin-right="0"
     fit-margin-bottom="0"
     inkscape:snap-global="false"
     inkscape:object-paths="true"
     inkscape:snap-intersection-paths="true"
     inkscape:snap-smooth-nodes="true"
     inkscape:snap-midpoints="true"
     inkscape:window-width="2558"
     inkscape:window-height="1381"
     inkscape:window-x="0"
     inkscape:window-y="58"
     inkscape:window-maximized="0"
     inkscape:showpageshadow="true"
     showborder="true" />
  <metadata
     id="metadata6596">
    <rdf:RDF>
      <cc:Work
         rdf:about="">
        <dc:format>image/svg+xml</dc:format>
        <dc:type
           rdf:resource="http://purl.org/dc/dcmitype/StillImage" />
        <dc:title></dc:title>
      </cc:Work>
    </rdf:RDF>
  </metadata>
  <g
     inkscape:groupmode="layer"
     id="layer4"
     inkscape:label="Layer 4"
     transform="translate(149.60725,-8.6178443)" />
  <g
     inkscape:label="Layer 1"
     inkscape:groupmode="layer"
     id="layer1"
     transform="translate(85.95606,-140.21547)"
     style="opacity:0.13200001" />
  <g
     inkscape:groupmode="layer"
     id="layer2"
     inkscape:label="Layer 3"
     transform="translate(149.60725,-8.6178443)">
    <path
       style="opacity:0.15;fill:#000000;fill-opacity:1;stroke:none;stroke-width:0.26458332px;stroke-linecap:butt;stroke-linejoin:miter;stroke-opacity:1"
       d="m 52.817505,55.224827 c 12.542405,2.471727 -7.252075,3.128765 -9.896018,5.218688 -2.643943,2.089923 -7.116457,0.623107 -9.219506,1.559531 C 31.598932,62.93947 24.998736,60.589275 21.617323,60.081503 18.23591,59.573731 8.1029294,60.133749 8.6060783,58.940157 9.1092272,57.746565 16.56938,57.669796 18.849183,57.583763 c 2.279803,-0.08603 1.692285,-1.453482 2.991471,-3.670925 l 6.129101,-2.08205 20.486211,-2.338607 z"
       id="path8260"
       inkscape:connector-curvature="0"
       sodipodi:nodetypes="czzzzzcccc" />
  </g>
  <g
     inkscape:groupmode="layer"
     id="layer5"
     inkscape:label="Layer 2"
     style="opacity:1"
     transform="translate(149.60725,-8.6178443)">
    <path
       style="fill:#bce3e3;fill-opacity:1;stroke:#000000;stroke-width:0.5;stroke-linecap:butt;stroke-linejoin:miter;stroke-miterlimit:4;stroke-dasharray:none;stroke-opacity:1"
       d="m 30.049108,15.430874 c -7.053511,-4.240479 0.394278,-8.973785 1.795385,-1.464658 z"
       id="path7333"
       inkscape:connector-curvature="0"
       sodipodi:nodetypes="ccc" />
    <path
       style="opacity:1;fill:#dbb69a;fill-opacity:1;stroke:#000000;stroke-width:0.5;stroke-linecap:butt;stroke-linejoin:miter;stroke-miterlimit:4;stroke-dasharray:none;stroke-opacity:1"
       d="m 27.171908,51.399255 c -7.333404,1.606011 -8.461469,4.552384 1.531304,3.357381 0.343556,-1.446624 0.02064,-2.637667 -1.531304,-3.357381 z"
       id="path7191-0-3"
       inkscape:connector-curvature="0"
       sodipodi:nodetypes="ccc" />
    <path
       style="opacity:1;fill:#dbb69a;fill-opacity:1;stroke:#000000;stroke-width:0.5;stroke-linecap:butt;stroke-linejoin:miter;stroke-miterlimit:4;stroke-dasharray:none;stroke-opacity:1"
       d="m 28.069166,35.940037 c -7.136391,-2.615885 -10.360359,1.222248 -0.6996,4.042403 1.256563,-0.644705 2.002035,-2.647192 0.6996,-4.042403 z"
       id="path7191-9"
       inkscape:connector-curvature="0"
       sodipodi:nodetypes="ccc" />
    <path
       style="opacity:0.15;fill:#000000;fill-opacity:1;stroke:none;stroke-width:1.88976383;stroke-linecap:butt;stroke-linejoin:miter;stroke-miterlimit:4;stroke-dasharray:none;stroke-opacity:1"
       d="m 108.50391,140.5918 c -3.21995,7.36993 -15.74697,2.33043 -26.001957,0.32031 2.959128,3.20776 9.595525,6.89105 20.941407,10.20312 3.43314,-1.76144 5.84043,-6.2042 5.06055,-10.52343 z"
       transform="scale(0.26458333)"
       id="path7191-9-0"
       inkscape:connector-curvature="0"
       sodipodi:nodetypes="cccc" />
    <path
       style="opacity:0.15;fill:#010303;fill-opacity:1;stroke:none;stroke-width:1.88976383;stroke-linecap:butt;stroke-linejoin:miter;stroke-miterlimit:4;stroke-dasharray:none;stroke-opacity:1"
       d="m 109.20117,37.878906 c 6.222,7.304636 4.60562,13.403367 5.1211,19.830078 l 6.03515,-4.923828 C 118.4241,42.423651 113.44758,38.248005 109.20117,37.878906 Z"
       id="path7333-6"
       inkscape:connector-curvature="0"
       sodipodi:nodetypes="cccc"
       transform="scale(0.26458333)" />
    <path
       style="opacity:1;fill:#bce3e3;fill-opacity:1;stroke:#000000;stroke-width:0.5;stroke-linecap:round;stroke-linejoin:round;stroke-miterlimit:4;stroke-dasharray:none;stroke-opacity:1;paint-order:normal"
       d="m 57.479538,34.23291 c 0,12.889162 -2.669475,23.337893 -18.849426,23.337893 -16.179951,0 -18.333105,-8.931907 -11.126623,-19.04652 -8.318981,-20.045524 -1.833768,-27.686395 12.827516,-27.629265 14.661284,0.05713 17.148533,10.44873 17.148533,23.337892 z"
       id="path7173"
       inkscape:connector-curvature="0"
       sodipodi:nodetypes="szczs" />
    <path
       style="opacity:0.15;fill:#000000;fill-opacity:1;stroke:none;stroke-width:0.26458332px;stroke-linecap:butt;stroke-linejoin:miter;stroke-opacity:1"
       d="m 28.789974,35.75182 c 0.867695,1.944795 1.602081,1.409677 2.274254,0.84246 0.700764,-0.591344 0.194679,-1.57811 0.528432,-1.959259 0.333753,-0.381149 2.158281,-3.396914 -0.471046,-3.678774 l -2.463932,0.529167 z"
       id="path8279"
       inkscape:connector-curvature="0"
       sodipodi:nodetypes="cszccc" />
    <path
       style="opacity:0.15;fill:#090909;fill-opacity:1;stroke:none;stroke-width:0.26458332px;stroke-linecap:butt;stroke-linejoin:miter;stroke-opacity:1"
       d="m 36.805436,18.758943 v 13.471093 c 12.515872,0.768786 8.668579,-15.231057 0,-13.471093 z"
       id="path8277"
       inkscape:connector-curvature="0"
       sodipodi:nodetypes="ccc" />
    <path
       style="opacity:1;fill:#ffffff;fill-opacity:1;stroke:#000000;stroke-width:0.5;stroke-linecap:round;stroke-linejoin:round;stroke-miterlimit:4;stroke-dasharray:none;stroke-opacity:1;paint-order:normal"
       d="m 26.056605,27.24953 c 0.308075,3.168643 1.52704,5.45513 -1.619376,5.761043 -3.146416,0.305912 -5.946833,-2.01479 -6.254906,-5.183432 -0.308073,-3.168642 1.992858,-5.985325 5.139274,-6.291237 3.146416,-0.305912 2.426935,2.544983 2.735008,5.713626 z"
       id="path7156-7"
       inkscape:connector-curvature="0"
       sodipodi:nodetypes="sssss" />
    <ellipse
       style="opacity:1;fill:#ffffff;fill-opacity:1;stroke:#000000;stroke-width:0.5;stroke-linecap:round;stroke-linejoin:round;stroke-miterlimit:4;stroke-dasharray:none;stroke-opacity:1;paint-order:normal"
       id="path7156"
       cx="36.805435"
       cy="25.49449"
       rx="6.6882997"
       ry="6.7355466" />
    <ellipse
       style="opacity:1;fill:#000000;fill-opacity:1;stroke:none;stroke-width:0.27723762;stroke-linecap:round;stroke-linejoin:round;stroke-miterlimit:4;stroke-dasharray:none;stroke-opacity:1;paint-order:normal"
       id="path7156-1"
       cx="36.425159"
       cy="29.728846"
       rx="1.9578948"
       ry="1.9717256" />
    <ellipse
       style="opacity:1;fill:#ffffff;fill-opacity:1;stroke:none;stroke-width:0.08383378;stroke-linecap:round;stroke-linejoin:round;stroke-miterlimit:4;stroke-dasharray:none;stroke-opacity:1;paint-order:normal"
       id="path7156-1-5"
       cx="35.502663"
       cy="29.074036"
       rx="0.59204704"
       ry="0.59622931" />
    <path
       style="fill:#ffffff;fill-opacity:1;stroke:#000000;stroke-width:0.5;stroke-linecap:butt;stroke-linejoin:miter;stroke-miterlimit:4;stroke-dasharray:none;stroke-opacity:1"
       d="m 28.012274,32.693598 c 0,0 -0.40141,3.510019 0.684156,3.905566 1.085566,0.395548 1.892535,-0.03648 2.297615,-1.148207 0.405079,-1.111724 -2.352858,-3.091295 -2.352858,-3.091295 z"
       id="path7331"
       inkscape:connector-curvature="0"
       sodipodi:nodetypes="czzcc" />
    <path
       style="opacity:0.15;fill:#000000;fill-opacity:1;stroke:none;stroke-width:1.88976383;stroke-linecap:butt;stroke-linejoin:miter;stroke-miterlimit:4;stroke-dasharray:none;stroke-opacity:1"
       d="m 108.25,122.30469 -2.37695,1.26172 c 0,0 -0.36428,3.22078 -0.24805,6.66406 4.77254,-0.0111 9.18605,0.52753 10.24609,6.20117 0.49676,-0.68134 0.92496,-1.49232 1.27149,-2.44336 1.53101,-4.20179 -8.89258,-11.68359 -8.89258,-11.68359 z"
       transform="scale(0.26458333)"
       id="path7331-4"
       inkscape:connector-curvature="0"
       sodipodi:nodetypes="cccccc" />
    <ellipse
       style="opacity:1;fill:#000000;fill-opacity:1;stroke:none;stroke-width:0.20508222;stroke-linecap:round;stroke-linejoin:round;stroke-miterlimit:4;stroke-dasharray:none;stroke-opacity:1;paint-order:normal"
       id="path7156-1-1"
       cx="24.466557"
       cy="30.162462"
       rx="1.4483223"
       ry="1.4585533" />
    <path
       style="opacity:1;fill:#dbb69a;fill-opacity:1;stroke:#000000;stroke-width:0.5;stroke-linecap:round;stroke-linejoin:round;stroke-miterlimit:4;stroke-dasharray:none;stroke-opacity:1;paint-order:normal"
       d="m 31.68315,33.135218 c -0.818594,1.976957 -1.621384,0.383164 -2.728404,0.529047 -1.107021,0.145883 -0.895539,1.082994 -2.267442,0.03057 -1.371903,-1.052425 -0.06152,-2.706889 1.961046,-2.973422 2.022563,-0.266533 3.853393,0.436852 3.0348,2.413809 z"
       id="path7313-1"
       inkscape:connector-curvature="0"
       sodipodi:nodetypes="czzszc" />
    <path
       style="opacity:0.15;fill:#000000;fill-opacity:1;stroke:none;stroke-width:4.15282965;stroke-linecap:round;stroke-linejoin:round;stroke-miterlimit:4;stroke-dasharray:none;stroke-opacity:1;paint-order:normal"
       d="m 152.43164,41.177734 c -0.59886,0.03343 -1.17173,0.02305 -1.76172,0.03125 58.68583,9.011513 41.87067,85.048676 41.87067,95.289246 0,10.24056 -3.94693,72.75589 -20.36286,78.02325 38.01317,-10.15958 44.16379,-44.43318 45.06836,-85.13671 1.12373,-50.56527 -13.71512,-91.059713 -64.81445,-88.207036 z"
       transform="scale(0.26458333)"
       id="path7173-0"
       inkscape:connector-curvature="0"
       sodipodi:nodetypes="sczcss" />
    <path
       style="opacity:1;fill:#bce3e3;fill-opacity:1;stroke:#000000;stroke-width:0.5;stroke-linecap:butt;stroke-linejoin:miter;stroke-miterlimit:4;stroke-dasharray:none;stroke-opacity:1"
       d="m 47.444112,15.777478 c 7.413521,-6.1931578 -1.985276,-10.9029159 -2.2525,-1.940968 0.334798,1.132364 1.163441,1.688575 2.2525,1.940968 z"
       id="path7333-5"
       inkscape:connector-curvature="0"
       sodipodi:nodetypes="ccc" />
    <path
       style="opacity:0.15;fill:#000000;fill-opacity:1;stroke:none;stroke-width:3.77952766;stroke-linecap:round;stroke-linejoin:round;stroke-miterlimit:4;stroke-dasharray:none;stroke-opacity:1;paint-order:normal"
       d="m 139.10742,70.900391 c -0.77235,0.0067 -1.544,0.04908 -2.3125,0.126953 21.59807,3.812597 24.51182,37.505966 11.05274,49.197266 9.93056,-3.68476 16.53068,-13.20925 16.53906,-23.867188 -8e-5,-14.059824 -11.3181,-25.457412 -25.2793,-25.457031 z"
       transform="scale(0.26458333)"
       id="path7156-2"
       inkscape:connector-curvature="0"
       sodipodi:nodetypes="ccccc" />
    <path
       style="opacity:0.15;fill:#000000;fill-opacity:1;stroke:none;stroke-width:1.15172029;stroke-linecap:round;stroke-linejoin:round;stroke-miterlimit:4;stroke-dasharray:none;stroke-opacity:1;paint-order:normal"
       d="m 29.393088,30.667632 c -0.133488,0.0013 -0.269785,0.0088 -0.40721,0.01963 0.738651,0.529087 2.175875,1.908834 0,2.976044 1.090822,-0.112263 1.886683,1.430062 2.697509,-0.528132 0.71627,-1.729838 -0.596101,-2.484446 -2.290299,-2.467549 z"
       id="path7313-1-0"
       inkscape:connector-curvature="0"
       sodipodi:nodetypes="cccsc" />
    <path
       style="opacity:1;fill:#000000;fill-opacity:1;stroke:none;stroke-width:1.64054155;stroke-linecap:round;stroke-linejoin:round;stroke-miterlimit:4;stroke-dasharray:none;stroke-opacity:1;paint-order:normal"
       d="m 30.017536,30.274765 c 0.103731,0.787158 -1.471574,1.711765 -2.183412,1.805571 -0.711837,0.09381 -1.727721,-0.489334 -1.831453,-1.276493 -0.103731,-0.787158 0.03865,-1.275398 1.803073,-1.507914 1.764424,-0.232516 2.10806,0.191675 2.211792,0.978836 z"
       id="path7313"
       inkscape:connector-curvature="0"
       sodipodi:nodetypes="szszs" />
    <path
       style="opacity:0.15;fill:#000000;fill-opacity:1;stroke:none;stroke-width:1.88976383;stroke-linecap:butt;stroke-linejoin:miter;stroke-miterlimit:4;stroke-dasharray:none;stroke-opacity:1"
       d="m 182.54688,33.509766 c -0.18497,-0.0073 -0.37368,0.017 -0.56055,0.02344 4.71495,5.870951 0.93273,15.089275 -5.27149,25.261719 0.81409,0.341006 1.67854,0.622024 2.60157,0.835937 16.63664,-13.898031 10.87132,-25.818665 3.23047,-26.121093 z"
       id="path7333-5-6"
       inkscape:connector-curvature="0"
       sodipodi:nodetypes="ccccc"
       transform="scale(0.26458333)" />
    <path
       style="fill:none;stroke:#000000;stroke-width:0.5;stroke-linecap:butt;stroke-linejoin:miter;stroke-miterlimit:4;stroke-dasharray:none;stroke-opacity:1"
       d="m 46.606997,12.355001 c 0.228263,1.157551 0.03956,1.820117 -0.474839,2.662952 0.57978,-0.809157 1.240869,-1.202376 2.272405,-1.833948"
       id="path7033"
       inkscape:connector-curvature="0"
       sodipodi:nodetypes="ccc" />
    <path
       style="display:inline;opacity:1;fill:#dbb69a;fill-opacity:1;stroke:#000000;stroke-width:0.5;stroke-linecap:butt;stroke-linejoin:miter;stroke-miterlimit:4;stroke-dasharray:none;stroke-opacity:1"
       d="m 41.193296,55.127336 c -0.599238,0.34597 -3.129827,5.19174 -1.703218,5.922181 1.42661,0.730442 5.137618,-4.188162 5.191731,-4.719194 0.114426,-1.122897 -2.351629,-1.859367 -3.488513,-1.202987 z"
       id="path7191-0"
       inkscape:connector-curvature="0"
       sodipodi:nodetypes="szss" />
    <path
       style="opacity:0.15;fill:#0f0f0f;fill-opacity:1;stroke:none;stroke-width:0.26458332px;stroke-linecap:butt;stroke-linejoin:miter;stroke-opacity:1"
       d="m 48.16438,55.640784 -1.328073,0.579429 C 39.645604,50.338152 31.602268,50.892462 29.472729,50.562226 27.34319,50.23199 24.668469,49.513849 24.023182,50.642633 l -0.280633,-2.712786 8.18513,-1.169305 17.820196,5.986838 z"
       id="path8207"
       inkscape:connector-curvature="0"
       sodipodi:nodetypes="cczccccc" />
    <path
       style="opacity:1;fill:#ffffff;fill-opacity:1;stroke:#000000;stroke-width:1.88976383;stroke-linecap:butt;stroke-linejoin:miter;stroke-miterlimit:4;stroke-dasharray:none;stroke-opacity:1"
       d="M 217.05859,118.23828 C 185.5319,136.94975 150.60927,150.12061 112.75,158.5 c -6.12387,-3.53913 -6.86252,-7.9643 -8.67578,-12.53125 -19.751525,20.33729 -16.172399,37.00844 -18.099611,48.19531 7.637212,0.48712 -3.050323,-9.88185 13.638672,-10.45312 2.342709,-0.0802 4.861679,1.7019 7.498049,1.8262 1.40404,-1.76861 1.25939,-6.07617 3.34559,-7.74905 1.27628,2.79305 2.80391,6.74962 4.58019,8.376 12.18946,1.31433 25.91597,3.94556 37.73969,7.56772 14.60388,4.47385 26.30495,10.45941 28.62164,17.34244 22.20735,9.84839 18.38592,3.06437 18.07422,-1.49024 -0.3117,-4.5546 26.29986,-30.35631 17.58593,-91.3457 z"
       transform="scale(0.26458333)"
       id="path7036"
       inkscape:connector-curvature="0"
       sodipodi:nodetypes="ccccccccscscc" />
    <path
       style="fill:#ffffff;fill-opacity:1;stroke:#000000;stroke-width:0.5;stroke-linecap:butt;stroke-linejoin:miter;stroke-miterlimit:4;stroke-dasharray:none;stroke-opacity:1"
       d="m 41.095129,49.443605 c -0.832576,0.264048 -5.256372,-0.726351 -5.886979,-1.455209 -0.630607,-0.728858 0.859896,-4.696354 0.859896,-4.696354 2.441464,-0.0096 3.562199,0.595075 6.283854,1.785938 0,0 -0.424195,4.101577 -1.256771,4.365625 z"
       id="path7226"
       inkscape:connector-curvature="0"
       sodipodi:nodetypes="zzccz" />
    <path
       style="opacity:0.15;fill:#000000;fill-opacity:1;stroke:none;stroke-width:0.26458332px;stroke-linecap:butt;stroke-linejoin:miter;stroke-opacity:1"
       d="m 48.182619,44.011248 c -1.079981,1.540017 -2.294827,2.26947 -3.828897,2.721895 -1.953126,0.576013 -4.152679,0.383434 -4.304743,-2.629835 z"
       id="path7161"
       inkscape:connector-curvature="0"
       sodipodi:nodetypes="cscc" />
    <path
       style="opacity:1;fill:#dbb69a;fill-opacity:1;stroke:#000000;stroke-width:0.5;stroke-linecap:butt;stroke-linejoin:miter;stroke-miterlimit:4;stroke-dasharray:none;stroke-opacity:1"
       d="m 44.851493,41.532743 c -7.375764,1.835493 -7.26351,7.587936 1.438635,3.080288 -0.467982,-1.423637 -0.894504,-2.123625 -1.438635,-3.080288 z"
       id="path7191"
       inkscape:connector-curvature="0"
       sodipodi:nodetypes="ccc" />
    <path
       style="opacity:0.15;fill:#000000;fill-opacity:1;stroke:none;stroke-width:0.5;stroke-linecap:butt;stroke-linejoin:miter;stroke-miterlimit:4;stroke-dasharray:none;stroke-opacity:1"
       d="M 29.83177,41.936455 43.058421,41.373616 C 42.472704,40.365938 42.767275,39.407164 42.679508,38.42715 l 3.801273,1.844886 c 0.2607,-1.514225 1.591522,-3.073039 2.528571,-4.615445 -5.960269,2.826615 -12.506175,4.659694 -19.17758,6.279864 z"
       id="path7039-2"
       inkscape:connector-curvature="0"
       sodipodi:nodetypes="ccccccc" />
    <path
       style="fill:#ffffff;fill-opacity:1;stroke:#000000;stroke-width:0.5;stroke-linecap:butt;stroke-linejoin:miter;stroke-miterlimit:4;stroke-dasharray:none;stroke-opacity:1"
       d="m 29.83177,41.936455 c 3.970022,-0.297568 8.25591,0.152665 11.840104,-1.058333 -0.21228,-1.008846 0.350973,-1.746255 1.007632,-2.450972 l 2.431952,1.326493 c 0.832212,-1.790307 2.404768,-2.907574 3.897892,-4.097052 -5.960268,2.826615 -12.506175,4.659694 -19.17758,6.279864 z"
       id="path7039"
       inkscape:connector-curvature="0"
       sodipodi:nodetypes="cccccc" />
    <path
       style="opacity:0.15;fill:#000000;fill-opacity:1;stroke:none;stroke-width:0.99999994px;stroke-linecap:butt;stroke-linejoin:miter;stroke-opacity:1"
       d="m 217.05859,118.23828 c -8.02853,4.76503 -16.27879,9.16786 -24.74023,13.22656 l -0.002,0.006 c 9.89256,-0.8236 13.0327,24.0379 3.78405,43.20061 -9.24866,19.1627 -5.98433,28.05308 -14.38952,36.53767 21.8338,9.63166 18.07184,2.90657 17.76172,-1.625 -0.3117,-4.5546 26.29987,-30.3563 17.58593,-91.3457 z"
       transform="scale(0.26458333)"
       id="path7041"
       inkscape:connector-curvature="0"
       sodipodi:nodetypes="ccczcscc" />
    <path
       style="opacity:0.15;fill:#000000;fill-opacity:1;stroke:none;stroke-width:1.88976383;stroke-linecap:butt;stroke-linejoin:miter;stroke-miterlimit:4;stroke-dasharray:none;stroke-opacity:1"
       d="m 199.62522,208.72376 c -2.492,1.30905 0.0692,-5.33966 -2.87364,-4.75874 -2.94281,0.58092 -5.97526,6.488 -15.10119,7.08771 0.0191,0.0534 0.0426,0.10673 0.0606,0.16016 22.19833,9.8444 18.38863,3.07019 18.07422,-1.48437 z"
       transform="scale(0.26458333)"
       id="path7036-5"
       inkscape:connector-curvature="0"
       sodipodi:nodetypes="czcccc" />
    <path
       style="opacity:0.15;fill:#000000;fill-opacity:1;stroke:none;stroke-width:0.5;stroke-linecap:butt;stroke-linejoin:miter;stroke-miterlimit:4;stroke-dasharray:none;stroke-opacity:1"
       d="m 45.666947,43.040797 c -0.417512,1.342815 -2.287358,2.330569 -5.831217,2.90907 0.746718,0.633992 2.869874,0.519757 6.454196,-1.336896 -0.211214,-0.642522 -0.414035,-1.134333 -0.622979,-1.572174 z"
       id="path7191-7"
       inkscape:connector-curvature="0"
       sodipodi:nodetypes="cccc" />
    <path
       style="opacity:1;fill:#ffffff;fill-opacity:1;stroke:#000000;stroke-width:0.5;stroke-linecap:butt;stroke-linejoin:round;stroke-miterlimit:4;stroke-dasharray:none;stroke-opacity:1"
       d="m 43.46544,41.164573 c -0.425594,0.74115 1.287076,4.148724 2.028537,4.363121 0.741463,0.214395 3.496531,-1.749739 3.217153,-3.224855 -0.279377,-1.475115 -4.820095,-1.879416 -5.24569,-1.138266 z"
       id="path7191-90"
       inkscape:connector-curvature="0"
       sodipodi:nodetypes="zzzz" />
    <path
       style="opacity:0.15;fill:#000000;fill-opacity:1;stroke:none;stroke-width:0.60899997;stroke-linecap:butt;stroke-linejoin:round;stroke-miterlimit:4;stroke-dasharray:none;stroke-opacity:1"
       d="m 48.02712,41.502906 c 0,0 -0.423804,0.517115 -1.313869,1.738131 -0.890066,1.221015 -2.189736,1.191586 -2.189736,1.191586 0.0488,0.03266 0.927559,1.082666 0.970463,1.095073 0.74146,0.214394 3.496521,-1.749615 3.217144,-3.22473 -0.0916,-0.483625 0.02849,-0.549269 -0.684002,-0.80006 z"
       id="path7191-90-8"
       inkscape:connector-curvature="0"
       sodipodi:nodetypes="czccsc" />
    <path
       style="fill:#ffffff;fill-opacity:1;stroke:#000000;stroke-width:0.5;stroke-linecap:butt;stroke-linejoin:miter;stroke-miterlimit:4;stroke-dasharray:none;stroke-opacity:1"
       d="m 29.83177,41.936455 c -1.026037,-0.925126 -2.113537,-1.807825 -2.29521,-3.31579 l -0.529478,1.759338 z"
       id="path7163"
       inkscape:connector-curvature="0"
       sodipodi:nodetypes="cccc" />
    <path
       style="fill:none;stroke:#000000;stroke-width:0.5;stroke-linecap:butt;stroke-linejoin:miter;stroke-miterlimit:4;stroke-dasharray:none;stroke-opacity:1"
       d="m 29.83177,41.936455 c -0.542128,1.531158 -0.769946,3.21947 -0.60671,5.10331"
       id="path7192"
       inkscape:connector-curvature="0"
       sodipodi:nodetypes="cc" />
    <path
       style="fill:none;stroke:#000000;stroke-width:0.26458332px;stroke-linecap:butt;stroke-linejoin:miter;stroke-opacity:1"
       d="m 41.159506,48.159177 c -0.104527,0.503512 -0.382696,0.833381 -1.169305,0.65481"
       id="path7245"
       inkscape:connector-curvature="0"
       sodipodi:nodetypes="cc" />
    <path
       style="fill:none;stroke:#000000;stroke-width:0.26458332px;stroke-linecap:round;stroke-linejoin:miter;stroke-opacity:1"
       d="m 46.599739,50.006247 c 0.362234,0.187367 0.72634,0.361624 1.058333,0.760677"
       id="path7247"
       inkscape:connector-curvature="0"
       sodipodi:nodetypes="cc" />
    <path
       style="opacity:1;fill:none;stroke:#000000;stroke-width:0.26458332px;stroke-linecap:round;stroke-linejoin:miter;stroke-opacity:1"
       d="m 46.467448,49.129814 c 0.28823,0.301969 0.645409,0.552228 1.058333,0.760677"
       id="path7247-9"
       inkscape:connector-curvature="0"
       sodipodi:nodetypes="cc" />
    <path
       style="opacity:1;fill:none;stroke:#000000;stroke-width:0.26458332px;stroke-linecap:round;stroke-linejoin:miter;stroke-opacity:1"
       d="m 30.51341,47.724229 c 0.08278,0.409157 0.0997,0.539484 0.337831,0.93603"
       id="path7247-9-8"
       inkscape:connector-curvature="0"
       sodipodi:nodetypes="cc" />
    <path
       style="opacity:1;fill:none;stroke:#000000;stroke-width:0.26458332px;stroke-linecap:round;stroke-linejoin:miter;stroke-opacity:1"
       d="m 31.085439,48.082463 c 0.04028,0.275659 0.0659,0.456686 0.212295,0.664454"
       id="path7247-9-8-9"
       inkscape:connector-curvature="0"
       sodipodi:nodetypes="cc" />
    <path
       style="opacity:1;fill:none;stroke:#000000;stroke-width:0.26458332px;stroke-linecap:round;stroke-linejoin:miter;stroke-opacity:1"
       d="m 25.567115,42.532935 c -0.170026,0.1718 -0.277993,0.32081 -0.383823,0.633313"
       id="path7247-9-8-8"
       inkscape:connector-curvature="0"
       sodipodi:nodetypes="cc" />
    <path
       style="opacity:1;fill:none;stroke:#000000;stroke-width:0.26458332px;stroke-linecap:round;stroke-linejoin:miter;stroke-opacity:1"
       d="m 25.783991,42.999342 c -0.193852,0.20008 -0.379541,0.446569 -0.454864,0.771996"
       id="path7247-9-8-9-2"
       inkscape:connector-curvature="0"
       sodipodi:nodetypes="cc" />
    <path
       style="fill:none;stroke:#000000;stroke-width:0.26458332px;stroke-linecap:butt;stroke-linejoin:miter;stroke-opacity:1"
       d="m 28.985876,33.663305 c -0.03167,0.904566 0.100011,1.806545 0.547659,3.077106"
       id="path8086"
       inkscape:connector-curvature="0"
       sodipodi:nodetypes="cc" />
    <ellipse
       style="opacity:1;fill:#ffffff;fill-opacity:1;stroke:none;stroke-width:0.08383378;stroke-linecap:round;stroke-linejoin:round;stroke-miterlimit:4;stroke-dasharray:none;stroke-opacity:1;paint-order:normal"
       id="path7156-1-5-3"
       cx="23.970736"
       cy="29.684172"
       rx="0.59204704"
       ry="0.59622931" />
    <path
       style="opacity:1;fill:none;stroke:#000000;stroke-width:0.26458332px;stroke-linecap:round;stroke-linejoin:miter;stroke-opacity:1"
       d="m 53.937721,20.475345 c 0.146095,0.192561 0.233647,0.354412 0.297697,0.678072"
       id="path7247-9-8-8-9"
       inkscape:connector-curvature="0"
       sodipodi:nodetypes="cc" />
    <path
       style="opacity:1;fill:none;stroke:#000000;stroke-width:0.26458332px;stroke-linecap:round;stroke-linejoin:miter;stroke-opacity:1"
       d="m 53.661707,20.909381 c 0.166019,0.223715 0.317876,0.492373 0.349991,0.824855"
       id="path7247-9-8-9-2-1"
       inkscape:connector-curvature="0"
       sodipodi:nodetypes="cc" />
    <path
       style="opacity:1;fill:none;stroke:#000000;stroke-width:0.26458332px;stroke-linecap:round;stroke-linejoin:miter;stroke-opacity:1"
       d="m 54.556488,22.24647 c 0.103809,0.218283 0.156557,0.394573 0.15337,0.724488"
       id="path7247-9-8-8-9-5"
       inkscape:connector-curvature="0"
       sodipodi:nodetypes="cc" />
    <path
       style="opacity:0.15;fill:#000000;fill-opacity:1;stroke:none;stroke-width:1.88976383;stroke-linecap:round;stroke-linejoin:round;stroke-miterlimit:4;stroke-dasharray:none;stroke-opacity:1;paint-order:normal"
       d="m 91.427734,81.421875 c 5.26361,3.878536 6.652109,41.495755 2.06836,43.201175 10.449326,-1.59695 6.11177,-10.05731 4.986328,-21.63282 C 97.44064,92.275137 99.498368,82.528802 91.427734,81.421875 Z"
       transform="scale(0.26458333)"
       id="path7156-7-7"
       inkscape:connector-curvature="0"
       sodipodi:nodetypes="ccsc" />
    <path
       style="display:inline;opacity:0.15;fill:#000000;fill-opacity:1;stroke:none;stroke-width:1.88976383;stroke-linecap:butt;stroke-linejoin:miter;stroke-miterlimit:4;stroke-dasharray:none;stroke-opacity:1"
       d="m 159.85547,207.40039 c -0.0242,0.001 -0.0499,0.005 -0.0742,0.006 5.36843,6.33393 0.17148,14.0106 -5.48828,21.74609 3.53526,-2.74971 8.40431,-7.96679 14.58398,-16.25 -2.30144,-3.53089 -5.1869,-5.66095 -9.02148,-5.50195 z"
       transform="scale(0.26458333)"
       id="path7191-0-8"
       inkscape:connector-curvature="0"
       sodipodi:nodetypes="cccccc" />
  </g>
  <g
     inkscape:groupmode="layer"
     id="layer3"
     inkscape:label="text"
     transform="translate(149.60725,-8.6178443)">
    <path
       style="font-style:normal;font-variant:normal;font-weight:normal;font-stretch:normal;font-size:medium;line-height:1.25;font-family:Ubuntu;-inkscape-font-specification:Ubuntu;letter-spacing:0px;word-spacing:0px;fill:#000000;fill-opacity:1;stroke:none;stroke-width:2.78722835"
       d="m 219.25,91.267578 -10.36719,1.783203 V 177.7832 H 219.25 v -48.16406 c 0.37163,-0.14864 0.96757,-0.33365 1.78516,-0.55664 0.89191,-0.22297 1.85787,-0.40993 2.89843,-0.55859 1.11489,-0.22297 2.26586,-0.40798 3.45508,-0.55664 1.18922,-0.14867 2.34214,-0.22266 3.45703,-0.22266 2.75007,0 5.05396,0.37197 6.91211,1.11523 1.85815,0.66894 3.34409,1.7829 4.45899,3.34375 1.11489,1.56085 1.89584,3.60573 2.34179,6.13282 0.52029,2.52708 0.7793,5.57297 0.7793,9.14062 v 30.32617 h 10.36914 v -32.55468 c 0,-3.93929 -0.37197,-7.54411 -1.11523,-10.81446 -0.74326,-3.27034 -2.04419,-6.05722 -3.90235,-8.36133 -1.78382,-2.37843 -4.19872,-4.19934 -7.24609,-5.46289 -3.04737,-1.33787 -6.8742,-2.00781 -11.48242,-2.00781 -2.15546,0 -4.34834,0.22397 -6.57813,0.66992 -2.15545,0.37163 -4.20033,0.92862 -6.13281,1.67188 z m -182.125,7.46875 c -5.128517,0 -9.958317,0.891955 -14.492188,2.675782 -4.459565,1.78383 -8.36235,4.38569 -11.707031,7.80469 -3.3446801,3.419 -6.0205404,7.65676 -8.0273435,12.71093 C 0.96596506,126.90758 0,132.62933 0,139.0957 c 0,6.46637 0.85494761,12.19007 2.5644531,17.16992 1.783811,4.97985 4.2727311,9.17866 7.4687499,12.59766 3.196019,3.419 7.02481,6.02086 11.484375,7.80469 4.459565,1.78382 9.402311,2.67578 14.828125,2.67578 2.675754,0 5.314617,-0.14801 7.916016,-0.44531 2.601423,-0.22298 4.979326,-0.52095 7.134765,-0.89258 2.229796,-0.37163 4.161701,-0.7436 5.796875,-1.11524 1.709506,-0.37163 3.010451,-0.7066 3.902344,-1.0039 v -36.1211 H 50.28125 v 28.76368 c -0.966224,0.2973 -2.563173,0.63227 -4.792969,1.0039 -2.155464,0.29731 -4.794327,0.44532 -7.916015,0.44532 -4.385235,0 -8.214026,-0.74395 -11.484375,-2.23047 -3.196019,-1.48652 -5.908877,-3.56645 -8.138672,-6.24219 -2.15544,-2.75007 -3.789387,-6.01992 -4.904297,-9.81055 -1.040554,-3.79063 -1.5625,-7.99139 -1.5625,-12.59961 0,-4.75686 0.632938,-9.02968 1.896484,-12.82031 1.263547,-3.86496 3.010465,-7.13676 5.240235,-9.8125 2.304126,-2.67574 5.053981,-4.71866 8.25,-6.13086 3.270349,-1.41219 6.875177,-2.11914 10.814453,-2.11914 3.716308,0 7.358134,0.48298 10.925781,1.44922 3.567647,0.89191 6.42852,2.04484 8.583984,3.45703 l 3.457032,-9.03125 c -0.445959,-0.2973 -1.300907,-0.74328 -2.564453,-1.33789 -1.189216,-0.59461 -2.751122,-1.1886 -4.683594,-1.7832 -1.932473,-0.59461 -4.273378,-1.114593 -7.023438,-1.56055 C 43.703152,98.960293 40.618317,98.736328 37.125,98.736328 Z m 364.48047,0.892578 c -3.1217,0 -6.87648,0.14801 -11.26172,0.445314 -4.31091,0.22298 -8.47272,0.70596 -12.48633,1.44922 v 75.25586 c 4.01361,0.81757 8.10141,1.33755 12.26367,1.56054 4.16227,0.29731 7.80409,0.44727 10.92579,0.44727 6.83799,0 13.00768,-0.81795 18.50781,-2.45313 5.50013,-1.63517 10.14491,-4.08902 13.93554,-7.35937 3.86496,-3.27035 6.8388,-7.39515 8.91993,-12.375 2.08113,-4.97985 3.12109,-10.81456 3.12109,-17.50391 0,-6.98665 -1.03996,-12.96937 -3.12109,-17.94922 -2.08113,-4.97984 -5.05497,-9.06765 -8.91993,-12.26367 -3.86495,-3.19602 -8.50974,-5.53691 -13.93554,-7.02343 -5.35148,-1.48653 -11.3342,-2.230474 -17.94922,-2.230474 z m 134.9082,2.230474 -16.61133,2.67578 v 49.27734 c 0,3.79063 0.33302,7.24744 1.00196,10.36914 0.74326,3.1217 2.00719,5.79756 3.79101,8.02734 1.78383,2.15546 4.16368,3.86342 7.13672,5.12696 2.97305,1.18922 6.72588,1.78515 11.25977,1.78515 3.56765,0 6.57849,-0.29797 9.03125,-0.89257 2.45276,-0.59461 4.68069,-1.29961 6.6875,-2.11719 l -2.33985,-12.9336 c -1.56085,0.59461 -3.30775,1.07759 -5.24023,1.44922 -1.85815,0.29731 -3.67907,0.44532 -5.46289,0.44532 -3.71631,0 -6.20716,-1.03997 -7.4707,-3.1211 -1.18922,-2.08113 -1.78321,-4.868 -1.78321,-8.36133 v -20.625 h 19.95703 v -13.82617 h -19.95703 z m -134.01758,12.59765 c 8.69616,0 15.05085,2.08188 19.06446,6.24414 4.01361,4.16226 6.02148,10.29299 6.02148,18.39453 0,7.72992 -2.11888,13.78859 -6.35547,18.17383 -4.16226,4.38524 -10.59095,6.57813 -19.28711,6.57813 h -3.90234 c -1.04057,-0.0743 -1.96952,-0.15028 -2.78711,-0.22461 v -48.83203 c 1.11489,-0.14867 2.30482,-0.22266 3.56836,-0.22266 1.26354,-0.0743 2.48852,-0.11133 3.67773,-0.11133 z m 77.41016,3.12109 c -1.93248,1e-5 -3.86439,0.11298 -5.79687,0.33594 -1.85816,0.14866 -3.64207,0.37067 -5.35157,0.66797 -1.7095,0.22298 -3.3084,0.52095 -4.79492,0.89258 -1.41219,0.2973 -2.60016,0.59332 -3.56641,0.89062 l 2.11719,13.37891 c 2.00681,-0.74326 4.38666,-1.30024 7.13672,-1.67187 2.75007,-0.44596 5.53694,-0.66797 8.36133,-0.66797 4.23659,0 7.20847,0.853 8.91797,2.5625 1.7095,1.7095 2.56445,3.97639 2.56445,6.80078 v 1.5625 c -1.04057,-0.2973 -2.4155,-0.52126 -4.125,-0.66992 -1.63517,-0.22297 -3.53009,-0.33399 -5.68555,-0.33399 -3.19602,0 -6.28086,0.33497 -9.2539,1.00391 -2.97305,0.59461 -5.61191,1.59757 -7.91602,3.00976 -2.30411,1.4122 -4.16202,3.30711 -5.57422,5.68555 -1.33787,2.37843 -2.00586,5.27631 -2.00586,8.69531 0,3.56766 0.59399,6.57849 1.78321,9.03125 1.18922,2.45277 2.89912,4.46064 5.1289,6.02149 2.22979,1.48652 4.86865,2.56349 7.91602,3.23242 3.12169,0.66894 6.57656,1.00391 10.36719,1.00391 6.02041,0 11.15013,-0.37198 15.38671,-1.11524 4.23659,-0.66893 7.54344,-1.26292 9.92188,-1.7832 v -34.5625 c 0,-3.64198 -0.40898,-6.94883 -1.22656,-9.92188 -0.81759,-2.97304 -2.22952,-5.5009 -4.23633,-7.58203 -1.93248,-2.08113 -4.53434,-3.67807 -7.80469,-4.79297 -3.27035,-1.11489 -7.35815,-1.67383 -12.26367,-1.67383 z m 108.87695,0 c -1.93248,0 -3.86439,0.11298 -5.79687,0.33594 -1.85815,0.14866 -3.64206,0.37067 -5.35156,0.66797 -1.7095,0.22298 -3.3084,0.52095 -4.79493,0.89258 -1.41219,0.2973 -2.60212,0.59332 -3.56836,0.89062 l 2.11914,13.37891 c 2.00681,-0.74326 4.3847,-1.30023 7.13477,-1.67187 2.75007,-0.44596 5.53694,-0.66797 8.36133,-0.66797 4.23659,0 7.21042,0.853 8.91992,2.5625 1.7095,1.7095 2.56445,3.97639 2.56445,6.80078 v 1.5625 c -1.04056,-0.2973 -2.4155,-0.52126 -4.125,-0.66992 -1.63517,-0.22297 -3.53009,-0.33399 -5.68554,-0.33399 -3.19603,0 -6.28087,0.33497 -9.25391,1.00391 -2.97304,0.59461 -5.61191,1.59757 -7.91602,3.00976 -2.3041,1.4122 -4.16202,3.30711 -5.57421,5.68555 -1.33787,2.37843 -2.00782,5.27631 -2.00782,8.69531 0,3.56766 0.59594,6.57849 1.78516,9.03125 1.18922,2.45277 2.89717,4.46064 5.12695,6.02149 2.22979,1.48652 4.86865,2.56349 7.91602,3.23242 3.12169,0.66894 6.57851,1.00391 10.36914,1.00391 6.02041,0 11.14818,-0.37198 15.38476,-1.11524 4.23659,-0.66893 7.5454,-1.26292 9.92383,-1.7832 v -34.5625 c 0,-3.64198 -0.40897,-6.94883 -1.22656,-9.92188 -0.81759,-2.97304 -2.22952,-5.5009 -4.23633,-7.58203 -1.93247,-2.08113 -4.53434,-3.67807 -7.80468,-4.79297 -3.27035,-1.11489 -7.35815,-1.67383 -12.26368,-1.67383 z m -487.45312,0.78126 c -3.939303,-1e-5 -7.581128,0.74394 -10.925783,2.23046 -3.34468,1.4122 -6.244504,3.45512 -8.697266,6.13086 -2.378431,2.67574 -4.236341,5.90859 -5.574219,9.69922 -1.337877,3.71631 -2.005859,7.84111 -2.005859,12.375 0,4.60822 0.667982,8.77198 2.005859,12.48828 1.337878,3.71631 3.195788,6.91215 5.574219,9.58789 2.452762,2.67574 5.352586,4.75567 8.697266,6.24219 3.344655,1.4122 6.98648,2.11914 10.925783,2.11914 3.93927,0 7.5811,-0.70694 10.92578,-2.11914 3.34465,-1.48652 6.20553,-3.56645 8.58398,-6.24219 2.45277,-2.67574 4.3477,-5.87158 5.68555,-9.58789 1.33788,-3.7163 2.00781,-7.88006 2.00781,-12.48828 0,-4.53389 -0.66993,-8.65869 -2.00781,-12.375 -1.33785,-3.79063 -3.23278,-7.02348 -5.68555,-9.69922 -2.37845,-2.67574 -5.23933,-4.71866 -8.58398,-6.13086 -3.34468,-1.48652 -6.98651,-2.23046 -10.92578,-2.23046 z m 194.32422,0 c -3.34468,0 -6.61453,0.63098 -9.81055,1.89453 -3.19602,1.26354 -6.01989,3.15846 -8.47266,5.68554 -2.45276,2.52709 -4.42168,5.72489 -5.9082,9.58985 -1.48652,3.79063 -2.23047,8.24845 -2.23047,13.37695 0,4.38524 0.55699,8.43604 1.67188,12.15234 1.18922,3.64198 2.97313,6.80083 5.35156,9.47657 2.37844,2.67574 5.38927,4.79462 9.03125,6.35546 3.7163,1.48653 8.10207,2.23047 13.15625,2.23047 4.01361,0 7.57948,-0.37197 10.70117,-1.11523 3.19602,-0.74326 5.42591,-1.45021 6.68945,-2.11914 l -1.44921,-8.69531 c -1.26355,0.5946 -3.15846,1.22559 -5.68555,1.89453 -2.45276,0.59461 -5.5006,0.89258 -9.14258,0.89258 -6.46637,0 -11.22216,-1.55995 -14.26953,-4.68164 -3.04737,-3.1217 -4.79428,-7.69443 -5.24023,-13.71485 h 39.68945 c 0.0743,-0.59461 0.11133,-1.2256 0.11133,-1.89453 v -1.7832 c 0,-9.9597 -2.07993,-17.35631 -6.24219,-22.1875 -4.16226,-4.90553 -10.14694,-7.35743 -17.95117,-7.35742 z m -130.57032,0.22265 c -4.83119,0 -9.104,0.37197 -12.82031,1.11524 -3.64198,0.66893 -6.68981,1.29992 -9.14258,1.89453 v 76.8164 h 10.36719 v -23.18945 c 1.26355,0.81759 3.16041,1.67254 5.6875,2.56445 2.6014,0.89192 5.57329,1.33789 8.91797,1.33789 4.16227,0 7.84109,-0.74394 11.03711,-2.23047 3.27035,-1.48652 6.02218,-3.56644 8.25195,-6.24218 2.22979,-2.67574 3.90073,-5.87354 5.01563,-9.58985 1.18922,-3.7163 1.78515,-7.7671 1.78515,-12.15234 0,-4.68254 -0.70694,-8.88135 -2.11914,-12.59766 -1.33787,-3.79063 -3.26978,-6.98647 -5.79687,-9.58789 -2.52709,-2.60141 -5.57493,-4.60733 -9.14258,-6.01953 -3.56765,-1.4122 -7.58145,-2.11914 -12.04102,-2.11914 z m 191.06446,0 c -4.53389,0 -8.6217,0.40898 -12.26367,1.22656 -3.64198,0.74327 -6.68982,1.56122 -9.14258,2.45313 v 55.52148 h 10.36914 v -48.7207 c 0.59461,-0.14865 1.82153,-0.40962 3.67969,-0.78125 1.93248,-0.44596 3.86439,-0.66797 5.79687,-0.66797 2.97305,0 5.38794,0.22201 7.24609,0.66797 1.93248,0.37163 3.30742,0.7066 4.125,1.00391 l 1.78516,-9.03125 c -0.44596,-0.14865 -1.1529,-0.29665 -2.11914,-0.44532 -0.89191,-0.22297 -1.89487,-0.40798 -3.00977,-0.55664 -1.11489,-0.22297 -2.26781,-0.37293 -3.45703,-0.44726 -1.11489,-0.14866 -2.11785,-0.22266 -3.00976,-0.22266 z m -60.60547,8.58399 c 4.23658,0 7.54539,1.52489 9.92383,4.57226 2.45276,2.97305 3.64073,6.79988 3.5664,11.48242 h -28.76367 c 0.22298,-2.0068 0.66896,-3.97572 1.33789,-5.9082 0.74326,-1.93248 1.74622,-3.64239 3.00977,-5.12891 1.26354,-1.48652 2.78844,-2.67644 4.57226,-3.56836 1.85815,-0.96624 3.97508,-1.44921 6.35352,-1.44921 z m -194.21289,0.33593 c 5.05416,0 9.03096,1.93192 11.92969,5.79688 2.97305,3.79063 4.45898,8.9554 4.45898,15.49609 0,6.5407 -1.48593,11.74442 -4.45898,15.60938 -2.89873,3.79063 -6.87553,5.68554 -11.92969,5.68554 -5.054188,0 -9.067966,-1.89491 -12.041018,-5.68554 -2.898696,-3.86496 -4.347656,-9.06868 -4.347656,-15.60938 0,-6.54069 1.44896,-11.70546 4.347656,-15.49609 2.973052,-3.86496 6.98683,-5.79688 12.041018,-5.79688 z m 63.64258,0.33399 c 5.57445,0 10.03422,1.82091 13.3789,5.46289 3.34468,3.64198 5.01758,8.84375 5.01758,15.60742 0,2.97304 -0.29796,5.76187 -0.89258,8.36328 -0.59459,2.52709 -1.56056,4.75698 -2.89844,6.68945 -1.33787,1.85816 -3.08479,3.3441 -5.24023,4.45899 -2.08113,1.04056 -4.60898,1.56055 -7.58203,1.56055 -2.82439,0 -5.4243,-0.48298 -7.80274,-1.44922 -2.37843,-0.96624 -4.20129,-1.9692 -5.46484,-3.00977 v -36.56836 c 1.04056,-0.29731 2.41745,-0.55828 4.12695,-0.78125 1.78384,-0.22299 4.23574,-0.33398 7.35743,-0.33398 z m 317.83203,24.63867 c 1.11489,0 2.34182,0.074 3.67969,0.22266 1.33786,0.14864 2.34082,0.2986 3.00976,0.44726 v 12.59766 c -0.89191,0.14863 -2.07988,0.25965 -3.56641,0.33398 -1.48652,0.0743 -3.04841,0.11133 -4.68359,0.11133 -3.04737,0 -5.46227,-0.48298 -7.24609,-1.44922 -1.7095,-1.04056 -2.56446,-2.86148 -2.56446,-5.46289 0,-1.33787 0.29797,-2.45184 0.89258,-3.34375 0.59461,-0.89191 1.41061,-1.59886 2.45117,-2.11914 1.04057,-0.52027 2.23049,-0.85524 3.56836,-1.00391 1.4122,-0.22296 2.89814,-0.33398 4.45899,-0.33398 z m 108.87695,0 c 1.11489,0 2.34182,0.074 3.67969,0.22266 1.33787,0.14864 2.34083,0.2986 3.00976,0.44726 v 12.59766 c -0.89191,0.14863 -2.08183,0.25965 -3.56836,0.33398 -1.48652,0.0743 -3.04646,0.11133 -4.68164,0.11133 -3.04737,0 -5.46422,-0.48298 -7.24804,-1.44922 -1.7095,-1.04056 -2.5625,-2.86148 -2.5625,-5.46289 0,-1.33787 0.29601,-2.45184 0.89062,-3.34375 0.59461,-0.89191 1.41256,-1.59886 2.45313,-2.11914 1.04056,-0.52027 2.23049,-0.85524 3.56836,-1.00391 1.41219,-0.22296 2.89813,-0.33398 4.45898,-0.33398 z"
       transform="matrix(0.26458333,0,0,0.26458333,-149.60725,8.6178443)"
       id="path5296"
       inkscape:connector-curvature="0" />
  </g>
  <g
     inkscape:groupmode="layer"
     id="layer6"
     inkscape:label="abacus"
     style="display:inline"
     transform="translate(149.60725,-8.6178443)">
    <path
       style="display:inline;opacity:1;fill:#a0663f;fill-opacity:1;stroke:#000000;stroke-width:0.5;stroke-linecap:round;stroke-linejoin:round;stroke-miterlimit:4;stroke-dasharray:none;stroke-opacity:1"
       d="m 15.570626,39.371756 c -0.280002,0.0047 -0.565933,0.05115 -0.769463,0.139526 -1.826375,0.372753 -5.5360213,18.368293 -4.792988,19.249471 0.03774,0.04476 0.08847,0.06925 0.14521,0.08527 0.357687,0.1934 1.129472,0.189256 1.751315,0.0098 0.515975,-0.107503 1.329753,-0.602454 2.137337,-0.824241 0.371511,0.117007 0.679367,0.28252 0.942578,0.372586 0.002,0.0019 0.0042,0.0032 0.0062,0.0052 0.573588,0.218379 1.660392,0.281879 1.983341,0.01085 0.0056,-0.0033 0.01152,-0.0047 0.01705,-0.0083 C 18.03039,57.74405 18.115696,39.98886 16.380395,39.5273 16.224817,39.419717 15.904906,39.366105 15.570626,39.371754 Z"
       id="path7354-0"
       inkscape:connector-curvature="0" />
    <path
       style="display:inline;opacity:0.15;fill:#000000;fill-opacity:1;stroke:none;stroke-width:0.5;stroke-linecap:round;stroke-linejoin:round;stroke-miterlimit:4;stroke-dasharray:none;stroke-opacity:1"
       d="m 16.380395,39.527302 c -1.47511,-0.01497 -5.011939,17.044151 -4.677105,18.818701 0.334835,1.774553 0.110491,0.407197 0.20141,0.509836 0.515974,-0.107502 1.329753,-0.602453 2.137337,-0.82424 0.37151,0.117007 0.679366,0.282519 0.942578,0.372586 0.002,0.0019 0.0042,0.0032 0.0062,0.0052 0.573588,0.21838 1.660392,0.28188 1.983341,0.01085 0.0056,-0.0033 0.01152,-0.0047 0.01705,-0.0083 C 18.030388,57.744066 18.115691,39.988861 16.38039,39.5273 Z"
       id="path7354-0-3"
       inkscape:connector-curvature="0"
       sodipodi:nodetypes="czccccccc" />
    <path
       style="fill:none;stroke:#000000;stroke-width:0.5;stroke-linecap:round;stroke-linejoin:round;stroke-miterlimit:4;stroke-dasharray:none;stroke-opacity:1"
       d="m 15.566849,44.603163 h 19.10977"
       id="path7377"
       inkscape:connector-curvature="0" />
    <path
       style="fill:none;stroke:#000000;stroke-width:0.5;stroke-linecap:round;stroke-linejoin:round;stroke-miterlimit:4;stroke-dasharray:none;stroke-opacity:1"
       d="M 15.03231,48.144484 H 34.142082"
       id="path7379"
       inkscape:connector-curvature="0" />
    <path
       style="fill:none;stroke:#000000;stroke-width:0.5;stroke-linecap:round;stroke-linejoin:round;stroke-miterlimit:4;stroke-dasharray:none;stroke-opacity:1"
       d="M 14.698224,51.685805 H 34.743437"
       id="path7381"
       inkscape:connector-curvature="0" />
    <path
       style="fill:none;stroke:#000000;stroke-width:0.5;stroke-linecap:round;stroke-linejoin:round;stroke-miterlimit:4;stroke-dasharray:none;stroke-opacity:1"
       d="M 14.03005,55.160309 H 33.540724"
       id="path7383"
       inkscape:connector-curvature="0" />
    <circle
       style="opacity:1;fill:#c83f3f;fill-opacity:1;stroke:#000000;stroke-width:1;stroke-linecap:round;stroke-linejoin:round;stroke-miterlimit:4;stroke-dasharray:none;stroke-opacity:1;paint-order:stroke fill markers"
       id="path7385"
       cx="17.551193"
       cy="44.569759"
       r="1.3363476" />
    <path
       style="display:inline;opacity:0.15;fill:#000000;fill-opacity:1;stroke:none;stroke-width:1;stroke-linecap:round;stroke-linejoin:round;stroke-miterlimit:4;stroke-dasharray:none;stroke-opacity:1;paint-order:stroke fill markers"
       d="m 18.091723,43.348641 c 0.793564,0.597786 0.275523,2.616013 -1.054716,2.454114 0.162884,0.06808 0.337643,0.103204 0.514181,0.103354 0.738048,2e-6 1.336354,-0.598304 1.336352,-1.336352 -4.09e-4,-0.528612 -0.312378,-1.007301 -0.795817,-1.221116 z"
       id="path7385-5-2-06-8-1"
       inkscape:connector-curvature="0"
       sodipodi:nodetypes="ccccc" />
    <circle
       style="opacity:1;fill:#c83f3f;fill-opacity:1;stroke:#000000;stroke-width:1;stroke-linecap:round;stroke-linejoin:round;stroke-miterlimit:4;stroke-dasharray:none;stroke-opacity:1;paint-order:stroke fill markers"
       id="path7385-5"
       cx="20.05023"
       cy="44.569759"
       r="1.3363476" />
    <path
       style="display:inline;opacity:0.15;fill:#000000;fill-opacity:1;stroke:none;stroke-width:1;stroke-linecap:round;stroke-linejoin:round;stroke-miterlimit:4;stroke-dasharray:none;stroke-opacity:1;paint-order:stroke fill markers"
       d="m 20.59076,43.348641 c 0.793564,0.597786 0.275523,2.616013 -1.054716,2.454114 0.162884,0.06808 0.337643,0.103204 0.514181,0.103354 0.738048,2e-6 1.336354,-0.598304 1.336352,-1.336352 -4.09e-4,-0.528612 -0.312378,-1.007301 -0.795817,-1.221116 z"
       id="path7385-5-2-06-8"
       inkscape:connector-curvature="0"
       sodipodi:nodetypes="ccccc" />
    <circle
       style="opacity:1;fill:#c83f3f;fill-opacity:1;stroke:#000000;stroke-width:1;stroke-linecap:round;stroke-linejoin:round;stroke-miterlimit:4;stroke-dasharray:none;stroke-opacity:1;paint-order:stroke fill markers"
       id="path7385-5-2"
       cx="22.549267"
       cy="44.569759"
       r="1.3363476" />
    <path
       style="fill:none;stroke:#000000;stroke-width:0.5;stroke-linecap:round;stroke-linejoin:miter;stroke-miterlimit:4;stroke-dasharray:none;stroke-opacity:1"
       d="M 34.322266,44.603163 H 23.263573"
       id="path7523"
       inkscape:connector-curvature="0"
       sodipodi:nodetypes="cc" />
    <circle
       style="opacity:1;fill:#43c83f;fill-opacity:1;stroke:#000000;stroke-width:1;stroke-linecap:round;stroke-linejoin:round;stroke-miterlimit:4;stroke-dasharray:none;stroke-opacity:1;paint-order:stroke fill markers"
       id="path7385-2"
       cx="17.076857"
       cy="48.144489"
       r="1.3363476" />
    <path
       style="display:inline;opacity:0.15;fill:#000000;fill-opacity:1;stroke:none;stroke-width:1;stroke-linecap:round;stroke-linejoin:round;stroke-miterlimit:4;stroke-dasharray:none;stroke-opacity:1;paint-order:stroke fill markers"
       d="m 17.61708,46.925271 c 0.793564,0.597786 0.275523,2.616013 -1.054716,2.454114 0.162884,0.06808 0.337643,0.103204 0.514181,0.103354 0.738048,2e-6 1.336354,-0.598304 1.336352,-1.336352 -4.09e-4,-0.528612 -0.312378,-1.007301 -0.795817,-1.221116 z"
       id="path7385-5-2-06-8-1-8"
       inkscape:connector-curvature="0"
       sodipodi:nodetypes="ccccc" />
    <circle
       style="opacity:1;fill:#43c83f;fill-opacity:1;stroke:#000000;stroke-width:1;stroke-linecap:round;stroke-linejoin:round;stroke-miterlimit:4;stroke-dasharray:none;stroke-opacity:1;paint-order:stroke fill markers"
       id="path7385-5-4"
       cx="19.575893"
       cy="48.144489"
       r="1.3363476" />
    <path
       style="display:inline;opacity:0.15;fill:#000000;fill-opacity:1;stroke:none;stroke-width:1;stroke-linecap:round;stroke-linejoin:round;stroke-miterlimit:4;stroke-dasharray:none;stroke-opacity:1;paint-order:stroke fill markers"
       d="m 20.116117,46.925271 c 0.793564,0.597786 0.275523,2.616013 -1.054716,2.454114 0.162884,0.06808 0.337643,0.103204 0.514181,0.103354 0.738048,2e-6 1.336354,-0.598304 1.336352,-1.336352 -4.09e-4,-0.528612 -0.312378,-1.007301 -0.795817,-1.221116 z"
       id="path7385-5-2-06-8-5"
       inkscape:connector-curvature="0"
       sodipodi:nodetypes="ccccc" />
    <circle
       style="opacity:1;fill:#43c83f;fill-opacity:1;stroke:#000000;stroke-width:1;stroke-linecap:round;stroke-linejoin:round;stroke-miterlimit:4;stroke-dasharray:none;stroke-opacity:1;paint-order:stroke fill markers"
       id="path7385-5-2-0"
       cx="22.07493"
       cy="48.144489"
       r="1.3363476" />
    <circle
       style="opacity:1;fill:#3f79c8;fill-opacity:1;stroke:#000000;stroke-width:1;stroke-linecap:round;stroke-linejoin:round;stroke-miterlimit:4;stroke-dasharray:none;stroke-opacity:1;paint-order:stroke fill markers"
       id="path7385-6"
       cx="16.609135"
       cy="51.752628"
       r="1.3363476" />
    <path
       style="display:inline;opacity:0.15;fill:#000000;fill-opacity:1;stroke:none;stroke-width:1;stroke-linecap:round;stroke-linejoin:round;stroke-miterlimit:4;stroke-dasharray:none;stroke-opacity:1;paint-order:stroke fill markers"
       d="m 17.149358,50.533417 c 0.793564,0.597786 0.275523,2.616013 -1.054716,2.454114 0.162884,0.06808 0.337643,0.103204 0.514181,0.103354 0.738048,2e-6 1.336354,-0.598304 1.336352,-1.336352 -4.09e-4,-0.528612 -0.312378,-1.007301 -0.795817,-1.221116 z"
       id="path7385-5-2-06-8-1-8-8"
       inkscape:connector-curvature="0"
       sodipodi:nodetypes="ccccc" />
    <circle
       style="opacity:1;fill:#3f79c8;fill-opacity:1;stroke:#000000;stroke-width:1;stroke-linecap:round;stroke-linejoin:round;stroke-miterlimit:4;stroke-dasharray:none;stroke-opacity:1;paint-order:stroke fill markers"
       id="path7385-5-25"
       cx="19.108171"
       cy="51.752628"
       r="1.3363476" />
    <path
       style="display:inline;opacity:0.15;fill:#000000;fill-opacity:1;stroke:none;stroke-width:1;stroke-linecap:round;stroke-linejoin:round;stroke-miterlimit:4;stroke-dasharray:none;stroke-opacity:1;paint-order:stroke fill markers"
       d="m 19.648395,50.533417 c 0.793564,0.597786 0.275523,2.616013 -1.054716,2.454114 0.162884,0.06808 0.337643,0.103204 0.514181,0.103354 0.738048,2e-6 1.336354,-0.598304 1.336352,-1.336352 -4.09e-4,-0.528612 -0.312378,-1.007301 -0.795817,-1.221116 z"
       id="path7385-5-2-06-8-5-3"
       inkscape:connector-curvature="0"
       sodipodi:nodetypes="ccccc" />
    <circle
       style="opacity:1;fill:#3f79c8;fill-opacity:1;stroke:#000000;stroke-width:1;stroke-linecap:round;stroke-linejoin:round;stroke-miterlimit:4;stroke-dasharray:none;stroke-opacity:1;paint-order:stroke fill markers"
       id="path7385-5-2-00"
       cx="21.607208"
       cy="51.752628"
       r="1.3363476" />
    <circle
       style="opacity:1;fill:#c4c83f;fill-opacity:1;stroke:#000000;stroke-width:1;stroke-linecap:round;stroke-linejoin:round;stroke-miterlimit:4;stroke-dasharray:none;stroke-opacity:1;paint-order:stroke fill markers"
       id="path7385-6-9"
       cx="16.007778"
       cy="55.227131"
       r="1.3363476" />
    <path
       style="display:inline;opacity:0.15;fill:#000000;fill-opacity:1;stroke:none;stroke-width:0.5;stroke-linecap:round;stroke-linejoin:round;stroke-miterlimit:4;stroke-dasharray:none;stroke-opacity:1;paint-order:stroke fill markers"
       d="m 16.548309,54.006012 c 0.793564,0.597786 0.275523,2.616013 -1.054716,2.454114 0.162884,0.06808 0.337643,0.103204 0.514181,0.103354 0.738048,2e-6 1.336354,-0.598304 1.336352,-1.336352 -4.09e-4,-0.528612 -0.312378,-1.007301 -0.795817,-1.221116 z"
       id="path7385-5-2-06-8-1-8-8-1"
       inkscape:connector-curvature="0"
       sodipodi:nodetypes="ccccc" />
    <circle
       style="opacity:1;fill:#c4c83f;fill-opacity:1;stroke:#000000;stroke-width:1;stroke-linecap:round;stroke-linejoin:round;stroke-miterlimit:4;stroke-dasharray:none;stroke-opacity:1;paint-order:stroke fill markers"
       id="path7385-5-25-9"
       cx="18.506817"
       cy="55.227131"
       r="1.3363476" />
    <path
       style="display:inline;opacity:0.15;fill:#000000;fill-opacity:1;stroke:none;stroke-width:0.5;stroke-linecap:round;stroke-linejoin:round;stroke-miterlimit:4;stroke-dasharray:none;stroke-opacity:1;paint-order:stroke fill markers"
       d="m 19.047346,54.006012 c 0.793564,0.597786 0.275523,2.616013 -1.054716,2.454114 0.162884,0.06808 0.337643,0.103204 0.514181,0.103354 0.738048,2e-6 1.336354,-0.598304 1.336352,-1.336352 -4.09e-4,-0.528612 -0.312378,-1.007301 -0.795817,-1.221116 z"
       id="path7385-5-2-06-8-5-3-2"
       inkscape:connector-curvature="0"
       sodipodi:nodetypes="ccccc" />
    <circle
       style="opacity:1;fill:#c4c83f;fill-opacity:1;stroke:#000000;stroke-width:1;stroke-linecap:round;stroke-linejoin:round;stroke-miterlimit:4;stroke-dasharray:none;stroke-opacity:1;paint-order:stroke fill markers"
       id="path7385-5-2-00-0"
       cx="21.005852"
       cy="55.227131"
       r="1.3363476" />
    <path
       style="fill:none;stroke:#000000;stroke-width:0.5;stroke-linecap:round;stroke-linejoin:miter;stroke-miterlimit:4;stroke-dasharray:none;stroke-opacity:1"
       d="M 33.787729,48.144484 H 22.729036"
       id="path7523-0"
       inkscape:connector-curvature="0"
       sodipodi:nodetypes="cc" />
    <path
       style="fill:none;stroke:#000000;stroke-width:0.5;stroke-linecap:round;stroke-linejoin:miter;stroke-miterlimit:4;stroke-dasharray:none;stroke-opacity:1"
       d="M 33.330511,51.752626 H 22.271819"
       id="path7523-0-2"
       inkscape:connector-curvature="0"
       sodipodi:nodetypes="cc" />
    <path
       style="fill:none;stroke:#000000;stroke-width:0.5;stroke-linecap:round;stroke-linejoin:miter;stroke-miterlimit:4;stroke-dasharray:none;stroke-opacity:1"
       d="M 32.868988,55.160309 H 21.810296"
       id="path7523-0-2-8"
       inkscape:connector-curvature="0"
       sodipodi:nodetypes="cc" />
    <circle
       style="opacity:1;fill:#c83f3f;fill-opacity:1;stroke:#000000;stroke-width:1;stroke-linecap:round;stroke-linejoin:round;stroke-miterlimit:4;stroke-dasharray:none;stroke-opacity:1;paint-order:stroke fill markers"
       id="path7385-5-3"
       cx="29.986008"
       cy="44.569759"
       r="1.3363476" />
    <circle
       style="opacity:1;fill:#c83f3f;fill-opacity:1;stroke:#000000;stroke-width:1;stroke-linecap:round;stroke-linejoin:round;stroke-miterlimit:4;stroke-dasharray:none;stroke-opacity:1;paint-order:stroke fill markers"
       id="path7385-5-2-3"
       cx="32.485046"
       cy="44.569759"
       r="1.3363476" />
    <circle
       style="opacity:1;fill:#43c83f;fill-opacity:1;stroke:#000000;stroke-width:1;stroke-linecap:round;stroke-linejoin:round;stroke-miterlimit:4;stroke-dasharray:none;stroke-opacity:1;paint-order:stroke fill markers"
       id="path7385-2-2"
       cx="29.117382"
       cy="48.144489"
       r="1.3363476" />
    <path
       style="display:inline;opacity:0.15;fill:#000000;fill-opacity:1;stroke:none;stroke-width:1;stroke-linecap:round;stroke-linejoin:round;stroke-miterlimit:4;stroke-dasharray:none;stroke-opacity:1;paint-order:stroke fill markers"
       d="m 29.65791,46.923364 c 0.793564,0.597786 0.275523,2.616013 -1.054716,2.454114 0.162884,0.06808 0.337643,0.103204 0.514181,0.103354 0.738048,2e-6 1.336354,-0.598304 1.336352,-1.336352 -4.09e-4,-0.528612 -0.312378,-1.007301 -0.795817,-1.221116 z"
       id="path7385-5-2-06-8-1-8-4"
       inkscape:connector-curvature="0"
       sodipodi:nodetypes="ccccc" />
    <circle
       style="opacity:1;fill:#43c83f;fill-opacity:1;stroke:#000000;stroke-width:1;stroke-linecap:round;stroke-linejoin:round;stroke-miterlimit:4;stroke-dasharray:none;stroke-opacity:1;paint-order:stroke fill markers"
       id="path7385-5-4-2"
       cx="31.616417"
       cy="48.144489"
       r="1.3363476" />
    <circle
       style="opacity:1;fill:#3f79c8;fill-opacity:1;stroke:#000000;stroke-width:1;stroke-linecap:round;stroke-linejoin:round;stroke-miterlimit:4;stroke-dasharray:none;stroke-opacity:1;paint-order:stroke fill markers"
       id="path7385-2-2-0"
       cx="28.516026"
       cy="51.752628"
       r="1.3363476" />
    <path
       style="display:inline;opacity:0.15;fill:#000000;fill-opacity:1;stroke:none;stroke-width:1;stroke-linecap:round;stroke-linejoin:round;stroke-miterlimit:4;stroke-dasharray:none;stroke-opacity:1;paint-order:stroke fill markers"
       d="m 29.05656,50.531505 c 0.793564,0.597786 0.275523,2.616013 -1.054716,2.454114 0.162884,0.06808 0.337643,0.103204 0.514181,0.103354 0.738048,2e-6 1.336354,-0.598304 1.336352,-1.336352 -4.09e-4,-0.528612 -0.312378,-1.007301 -0.795817,-1.221116 z"
       id="path7385-5-2-06-8-1-8-4-0"
       inkscape:connector-curvature="0"
       sodipodi:nodetypes="ccccc" />
    <circle
       style="opacity:1;fill:#3f79c8;fill-opacity:1;stroke:#000000;stroke-width:1;stroke-linecap:round;stroke-linejoin:round;stroke-miterlimit:4;stroke-dasharray:none;stroke-opacity:1;paint-order:stroke fill markers"
       id="path7385-5-4-2-1"
       cx="31.01506"
       cy="51.752628"
       r="1.3363476" />
    <circle
       style="opacity:1;fill:#c4c83f;fill-opacity:1;stroke:#000000;stroke-width:1;stroke-linecap:round;stroke-linejoin:round;stroke-miterlimit:4;stroke-dasharray:none;stroke-opacity:1;paint-order:stroke fill markers"
       id="path7385-2-2-0-7"
       cx="27.94808"
       cy="55.227131"
       r="1.3363476" />
    <path
       style="display:inline;opacity:0.15;fill:#000000;fill-opacity:1;stroke:none;stroke-width:0.5;stroke-linecap:round;stroke-linejoin:round;stroke-miterlimit:4;stroke-dasharray:none;stroke-opacity:1;paint-order:stroke fill markers"
       d="m 28.48861,54.006012 c 0.793564,0.597786 0.275523,2.616013 -1.054716,2.454114 0.162884,0.06808 0.337643,0.103204 0.514181,0.103354 0.738048,2e-6 1.336354,-0.598304 1.336352,-1.336352 -4.09e-4,-0.528612 -0.312378,-1.007301 -0.795817,-1.221116 z"
       id="path7385-5-2-06-8-1-8-4-0-5"
       inkscape:connector-curvature="0"
       sodipodi:nodetypes="ccccc" />
    <circle
       style="opacity:1;fill:#c4c83f;fill-opacity:1;stroke:#000000;stroke-width:1;stroke-linecap:round;stroke-linejoin:round;stroke-miterlimit:4;stroke-dasharray:none;stroke-opacity:1;paint-order:stroke fill markers"
       id="path7385-5-4-2-1-7"
       cx="30.447115"
       cy="55.227131"
       r="1.3363476" />
    <path
       style="opacity:0.3;fill:#ffffff;fill-opacity:1;stroke:none;stroke-width:1;stroke-linecap:round;stroke-linejoin:round;stroke-miterlimit:4;stroke-dasharray:none;stroke-opacity:1;paint-order:stroke fill markers"
       d="m 19.408344,43.936302 c -0.165943,0.192846 -0.211309,0.493622 -0.30031,0.417038 -0.08901,-0.07659 -0.09345,-0.395235 0.07249,-0.588082 0.165944,-0.192846 0.522961,-0.262035 0.611966,-0.185446 0.08901,0.07659 -0.218202,0.163644 -0.384146,0.35649 z"
       id="path8417"
       inkscape:connector-curvature="0"
       sodipodi:nodetypes="scscs" />
    <path
       style="display:inline;opacity:0.3;fill:#ffffff;fill-opacity:1;stroke:none;stroke-width:1;stroke-linecap:round;stroke-linejoin:round;stroke-miterlimit:4;stroke-dasharray:none;stroke-opacity:1;paint-order:stroke fill markers"
       d="m 16.934006,43.897198 c -0.165943,0.192846 -0.211309,0.493622 -0.30031,0.417038 -0.08901,-0.07659 -0.09345,-0.395235 0.07249,-0.588082 0.165944,-0.192846 0.522961,-0.262035 0.611966,-0.185446 0.08901,0.07659 -0.218202,0.163644 -0.384146,0.35649 z"
       id="path8417-4"
       inkscape:connector-curvature="0"
       sodipodi:nodetypes="scscs" />
    <path
       style="display:inline;opacity:0.3;fill:#ffffff;fill-opacity:1;stroke:none;stroke-width:1;stroke-linecap:round;stroke-linejoin:round;stroke-miterlimit:4;stroke-dasharray:none;stroke-opacity:1;paint-order:stroke fill markers"
       d="m 21.861788,43.897197 c -0.165943,0.192846 -0.211309,0.493622 -0.30031,0.417038 -0.08901,-0.07659 -0.09345,-0.395235 0.07249,-0.588082 0.165944,-0.192846 0.522961,-0.262035 0.611966,-0.185446 0.08901,0.07659 -0.218202,0.163644 -0.384146,0.35649 z"
       id="path8417-4-1"
       inkscape:connector-curvature="0"
       sodipodi:nodetypes="scscs" />
    <path
       style="display:inline;opacity:0.3;fill:#ffffff;fill-opacity:1;stroke:none;stroke-width:1;stroke-linecap:round;stroke-linejoin:round;stroke-miterlimit:4;stroke-dasharray:none;stroke-opacity:1;paint-order:stroke fill markers"
       d="m 18.915566,47.541593 c -0.165943,0.192846 -0.211309,0.493622 -0.30031,0.417038 -0.08901,-0.07659 -0.09345,-0.395235 0.07249,-0.588082 0.165944,-0.192846 0.522961,-0.262035 0.611966,-0.185446 0.08901,0.07659 -0.218202,0.163644 -0.384146,0.35649 z"
       id="path8417-6"
       inkscape:connector-curvature="0"
       sodipodi:nodetypes="scscs" />
    <path
       style="display:inline;opacity:0.3;fill:#ffffff;fill-opacity:1;stroke:none;stroke-width:1;stroke-linecap:round;stroke-linejoin:round;stroke-miterlimit:4;stroke-dasharray:none;stroke-opacity:1;paint-order:stroke fill markers"
       d="m 16.441228,47.502489 c -0.165943,0.192846 -0.211309,0.493622 -0.30031,0.417038 -0.08901,-0.07659 -0.09345,-0.395235 0.07249,-0.588082 0.165944,-0.192846 0.522961,-0.262035 0.611966,-0.185446 0.08901,0.07659 -0.218202,0.163644 -0.384146,0.35649 z"
       id="path8417-4-12"
       inkscape:connector-curvature="0"
       sodipodi:nodetypes="scscs" />
    <path
       style="display:inline;opacity:0.3;fill:#ffffff;fill-opacity:1;stroke:none;stroke-width:1;stroke-linecap:round;stroke-linejoin:round;stroke-miterlimit:4;stroke-dasharray:none;stroke-opacity:1;paint-order:stroke fill markers"
       d="m 21.36901,47.502488 c -0.165943,0.192846 -0.211309,0.493622 -0.30031,0.417038 -0.08901,-0.07659 -0.09345,-0.395235 0.07249,-0.588082 0.165944,-0.192846 0.522961,-0.262035 0.611966,-0.185446 0.08901,0.07659 -0.218202,0.163644 -0.384146,0.35649 z"
       id="path8417-4-1-2"
       inkscape:connector-curvature="0"
       sodipodi:nodetypes="scscs" />
    <path
       style="display:inline;opacity:0.3;fill:#ffffff;fill-opacity:1;stroke:none;stroke-width:0.5;stroke-linecap:round;stroke-linejoin:round;stroke-miterlimit:4;stroke-dasharray:none;stroke-opacity:1;paint-order:stroke fill markers"
       d="m 18.447845,51.149732 c -0.165943,0.192846 -0.211309,0.493622 -0.30031,0.417038 -0.08901,-0.07659 -0.09345,-0.395235 0.07249,-0.588082 0.165944,-0.192846 0.52296,-0.262035 0.611965,-0.185446 0.08901,0.07659 -0.218201,0.163644 -0.384144,0.35649 z"
       id="path8417-6-7"
       inkscape:connector-curvature="0"
       sodipodi:nodetypes="scscs" />
    <path
       style="display:inline;opacity:0.3;fill:#ffffff;fill-opacity:1;stroke:none;stroke-width:0.5;stroke-linecap:round;stroke-linejoin:round;stroke-miterlimit:4;stroke-dasharray:none;stroke-opacity:1;paint-order:stroke fill markers"
       d="m 15.973507,51.110628 c -0.165943,0.192846 -0.211309,0.493622 -0.30031,0.417038 -0.08901,-0.07659 -0.09345,-0.395235 0.07249,-0.588082 0.165944,-0.192846 0.522961,-0.262035 0.611966,-0.185446 0.08901,0.07659 -0.218202,0.163644 -0.384146,0.35649 z"
       id="path8417-4-12-9"
       inkscape:connector-curvature="0"
       sodipodi:nodetypes="scscs" />
    <path
       style="display:inline;opacity:0.3;fill:#ffffff;fill-opacity:1;stroke:none;stroke-width:0.5;stroke-linecap:round;stroke-linejoin:round;stroke-miterlimit:4;stroke-dasharray:none;stroke-opacity:1;paint-order:stroke fill markers"
       d="m 20.901289,51.110627 c -0.165943,0.192846 -0.211309,0.493622 -0.30031,0.417038 -0.08901,-0.07659 -0.09345,-0.395235 0.07249,-0.588082 0.165944,-0.192846 0.522961,-0.262035 0.611966,-0.185446 0.08901,0.07659 -0.218202,0.163644 -0.384146,0.35649 z"
       id="path8417-4-1-2-3"
       inkscape:connector-curvature="0"
       sodipodi:nodetypes="scscs" />
    <path
       style="display:inline;opacity:0.3;fill:#ffffff;fill-opacity:1;stroke:none;stroke-width:0.5;stroke-linecap:round;stroke-linejoin:round;stroke-miterlimit:4;stroke-dasharray:none;stroke-opacity:1;paint-order:stroke fill markers"
       d="m 17.93001,54.624236 c -0.165943,0.192846 -0.211309,0.493622 -0.30031,0.417038 -0.08901,-0.07659 -0.09345,-0.395235 0.07249,-0.588082 0.165944,-0.192846 0.52296,-0.262035 0.611965,-0.185446 0.08901,0.07659 -0.218201,0.163644 -0.384144,0.35649 z"
       id="path8417-6-7-1"
       inkscape:connector-curvature="0"
       sodipodi:nodetypes="scscs" />
    <path
       style="display:inline;opacity:0.3;fill:#ffffff;fill-opacity:1;stroke:none;stroke-width:0.5;stroke-linecap:round;stroke-linejoin:round;stroke-miterlimit:4;stroke-dasharray:none;stroke-opacity:1;paint-order:stroke fill markers"
       d="m 15.455672,54.585132 c -0.165943,0.192846 -0.211309,0.493622 -0.30031,0.417038 -0.08901,-0.07659 -0.09345,-0.395235 0.07249,-0.588082 0.165944,-0.192846 0.522961,-0.262035 0.611966,-0.185446 0.08901,0.07659 -0.218202,0.163644 -0.384146,0.35649 z"
       id="path8417-4-12-9-1"
       inkscape:connector-curvature="0"
       sodipodi:nodetypes="scscs" />
    <path
       style="display:inline;opacity:0.3;fill:#ffffff;fill-opacity:1;stroke:none;stroke-width:0.5;stroke-linecap:round;stroke-linejoin:round;stroke-miterlimit:4;stroke-dasharray:none;stroke-opacity:1;paint-order:stroke fill markers"
       d="m 20.383454,54.585131 c -0.165943,0.192846 -0.211309,0.493622 -0.30031,0.417038 -0.08901,-0.07659 -0.09345,-0.395235 0.07249,-0.588082 0.165944,-0.192846 0.522961,-0.262035 0.611966,-0.185446 0.08901,0.07659 -0.218202,0.163644 -0.384146,0.35649 z"
       id="path8417-4-1-2-3-7"
       inkscape:connector-curvature="0"
       sodipodi:nodetypes="scscs" />
    <path
       style="display:inline;opacity:0.3;fill:#ffffff;fill-opacity:1;stroke:none;stroke-width:1;stroke-linecap:round;stroke-linejoin:round;stroke-miterlimit:4;stroke-dasharray:none;stroke-opacity:1;paint-order:stroke fill markers"
       d="m 31.896948,43.913266 c -0.165943,0.192846 -0.211309,0.493622 -0.30031,0.417038 -0.08901,-0.07659 -0.09345,-0.395235 0.07249,-0.588082 0.165944,-0.192846 0.522961,-0.262035 0.611966,-0.185446 0.08901,0.07659 -0.218202,0.163644 -0.384146,0.35649 z"
       id="path8417-8"
       inkscape:connector-curvature="0"
       sodipodi:nodetypes="scscs" />
    <path
       style="display:inline;opacity:0.3;fill:#ffffff;fill-opacity:1;stroke:none;stroke-width:1;stroke-linecap:round;stroke-linejoin:round;stroke-miterlimit:4;stroke-dasharray:none;stroke-opacity:1;paint-order:stroke fill markers"
       d="m 29.42261,43.874162 c -0.165943,0.192846 -0.211309,0.493622 -0.30031,0.417038 -0.08901,-0.07659 -0.09345,-0.395235 0.07249,-0.588082 0.165944,-0.192846 0.522961,-0.262035 0.611966,-0.185446 0.08901,0.07659 -0.218202,0.163644 -0.384146,0.35649 z"
       id="path8417-4-0"
       inkscape:connector-curvature="0"
       sodipodi:nodetypes="scscs" />
    <path
       style="display:inline;opacity:0.3;fill:#ffffff;fill-opacity:1;stroke:none;stroke-width:1;stroke-linecap:round;stroke-linejoin:round;stroke-miterlimit:4;stroke-dasharray:none;stroke-opacity:1;paint-order:stroke fill markers"
       d="m 30.952007,47.504041 c -0.165942,0.192846 -0.211309,0.493622 -0.30031,0.417038 -0.08901,-0.07659 -0.09345,-0.395235 0.07249,-0.588082 0.165945,-0.192846 0.522961,-0.262035 0.611966,-0.185446 0.08901,0.07659 -0.218201,0.163644 -0.384146,0.35649 z"
       id="path8417-8-5"
       inkscape:connector-curvature="0"
       sodipodi:nodetypes="scscs" />
    <path
       style="display:inline;opacity:0.3;fill:#ffffff;fill-opacity:1;stroke:none;stroke-width:1;stroke-linecap:round;stroke-linejoin:round;stroke-miterlimit:4;stroke-dasharray:none;stroke-opacity:1;paint-order:stroke fill markers"
       d="m 28.477669,47.464937 c -0.165943,0.192846 -0.211309,0.493622 -0.30031,0.417038 -0.08901,-0.07659 -0.09345,-0.395235 0.07249,-0.588082 0.165944,-0.192846 0.522961,-0.262035 0.611966,-0.185446 0.08901,0.07659 -0.218202,0.163644 -0.384146,0.35649 z"
       id="path8417-4-0-1"
       inkscape:connector-curvature="0"
       sodipodi:nodetypes="scscs" />
    <path
       style="display:inline;opacity:0.3;fill:#ffffff;fill-opacity:1;stroke:none;stroke-width:0.5;stroke-linecap:round;stroke-linejoin:round;stroke-miterlimit:4;stroke-dasharray:none;stroke-opacity:1;paint-order:stroke fill markers"
       d="m 30.385044,51.118438 c -0.165942,0.192846 -0.211309,0.493622 -0.30031,0.417038 -0.08901,-0.07659 -0.09345,-0.395235 0.07249,-0.588082 0.165945,-0.192846 0.522961,-0.262035 0.611966,-0.185446 0.08901,0.07659 -0.218201,0.163644 -0.384146,0.35649 z"
       id="path8417-8-5-9"
       inkscape:connector-curvature="0"
       sodipodi:nodetypes="scscs" />
    <path
       style="display:inline;opacity:0.3;fill:#ffffff;fill-opacity:1;stroke:none;stroke-width:0.5;stroke-linecap:round;stroke-linejoin:round;stroke-miterlimit:4;stroke-dasharray:none;stroke-opacity:1;paint-order:stroke fill markers"
       d="m 27.910706,51.079334 c -0.165943,0.192846 -0.211309,0.493622 -0.30031,0.417038 -0.08901,-0.07659 -0.09345,-0.395235 0.07249,-0.588082 0.165944,-0.192846 0.522961,-0.262035 0.611966,-0.185446 0.08901,0.07659 -0.218202,0.163644 -0.384146,0.35649 z"
       id="path8417-4-0-1-9"
       inkscape:connector-curvature="0"
       sodipodi:nodetypes="scscs" />
    <path
       style="display:inline;opacity:0.3;fill:#ffffff;fill-opacity:1;stroke:none;stroke-width:0.5;stroke-linecap:round;stroke-linejoin:round;stroke-miterlimit:4;stroke-dasharray:none;stroke-opacity:1;paint-order:stroke fill markers"
       d="m 29.794455,54.591093 c -0.165942,0.192846 -0.211309,0.493622 -0.30031,0.417038 -0.08901,-0.07659 -0.09345,-0.395235 0.07249,-0.588082 0.165946,-0.192846 0.522961,-0.262035 0.611966,-0.185446 0.08901,0.07659 -0.2182,0.163644 -0.384146,0.35649 z"
       id="path8417-8-5-9-4"
       inkscape:connector-curvature="0"
       sodipodi:nodetypes="scscs" />
    <path
       style="display:inline;opacity:0.3;fill:#ffffff;fill-opacity:1;stroke:none;stroke-width:0.5;stroke-linecap:round;stroke-linejoin:round;stroke-miterlimit:4;stroke-dasharray:none;stroke-opacity:1;paint-order:stroke fill markers"
       d="m 27.320117,54.551989 c -0.165943,0.192846 -0.211309,0.493622 -0.30031,0.417038 -0.08901,-0.07659 -0.09345,-0.395235 0.07249,-0.588082 0.165944,-0.192846 0.522961,-0.262035 0.611966,-0.185446 0.08901,0.07659 -0.218202,0.163644 -0.384146,0.35649 z"
       id="path8417-4-0-1-9-9"
       inkscape:connector-curvature="0"
       sodipodi:nodetypes="scscs" />
    <path
       style="display:inline;opacity:0.15;fill:#000000;fill-opacity:1;stroke:none;stroke-width:1;stroke-linecap:round;stroke-linejoin:round;stroke-miterlimit:4;stroke-dasharray:none;stroke-opacity:1;paint-order:stroke fill markers"
       d="m 23.090103,43.346734 c 0.793564,0.597786 0.275523,2.616013 -1.054716,2.454114 0.162884,0.06808 0.337643,0.103204 0.514181,0.103354 0.738048,2e-6 1.336354,-0.598304 1.336352,-1.336352 -4.09e-4,-0.528612 -0.312378,-1.007301 -0.795817,-1.221116 z"
       id="path7385-5-2-06"
       inkscape:connector-curvature="0"
       sodipodi:nodetypes="ccccc" />
    <path
       style="display:inline;opacity:0.15;fill:#000000;fill-opacity:1;stroke:none;stroke-width:1;stroke-linecap:round;stroke-linejoin:round;stroke-miterlimit:4;stroke-dasharray:none;stroke-opacity:1;paint-order:stroke fill markers"
       d="m 22.61546,46.923364 c 0.793564,0.597786 0.275523,2.616013 -1.054716,2.454114 0.162884,0.06808 0.337643,0.103204 0.514181,0.103354 0.738048,2e-6 1.336354,-0.598304 1.336352,-1.336352 -4.09e-4,-0.528612 -0.312378,-1.007301 -0.795817,-1.221116 z"
       id="path7385-5-2-06-4"
       inkscape:connector-curvature="0"
       sodipodi:nodetypes="ccccc" />
    <path
       style="display:inline;opacity:0.15;fill:#000000;fill-opacity:1;stroke:none;stroke-width:1;stroke-linecap:round;stroke-linejoin:round;stroke-miterlimit:4;stroke-dasharray:none;stroke-opacity:1;paint-order:stroke fill markers"
       d="m 22.147738,50.53151 c 0.793564,0.597786 0.275523,2.616013 -1.054716,2.454114 0.162884,0.06808 0.337643,0.103204 0.514181,0.103354 0.738048,2e-6 1.336354,-0.598304 1.336352,-1.336352 -4.09e-4,-0.528612 -0.312378,-1.007301 -0.795817,-1.221116 z"
       id="path7385-5-2-06-4-6"
       inkscape:connector-curvature="0"
       sodipodi:nodetypes="ccccc" />
    <path
       style="display:inline;opacity:0.15;fill:#000000;fill-opacity:1;stroke:none;stroke-width:0.5;stroke-linecap:round;stroke-linejoin:round;stroke-miterlimit:4;stroke-dasharray:none;stroke-opacity:1;paint-order:stroke fill markers"
       d="m 21.546689,54.004105 c 0.793564,0.597786 0.275523,2.616013 -1.054716,2.454114 0.162884,0.06808 0.337643,0.103204 0.514181,0.103354 0.738048,2e-6 1.336354,-0.598304 1.336352,-1.336352 -4.09e-4,-0.528612 -0.312378,-1.007301 -0.795817,-1.221116 z"
       id="path7385-5-2-06-4-6-4"
       inkscape:connector-curvature="0"
       sodipodi:nodetypes="ccccc" />
    <path
       inkscape:connector-curvature="0"
       style="display:inline;opacity:1;fill:#a0663f;fill-opacity:1;stroke:#000000;stroke-width:0.53287613;stroke-linecap:round;stroke-linejoin:round;stroke-miterlimit:4;stroke-dasharray:none;stroke-opacity:1"
       d="m 36.200956,40.412021 c -0.298412,0.005 -0.603144,0.05451 -0.820056,0.1487 -1.946464,0.397263 -5.900028,19.576051 -5.108139,20.51517 0.04022,0.0477 0.09429,0.0738 0.154759,0.09088 0.381204,0.206117 1.203737,0.201701 1.866467,0.01045 0.549901,-0.114572 1.417188,-0.642066 2.277872,-0.878436 0.395938,0.124699 0.724036,0.301095 1.004555,0.397084 0.0021,0.002 0.0045,0.0034 0.0066,0.0055 0.611303,0.232738 1.769566,0.300413 2.11375,0.01156 0.006,-0.0035 0.01228,-0.005 0.01817,-0.0088 1.10752,-0.711793 1.198435,-19.634428 -0.650966,-20.126336 -0.165807,-0.114657 -0.506752,-0.171794 -0.863012,-0.165774 z"
       id="path7354-0-33" />
    <path
       style="display:inline;opacity:0.15;fill:#000000;fill-opacity:1;stroke:none;stroke-width:0.53287613;stroke-linecap:round;stroke-linejoin:round;stroke-miterlimit:4;stroke-dasharray:none;stroke-opacity:1"
       d="m 37.06397,40.577779 c -1.68307,-0.01708 -6.239634,18.940293 -4.769983,20.599434 0.549901,-0.114572 1.417188,-0.642067 2.277872,-0.878437 0.395938,0.1247 0.724036,0.301096 1.004555,0.397084 0.0021,0.002 0.0045,0.0034 0.0066,0.0055 0.611303,0.232738 1.769566,0.300413 2.11375,0.01156 0.006,-0.0035 0.01228,-0.005 0.01817,-0.0088 1.107515,-0.71178 1.198428,-19.634431 -0.650973,-20.126341 z"
       id="path7354-0-3-9"
       inkscape:connector-curvature="0"
       sodipodi:nodetypes="cccccccc" />
    <path
       style="opacity:0.5;fill:none;stroke:#000000;stroke-width:0.2;stroke-linecap:round;stroke-linejoin:miter;stroke-miterlimit:4;stroke-dasharray:none;stroke-opacity:1"
       d="m 37.70639,47.874533 c 0.08149,1.034311 -0.02336,2.357567 -0.05543,3.667517 -0.03169,1.294319 0.01003,2.576039 -0.01473,3.488624"
       id="path6940"
       inkscape:connector-curvature="0"
       sodipodi:nodetypes="csc" />
    <path
       style="opacity:0.5;fill:none;stroke:#000000;stroke-width:0.2;stroke-linecap:round;stroke-linejoin:miter;stroke-miterlimit:4;stroke-dasharray:none;stroke-opacity:1"
       d="m 32.421693,59.660553 c -0.0677,0.583861 0.235443,0.913178 0.970493,0.511853"
       id="path6942"
       inkscape:connector-curvature="0"
       sodipodi:nodetypes="cc" />
    <path
       style="display:inline;opacity:0.5;fill:none;stroke:#000000;stroke-width:0.2;stroke-linecap:round;stroke-linejoin:miter;stroke-miterlimit:4;stroke-dasharray:none;stroke-opacity:1"
       d="m 16.548202,40.676687 c -0.24053,-0.623086 -0.604985,-0.517649 -0.805714,0.259559"
       id="path6942-4"
       inkscape:connector-curvature="0"
       sodipodi:nodetypes="cc" />
    <path
       style="opacity:0.5;fill:none;stroke:#000000;stroke-width:0.2;stroke-linecap:round;stroke-linejoin:miter;stroke-miterlimit:4;stroke-dasharray:none;stroke-opacity:1"
       d="m 13.006852,51.759409 c -0.07508,0.243718 -0.142508,0.492539 -0.125601,0.797582"
       id="path6961"
       inkscape:connector-curvature="0"
       sodipodi:nodetypes="cc" />
    <path
       style="display:inline;opacity:0.5;fill:none;stroke:#000000;stroke-width:0.2;stroke-linecap:round;stroke-linejoin:miter;stroke-miterlimit:4;stroke-dasharray:none;stroke-opacity:1"
       d="m 13.437864,51.374164 -0.125601,0.797582"
       id="path6961-9"
       inkscape:connector-curvature="0" />
    <path
       style="opacity:0.5;fill:none;stroke:#000000;stroke-width:0.2;stroke-linecap:round;stroke-linejoin:miter;stroke-miterlimit:4;stroke-dasharray:none;stroke-opacity:1"
       d="m 37.6906,55.932662 -0.03307,0.760677"
       id="path6978"
       inkscape:connector-curvature="0" />
  </g>
</svg>
