<?xml version="1.0" encoding="UTF-8" standalone="no"?>
<!-- Created with Inkscape (http://www.inkscape.org/) -->

<svg
   xmlns:dc="http://purl.org/dc/elements/1.1/"
   xmlns:cc="http://creativecommons.org/ns#"
   xmlns:rdf="http://www.w3.org/1999/02/22-rdf-syntax-ns#"
   xmlns:svg="http://www.w3.org/2000/svg"
   xmlns="http://www.w3.org/2000/svg"
   xmlns:sodipodi="http://sodipodi.sourceforge.net/DTD/sodipodi-0.dtd"
   xmlns:inkscape="http://www.inkscape.org/namespaces/inkscape"
   width="60.334839mm"
   height="39.300655mm"
   viewBox="0 0 60.334839 39.300656"
   version="1.1"
   id="svg8778"
   inkscape:version="0.92.1 r15371"
   sodipodi:docname="gophernotes-gopher.svg"
   inkscape:export-filename="C:\Users\Marcus Olsson\Desktop\data-science\paperreading\gophernotes.png"
   inkscape:export-xdpi="249.08"
   inkscape:export-ydpi="249.08">
  <defs
     id="defs8772" />
  <sodipodi:namedview
     id="base"
     pagecolor="#ffffff"
     bordercolor="#666666"
     borderopacity="1.0"
     inkscape:pageopacity="0.0"
     inkscape:pageshadow="2"
     inkscape:zoom="1.4"
     inkscape:cx="37.538277"
     inkscape:cy="84.684141"
     inkscape:document-units="mm"
     inkscape:current-layer="layer6"
     showgrid="false"
     fit-margin-top="0"
     fit-margin-left="0"
     fit-margin-right="0"
     fit-margin-bottom="0"
     inkscape:showpageshadow="false"
     inkscape:object-paths="true"
     inkscape:snap-intersection-paths="true"
     inkscape:snap-smooth-nodes="true"
     inkscape:snap-midpoints="true"
     inkscape:snap-global="true"
     inkscape:window-width="2560"
     inkscape:window-height="1377"
     inkscape:window-x="-8"
     inkscape:window-y="-8"
     inkscape:window-maximized="1" />
  <metadata
     id="metadata8775">
    <rdf:RDF>
      <cc:Work
         rdf:about="">
        <dc:format>image/svg+xml</dc:format>
        <dc:type
           rdf:resource="http://purl.org/dc/dcmitype/StillImage" />
        <dc:title></dc:title>
      </cc:Work>
    </rdf:RDF>
  </metadata>
  <g
     inkscape:label="Layer 1"
     inkscape:groupmode="layer"
     id="layer1"
     transform="translate(-77.097831,-135.89962)"
     style="display:none;opacity:0.14200003" />
  <g
     inkscape:groupmode="layer"
     id="layer7"
     inkscape:label="gopher"
     style="display:inline"
     transform="translate(-5.1311636,-9.3215334)">
    <path
       style="fill:#e3bcd1;fill-opacity:1;stroke:#000000;stroke-width:0.5;stroke-linecap:butt;stroke-linejoin:miter;stroke-miterlimit:4;stroke-dasharray:none;stroke-opacity:1"
       d="m 47.989752,14.05091 -1.670434,1.002261 C 42.761521,9.732786 46.703859,8.1845707 47.989752,14.05091 Z"
       id="path9538"
       inkscape:connector-curvature="0"
       sodipodi:nodetypes="ccc"
       inkscape:export-xdpi="517.03973"
       inkscape:export-ydpi="517.03973" />
    <path
       style="display:inline;fill:#d7b89b;fill-opacity:1;stroke:#000000;stroke-width:0.5;stroke-linecap:butt;stroke-linejoin:miter;stroke-miterlimit:4;stroke-dasharray:none;stroke-opacity:1"
       d="m 58.437014,41.663559 c -0.741026,-0.26832 -1.34827,-0.04529 -1.927984,0.278847 0.604821,6.371704 4.638578,5.08027 1.927984,-0.278847 z"
       id="path9538-5-3"
       inkscape:connector-curvature="0"
       sodipodi:nodetypes="ccc"
       inkscape:export-xdpi="517.03973"
       inkscape:export-ydpi="517.03973" />
    <path
       style="display:inline;opacity:0.15;fill:#000000;fill-opacity:1;stroke:none;stroke-width:0.5;stroke-linecap:butt;stroke-linejoin:miter;stroke-miterlimit:4;stroke-dasharray:none;stroke-opacity:1"
       d="m 57.774607,41.548342 c 0.455413,1.64754 1.11485,3.378448 0.676624,4.660811 0.914446,0.15393 1.493334,-1.565307 -0.01402,-4.545493 -0.233407,-0.08451 -0.452426,-0.116102 -0.662605,-0.115318 z"
       id="path9538-5-3-2"
       inkscape:connector-curvature="0"
       sodipodi:nodetypes="cccc"
       inkscape:export-xdpi="517.03973"
       inkscape:export-ydpi="517.03973" />
    <path
       style="display:inline;fill:#d7b89b;fill-opacity:1;stroke:#000000;stroke-width:0.5;stroke-linecap:butt;stroke-linejoin:miter;stroke-miterlimit:4;stroke-dasharray:none;stroke-opacity:1"
       d="m 48.957435,41.445399 c -0.680411,-0.397687 -1.317941,-0.287943 -1.946647,-0.07379 -0.555395,6.376203 3.645228,5.834197 1.946647,0.07379 z"
       id="path9538-5-3-8"
       inkscape:connector-curvature="0"
       sodipodi:nodetypes="ccc"
       inkscape:export-xdpi="517.03973"
       inkscape:export-ydpi="517.03973" />
    <path
       style="display:inline;opacity:0.15;fill:#000000;fill-opacity:1;stroke:none;stroke-width:1.88976383;stroke-linecap:butt;stroke-linejoin:miter;stroke-miterlimit:4;stroke-dasharray:none;stroke-opacity:1"
       d="m 172.44922,38.943359 c -0.41489,-0.01887 -0.7973,0.06426 -1.14258,0.232422 3.59463,4.256979 5.17477,10.080789 6.66992,15.970703 l 3.40235,-2.041015 c -2.12629,-9.700245 -6.17448,-14.036806 -8.92969,-14.16211 z"
       transform="scale(0.26458333)"
       id="path9538-4"
       inkscape:connector-curvature="0"
       sodipodi:nodetypes="ccccc"
       inkscape:export-xdpi="517.03973"
       inkscape:export-ydpi="517.03973" />
    <path
       style="opacity:1;fill:#e3bcd1;fill-opacity:1;stroke:#000000;stroke-width:1.88976383;stroke-linecap:round;stroke-linejoin:round;stroke-miterlimit:4;stroke-dasharray:none;stroke-opacity:1;paint-order:normal"
       d="m 194.01758,36.175781 c 2.06254,2.39594 2.90856,4.724911 3.4827,6.695592 -4.02421,-1.514914 -6.12599,-2.51783 -12.50028,-2.857701 1.61281,1.400036 4.1702,2.98899 3.58398,3.949219 -31.08797,4.465934 -30.46484,29.022239 -30.46484,59.398439 0,33.62764 -0.52127,60.88867 42.83203,60.88867 43.35331,0 42.83008,-27.26103 42.83008,-60.88867 0,-31.45042 -1.53885,-56.665127 -36.37695,-59.79883 -3.83252,-3.469786 -8.36457,-5.820332 -13.38672,-7.386719 z"
       transform="scale(0.26458333)"
       id="path9353"
       inkscape:connector-curvature="0"
       sodipodi:nodetypes="ccccssscc"
       inkscape:export-xdpi="517.03973"
       inkscape:export-ydpi="517.03973" />
    <path
       style="opacity:0.15;fill:#000000;fill-opacity:1;stroke:none;stroke-width:0.22435077px;stroke-linecap:butt;stroke-linejoin:miter;stroke-opacity:1"
       d="m 46.19947,30.024786 c 0.865041,1.402602 1.597181,1.016672 2.267298,0.60759 0.698622,-0.426482 0.194084,-1.138146 0.526816,-1.413034 0.332732,-0.274888 2.151681,-2.449881 -0.469605,-2.653161 l -2.456396,0.381639 z"
       id="path8279"
       inkscape:connector-curvature="0"
       sodipodi:nodetypes="cszccc"
       inkscape:export-xdpi="517.03973"
       inkscape:export-ydpi="517.03973" />
    <path
       style="opacity:0.15;fill:#000000;fill-opacity:1;stroke:none;stroke-width:0.26458332px;stroke-linecap:butt;stroke-linejoin:miter;stroke-opacity:1"
       d="m 53.842223,16.52819 0.653707,11.162109 c 3.019062,-0.107042 6.297958,-2.190064 5.604427,-6.341342 -0.69353,-4.151279 -4.232649,-4.88165 -6.258134,-4.820767 z"
       id="path6378"
       inkscape:connector-curvature="0"
       sodipodi:nodetypes="cczc"
       inkscape:export-xdpi="517.03973"
       inkscape:export-ydpi="517.03973" />
    <path
       style="opacity:1;fill:#ffffff;fill-opacity:1;stroke:#000000;stroke-width:0.5;stroke-linecap:round;stroke-linejoin:round;stroke-miterlimit:4;stroke-dasharray:none;stroke-opacity:1;paint-order:normal"
       d="m 45.705802,22.536716 c 1e-6,2.76095 -0.500939,4.999142 -3.261889,4.999142 -2.76095,0 -4.999141,-2.238192 -4.999141,-4.999142 0,-2.760949 2.238192,-4.999141 4.999141,-4.999141 2.760949,0 3.261889,2.238192 3.261889,4.999141 z"
       id="path9334-8"
       inkscape:connector-curvature="0"
       sodipodi:nodetypes="sssss"
       inkscape:export-xdpi="517.03973"
       inkscape:export-ydpi="517.03973" />
    <circle
       style="opacity:1;fill:#ffffff;fill-opacity:1;stroke:#000000;stroke-width:0.5;stroke-linecap:round;stroke-linejoin:round;stroke-miterlimit:4;stroke-dasharray:none;stroke-opacity:1;paint-order:normal"
       id="path9334"
       cx="53.736038"
       cy="22.135813"
       r="5.6126599"
       inkscape:export-xdpi="517.03973"
       inkscape:export-ydpi="517.03973" />
    <path
       style="display:inline;opacity:1;fill:#ffffff;fill-opacity:1;stroke:#000000;stroke-width:0.5;stroke-linecap:butt;stroke-linejoin:miter;stroke-miterlimit:4;stroke-dasharray:none;stroke-opacity:1;paint-order:normal"
       d="m 45.815119,27.742349 c 0,0 -0.323441,1.758337 0.20045,2.288493 0.523887,0.530156 1.445374,0.580493 2.037929,5e-6 0.592555,-0.580488 -0.267269,-2.388728 -0.267269,-2.388728 z"
       id="path9476"
       inkscape:connector-curvature="0"
       sodipodi:nodetypes="czzcc"
       inkscape:export-xdpi="517.03973"
       inkscape:export-ydpi="517.03973" />
    <path
       style="display:inline;opacity:1;fill:none;fill-opacity:1;stroke:#000000;stroke-width:0.5;stroke-linecap:round;stroke-linejoin:round;stroke-miterlimit:4;stroke-dasharray:none;stroke-opacity:1;paint-order:normal"
       d="m 46.468121,22.496562 c 1e-6,3.207522 -0.587668,5.807734 -3.826613,5.807734 -3.238947,0 -5.864633,-2.600212 -5.864633,-5.807734 0,-3.207521 2.625687,-5.807733 5.864633,-5.807733 3.238944,0 3.826613,2.600212 3.826613,5.807733 z"
       id="path9334-8-8"
       inkscape:connector-curvature="0"
       sodipodi:nodetypes="sssss"
       inkscape:export-xdpi="517.03973"
       inkscape:export-ydpi="517.03973" />
    <path
       style="opacity:0.15;fill:#000000;fill-opacity:1;stroke:none;stroke-width:0.5;stroke-linecap:butt;stroke-linejoin:miter;stroke-miterlimit:4;stroke-dasharray:none;stroke-opacity:1"
       d="m 45.868771,26.4446 -0.628901,0.33383 c 0,0 -0.09638,0.852164 -0.06563,1.763199 1.262735,-0.0029 2.430476,0.139576 2.710945,1.640726 0.131434,-0.180271 0.244729,-0.394843 0.336415,-0.646472 C 48.62668,28.424159 45.868771,26.4446 45.868771,26.4446 Z"
       id="path7331-4"
       inkscape:connector-curvature="0"
       sodipodi:nodetypes="cccccc"
       inkscape:export-xdpi="517.03973"
       inkscape:export-ydpi="517.03973" />
    <path
       style="display:inline;opacity:1;fill:#d7b89b;fill-opacity:1;stroke:#000000;stroke-width:0.5;stroke-linecap:round;stroke-linejoin:round;stroke-miterlimit:4;stroke-dasharray:none;stroke-opacity:1;paint-order:normal"
       d="m 49.242292,28.093814 c -0.613009,1.061762 -1.155781,0.402928 -2.310547,0.09351 -1.154766,-0.309419 -1.527218,0.511005 -1.876234,-0.09351 -0.349016,-0.604514 0.313451,-2.094675 2.009869,-1.760588 1.696418,0.334087 2.78992,0.698825 2.176912,1.760588 z"
       id="path9458-8"
       inkscape:connector-curvature="0"
       sodipodi:nodetypes="zzzzz"
       inkscape:export-xdpi="517.03973"
       inkscape:export-ydpi="517.03973" />
    <ellipse
       style="opacity:1;fill:#000000;fill-opacity:1;stroke:none;stroke-width:0.65713483;stroke-linecap:round;stroke-linejoin:round;stroke-miterlimit:4;stroke-dasharray:none;stroke-opacity:1;paint-order:normal"
       id="path9458"
       cx="46.649605"
       cy="26.203568"
       rx="1.2788044"
       ry="0.79034448"
       inkscape:export-xdpi="517.03973"
       inkscape:export-ydpi="517.03973" />
    <path
       style="display:inline;opacity:0.15;fill:#521745;fill-opacity:1;stroke:none;stroke-width:0.5;stroke-linecap:round;stroke-linejoin:round;stroke-miterlimit:4;stroke-dasharray:none;stroke-opacity:1;paint-order:normal"
       d="m 54.213261,11.480953 c 8.469238,1.024492 12.122594,28.701598 0,31.955671 10.416606,-0.432998 10.287227,-7.470693 10.287227,-16.088939 0,-8.514745 -0.431321,-15.298705 -10.287227,-15.866732 z"
       id="path9353-1"
       inkscape:connector-curvature="0"
       sodipodi:nodetypes="ccsc"
       inkscape:export-xdpi="517.03973"
       inkscape:export-ydpi="517.03973" />
    <path
       style="display:inline;fill:#e3bcd1;fill-opacity:1;stroke:#000000;stroke-width:0.5;stroke-linecap:butt;stroke-linejoin:miter;stroke-miterlimit:4;stroke-dasharray:none;stroke-opacity:1"
       d="m 58.850947,14.032894 c 0.404745,0.676236 1.016312,0.887124 1.670434,1.002262 4.225971,-4.618802 -2.021567,-7.5033654 -1.670434,-1.002262 z"
       id="path9538-5"
       inkscape:connector-curvature="0"
       sodipodi:nodetypes="ccc"
       inkscape:export-xdpi="517.03973"
       inkscape:export-ydpi="517.03973" />
    <path
       style="display:inline;fill:#d7b89b;fill-opacity:1;stroke:#000000;stroke-width:0.5;stroke-linecap:butt;stroke-linejoin:miter;stroke-miterlimit:4;stroke-dasharray:none;stroke-opacity:1"
       d="m 42.643942,33.362825 c 0.731817,0.292503 1.036927,0.862937 1.254238,1.490558 -4.689563,4.355735 -6.84278,0.708455 -1.254238,-1.490558 z"
       id="path9538-5-3-7-3"
       inkscape:connector-curvature="0"
       sodipodi:nodetypes="ccc"
       inkscape:export-xdpi="517.03973"
       inkscape:export-ydpi="517.03973" />
    <circle
       style="display:inline;opacity:1;fill:#000000;fill-opacity:1;stroke:none;stroke-width:0.11316925;stroke-linecap:round;stroke-linejoin:round;stroke-miterlimit:4;stroke-dasharray:none;stroke-opacity:1;paint-order:normal"
       id="path9334-0"
       cx="51.16357"
       cy="24.641464"
       r="1.2703611"
       inkscape:export-xdpi="517.03973"
       inkscape:export-ydpi="517.03973" />
    <circle
       style="display:inline;opacity:1;fill:#000000;fill-opacity:1;stroke:none;stroke-width:0.11316926;stroke-linecap:round;stroke-linejoin:round;stroke-miterlimit:4;stroke-dasharray:none;stroke-opacity:1;paint-order:normal"
       id="path9334-0-3"
       cx="42.476341"
       cy="24.48452"
       r="1.2703612"
       inkscape:export-xdpi="517.03973"
       inkscape:export-ydpi="517.03973" />
    <path
       style="display:inline;opacity:0.15;fill:#000000;fill-opacity:1;stroke:none;stroke-width:0.5;stroke-linecap:round;stroke-linejoin:round;stroke-miterlimit:4;stroke-dasharray:none;stroke-opacity:1;paint-order:normal"
       d="m 53.842225,16.52819 c 3.956484,1.160321 5.772706,8.290531 0.653706,11.162109 2.777998,-0.379518 4.849786,-2.7509 4.852935,-5.5547 -0.0024,-3.056808 -2.450378,-5.549669 -5.506641,-5.607409 z"
       id="path9334-5"
       inkscape:connector-curvature="0"
       sodipodi:nodetypes="cccc"
       inkscape:export-xdpi="517.03973"
       inkscape:export-ydpi="517.03973" />
    <circle
       style="display:inline;opacity:1;fill:#ffffff;fill-opacity:1;stroke:none;stroke-width:0.03430021;stroke-linecap:round;stroke-linejoin:round;stroke-miterlimit:4;stroke-dasharray:none;stroke-opacity:1;paint-order:normal"
       id="path9334-0-4"
       cx="50.680984"
       cy="24.040108"
       r="0.38503087"
       inkscape:export-xdpi="517.03973"
       inkscape:export-ydpi="517.03973" />
    <circle
       style="display:inline;opacity:1;fill:#ffffff;fill-opacity:1;stroke:none;stroke-width:0.03430021;stroke-linecap:round;stroke-linejoin:round;stroke-miterlimit:4;stroke-dasharray:none;stroke-opacity:1;paint-order:normal"
       id="path9334-0-4-5"
       cx="42.011429"
       cy="23.889771"
       r="0.38503087"
       inkscape:export-xdpi="517.03973"
       inkscape:export-ydpi="517.03973" />
    <path
       style="fill:none;stroke:#000000;stroke-width:0.26458332px;stroke-linecap:butt;stroke-linejoin:miter;stroke-opacity:1"
       d="m 46.598409,28.124821 c -0.04607,0.750129 -0.04589,1.892789 0.415617,2.322595"
       id="path5455"
       inkscape:connector-curvature="0"
       sodipodi:nodetypes="cc"
       inkscape:export-xdpi="517.03973"
       inkscape:export-ydpi="517.03973" />
    <path
       style="display:inline;opacity:0.15;fill:#000000;fill-opacity:1;stroke:none;stroke-width:1.88976383;stroke-linecap:butt;stroke-linejoin:miter;stroke-miterlimit:4;stroke-dasharray:none;stroke-opacity:1"
       d="m 182.35547,155.30078 c 0.0229,6.09908 2.57796,14.04856 -1.32422,17.2793 3.53724,2.87125 7.92498,-3.05282 4.00586,-16.34375 -0.91303,-0.53365 -1.80371,-0.81723 -2.68164,-0.93555 z"
       transform="scale(0.26458333)"
       id="path9538-5-3-8-7"
       inkscape:connector-curvature="0"
       sodipodi:nodetypes="cccc"
       inkscape:export-xdpi="517.03973"
       inkscape:export-ydpi="517.03973" />
    <path
       style="fill:#ffffff;fill-opacity:1;stroke:#000000;stroke-width:0.5;stroke-linecap:butt;stroke-linejoin:miter;stroke-miterlimit:4;stroke-dasharray:none;stroke-opacity:1"
       d="m 64.496722,26.132054 c -5.002118,3.640991 -10.894195,5.981274 -17.533927,7.228829 -2.547159,-0.912669 -4.563073,-2.072156 -5.12499,-4.110636 -0.147627,4.338432 1.760143,7.445131 0.602705,10.885954 2.830868,1.872191 4.560519,5.662547 22.646962,0.105962 -1.433731,-2.391879 -0.10542,-8.847446 -0.59075,-14.110109 z"
       id="path5457"
       inkscape:connector-curvature="0"
       sodipodi:nodetypes="cccccc"
       inkscape:export-xdpi="517.03973"
       inkscape:export-ydpi="517.03973" />
    <path
       style="opacity:0.15;fill:#000000;fill-opacity:1;stroke:none;stroke-width:0.26458332px;stroke-linecap:butt;stroke-linejoin:miter;stroke-opacity:1"
       d="m 53.038761,31.841117 c 1.23084,0.380437 1.88445,0.985353 3.693103,1.141085 -0.327875,-0.691211 -0.634048,-1.456988 -0.580654,-2.201693 l 0.435851,-0.173554 2.725148,1.499989 c -0.394417,-0.826311 0.0049,-1.900653 0.293647,-2.940466 z"
       id="path6461"
       inkscape:connector-curvature="0"
       sodipodi:nodetypes="ccccccc"
       inkscape:export-xdpi="517.03973"
       inkscape:export-ydpi="517.03973" />
    <path
       style="fill:#ffffff;fill-opacity:1;stroke:#000000;stroke-width:0.5;stroke-linecap:butt;stroke-linejoin:miter;stroke-miterlimit:4;stroke-dasharray:none;stroke-opacity:1"
       d="m 46.962795,33.360883 8.588239,-0.749044 c 0.01445,-0.622817 0.375199,-1.072487 0.891921,-1.444169 l 1.812624,0.633357 c -0.05236,-1.134109 1.177138,-1.993535 1.918491,-2.957563 -4.817077,2.813986 -9.248549,3.457706 -13.211275,4.517419 z"
       id="path5475"
       inkscape:connector-curvature="0"
       sodipodi:nodetypes="cccccc"
       inkscape:export-xdpi="517.03973"
       inkscape:export-ydpi="517.03973" />
    <path
       style="fill:#ffffff;fill-opacity:1;stroke:#000000;stroke-width:0.5;stroke-linecap:butt;stroke-linejoin:miter;stroke-miterlimit:4;stroke-dasharray:none;stroke-opacity:1"
       d="m 46.962795,33.360883 -3.566403,-0.437741 -0.163261,-0.887161 -0.805187,-0.105028 -0.590021,-2.680705 c 0.932563,2.426353 2.958962,3.363466 5.124876,4.110632 z"
       id="path5477"
       inkscape:connector-curvature="0"
       sodipodi:nodetypes="ccccccc"
       inkscape:export-xdpi="517.03973"
       inkscape:export-ydpi="517.03973" />
    <path
       style="opacity:0.15;fill:#000000;fill-opacity:1;stroke:none;stroke-width:0.19652222px;stroke-linecap:butt;stroke-linejoin:miter;stroke-opacity:1"
       d="m 53.432596,36.828242 c -0.802167,1.143865 -1.704508,1.685674 -2.843955,2.021718 -1.450706,0.42784 -3.08445,0.2848 -3.197397,-1.953339 z"
       id="path7161"
       inkscape:connector-curvature="0"
       sodipodi:nodetypes="cscc"
       inkscape:export-xdpi="517.03973"
       inkscape:export-ydpi="517.03973" />
    <path
       style="opacity:1;fill:#dbb69a;fill-opacity:1;stroke:#000000;stroke-width:0.5;stroke-linecap:butt;stroke-linejoin:miter;stroke-miterlimit:4;stroke-dasharray:none;stroke-opacity:1"
       d="m 50.958366,34.987305 c -5.478433,1.363333 -5.395055,5.636024 1.068561,2.287918 -0.347599,-1.057422 -0.664402,-1.577346 -1.068561,-2.287918 z"
       id="path7191"
       inkscape:connector-curvature="0"
       sodipodi:nodetypes="ccc"
       inkscape:export-xdpi="517.03973"
       inkscape:export-ydpi="517.03973" />
    <path
       style="opacity:0.15;fill:#000000;fill-opacity:1;stroke:none;stroke-width:0.3713806;stroke-linecap:butt;stroke-linejoin:miter;stroke-miterlimit:4;stroke-dasharray:none;stroke-opacity:1"
       d="m 51.564053,36.107429 c -0.310112,0.997391 -1.698961,1.731056 -4.331203,2.160744 0.554634,0.470905 2.131631,0.386055 4.793927,-0.992994 -0.156881,-0.477241 -0.30753,-0.842539 -0.462724,-1.16775 z"
       id="path7191-7"
       inkscape:connector-curvature="0"
       sodipodi:nodetypes="cccc"
       inkscape:export-xdpi="517.03973"
       inkscape:export-ydpi="517.03973" />
    <path
       style="opacity:0.15;fill:#000000;fill-opacity:1;stroke:none;stroke-width:0.99999994px;stroke-linecap:butt;stroke-linejoin:miter;stroke-opacity:1"
       d="m 195.28125,130.33789 0.002,0.008 c 3.73195,0.43518 7.72234,1.79067 8.15039,4.05078 0.42329,2.23497 -2.24365,3.86244 -3.94921,6.72071 l 0.004,0.008 c 14.61407,-4.13815 5.07292,-12.70716 -4.20703,-10.78711 z"
       transform="scale(0.26458333)"
       id="path6443"
       inkscape:connector-curvature="0"
       sodipodi:nodetypes="ccscccc"
       inkscape:export-xdpi="517.03973"
       inkscape:export-ydpi="517.03973" />
    <path
       style="opacity:1;fill:#ffffff;fill-opacity:1;stroke:#000000;stroke-width:0.5;stroke-linecap:butt;stroke-linejoin:round;stroke-miterlimit:4;stroke-dasharray:none;stroke-opacity:1"
       d="m 49.928858,34.713842 c -0.316114,0.550498 0.955991,3.081512 1.506719,3.240757 0.55073,0.159245 2.597088,-1.299638 2.389576,-2.395297 -0.207511,-1.095658 -3.58018,-1.395957 -3.896295,-0.84546 z"
       id="path7191-90"
       inkscape:connector-curvature="0"
       sodipodi:nodetypes="zzzz"
       inkscape:export-xdpi="517.03973"
       inkscape:export-ydpi="517.03973" />
    <path
       style="opacity:0.15;fill:#000000;fill-opacity:1;stroke:none;stroke-width:0.45234159;stroke-linecap:butt;stroke-linejoin:round;stroke-miterlimit:4;stroke-dasharray:none;stroke-opacity:1"
       d="m 53.317097,34.965143 c 0,0 -0.314784,0.384093 -0.97589,1.291016 -0.661106,0.906923 -1.626451,0.885064 -1.626451,0.885064 0.03625,0.02426 0.688955,0.804162 0.720823,0.813378 0.550727,0.159243 2.59708,-1.299546 2.389569,-2.395204 -0.06804,-0.359218 0.02116,-0.407976 -0.508051,-0.594254 z"
       id="path7191-90-8"
       inkscape:connector-curvature="0"
       sodipodi:nodetypes="czccsc"
       inkscape:export-xdpi="517.03973"
       inkscape:export-ydpi="517.03973" />
    <path
       style="opacity:1;fill:#ffffff;fill-opacity:1;stroke:#000000;stroke-width:0.5;stroke-linecap:butt;stroke-linejoin:miter;stroke-miterlimit:4;stroke-dasharray:none;stroke-opacity:1"
       d="m 56.500443,40.835477 c -0.373671,0.380412 -3.043214,1.110547 -3.591724,0.897597 -0.54851,-0.212952 -0.878439,-2.779276 -0.878439,-2.779276 1.31433,-0.703002 2.091752,-0.697133 3.900352,-0.832617 0,0 0.943483,2.333885 0.569811,2.714296 z"
       id="path7226"
       inkscape:connector-curvature="0"
       sodipodi:nodetypes="zzccz"
       inkscape:export-xdpi="517.03973"
       inkscape:export-ydpi="517.03973" />
    <path
       style="fill:none;stroke:#000000;stroke-width:0.5;stroke-linecap:butt;stroke-linejoin:miter;stroke-miterlimit:4;stroke-dasharray:none;stroke-opacity:1"
       d="m 46.962798,33.360881 c -0.05636,3.409127 -0.125738,6.824191 1.150374,9.625068"
       id="path6214"
       inkscape:connector-curvature="0"
       sodipodi:nodetypes="cc"
       inkscape:export-xdpi="517.03973"
       inkscape:export-ydpi="517.03973" />
    <path
       style="display:inline;opacity:0.15;fill:#000000;fill-opacity:1;stroke:none;stroke-width:1.88976383;stroke-linecap:butt;stroke-linejoin:miter;stroke-miterlimit:4;stroke-dasharray:none;stroke-opacity:1"
       d="m 243.76758,98.767578 c -0.31266,0.58366 -5.33185,3.444452 -11.47375,7.514452 9.74871,-3.97628 -1.80463,28.29896 2.67958,37.36369 4.48421,9.06473 -12.64113,14.94296 -12.64113,14.94296 4.76387,-1.26079 18.12662,-4.79058 23.66777,-6.49296 -5.41883,-9.04017 -0.3981,-33.43774 -2.23242,-53.328122 z"
       transform="scale(0.26458333)"
       id="path5457-4"
       inkscape:connector-curvature="0"
       sodipodi:nodetypes="cczcccc"
       inkscape:export-xdpi="517.03973"
       inkscape:export-ydpi="517.03973" />
    <path
       style="opacity:1;fill:none;stroke:#000000;stroke-width:0.25;stroke-linecap:round;stroke-linejoin:miter;stroke-miterlimit:4;stroke-dasharray:none;stroke-opacity:1"
       d="m 61.8439,17.154211 c 0.109006,0.143676 0.174332,0.264439 0.222122,0.505932"
       id="path7247-9-8-8-9"
       inkscape:connector-curvature="0"
       sodipodi:nodetypes="cc"
       inkscape:export-xdpi="517.03973"
       inkscape:export-ydpi="517.03973" />
    <path
       style="opacity:1;fill:none;stroke:#000000;stroke-width:0.25;stroke-linecap:round;stroke-linejoin:miter;stroke-miterlimit:4;stroke-dasharray:none;stroke-opacity:1"
       d="m 61.637957,17.47806 c 0.123872,0.166921 0.237178,0.367375 0.26114,0.615451"
       id="path7247-9-8-9-2-1"
       inkscape:connector-curvature="0"
       sodipodi:nodetypes="cc"
       inkscape:export-xdpi="517.03973"
       inkscape:export-ydpi="517.03973" />
    <path
       style="opacity:1;fill:none;stroke:#000000;stroke-width:0.25;stroke-linecap:round;stroke-linejoin:miter;stroke-miterlimit:4;stroke-dasharray:none;stroke-opacity:1"
       d="m 62.305583,18.475706 c 0.07746,0.162868 0.116812,0.294404 0.114434,0.540565"
       id="path7247-9-8-8-9-5"
       inkscape:connector-curvature="0"
       sodipodi:nodetypes="cc"
       inkscape:export-xdpi="517.03973"
       inkscape:export-ydpi="517.03973" />
    <path
       style="opacity:1;fill:none;stroke:#000000;stroke-width:0.25;stroke-linecap:round;stroke-linejoin:miter;stroke-miterlimit:4;stroke-dasharray:none;stroke-opacity:1"
       d="M 59.010088,37.911451 C 59.202373,37.739157 59.38732,37.56281 59.6981,37.455979"
       id="path7247"
       inkscape:connector-curvature="0"
       sodipodi:nodetypes="cc"
       inkscape:export-xdpi="517.03973"
       inkscape:export-ydpi="517.03973" />
    <path
       style="opacity:1;fill:none;stroke:#000000;stroke-width:0.25;stroke-linecap:round;stroke-linejoin:miter;stroke-miterlimit:4;stroke-dasharray:none;stroke-opacity:1"
       d="m 58.461636,37.792824 c 0.243487,-0.102741 0.471859,-0.257913 0.688012,-0.455472"
       id="path7247-9"
       inkscape:connector-curvature="0"
       sodipodi:nodetypes="cc"
       inkscape:export-xdpi="517.03973"
       inkscape:export-ydpi="517.03973" />
    <path
       style="opacity:1;fill:none;stroke:#000000;stroke-width:0.25;stroke-linecap:round;stroke-linejoin:miter;stroke-miterlimit:4;stroke-dasharray:none;stroke-opacity:1"
       d="m 47.921558,40.247552 c 0.02416,0.183738 0.06368,0.319172 0.203242,0.530151"
       id="path7247-9-8-8"
       inkscape:connector-curvature="0"
       sodipodi:nodetypes="cc"
       inkscape:export-xdpi="517.03973"
       inkscape:export-ydpi="517.03973" />
    <path
       style="opacity:1;fill:none;stroke:#000000;stroke-width:0.25;stroke-linecap:round;stroke-linejoin:miter;stroke-miterlimit:4;stroke-dasharray:none;stroke-opacity:1"
       d="m 48.306015,40.335383 c 0.03009,0.211461 0.09213,0.439789 0.253862,0.638362"
       id="path7247-9-8-9-2"
       inkscape:connector-curvature="0"
       sodipodi:nodetypes="cc"
       inkscape:export-xdpi="517.03973"
       inkscape:export-ydpi="517.03973" />
    <path
       style="display:inline;opacity:0.15;fill:#110c07;fill-opacity:1;stroke:none;stroke-width:1.88976383;stroke-linecap:round;stroke-linejoin:round;stroke-miterlimit:4;stroke-dasharray:none;stroke-opacity:1;paint-order:normal"
       d="m 177.60156,99.488281 c 3.77147,0.816829 7.37188,6.708539 0,7.117189 4.20382,1.19274 6.23684,3.51637 8.51172,-0.42383 2.31688,-4.01296 -1.81686,-5.39161 -8.22851,-6.654296 -0.0982,-0.01933 -0.18687,-0.02293 -0.28321,-0.03906 z"
       transform="scale(0.26458333)"
       id="path9458-8-6"
       inkscape:connector-curvature="0"
       sodipodi:nodetypes="ccccc"
       inkscape:export-xdpi="517.03973"
       inkscape:export-ydpi="517.03973" />
    <path
       style="display:inline;opacity:0.15;fill:#000000;fill-opacity:1;stroke:none;stroke-width:1.88976383;stroke-linecap:round;stroke-linejoin:round;stroke-miterlimit:4;stroke-dasharray:none;stroke-opacity:1;paint-order:normal"
       d="m 164.11328,66.714844 c 7.60295,8.323933 5.72009,32.943754 -1.39258,37.197266 8.41233,-1.19015 10.0254,-9.120876 10.02539,-18.734376 0,-9.058317 -1.43059,-16.623187 -8.63281,-18.46289 z"
       transform="scale(0.26458333)"
       id="path9334-8-9"
       inkscape:connector-curvature="0"
       sodipodi:nodetypes="cccc"
       inkscape:export-xdpi="517.03973"
       inkscape:export-ydpi="517.03973" />
    <path
       style="display:inline;opacity:0.15;fill:#000000;fill-opacity:1;stroke:none;stroke-width:0.5;stroke-linecap:butt;stroke-linejoin:miter;stroke-miterlimit:4;stroke-dasharray:none;stroke-opacity:1"
       d="m 61.213735,10.285926 c -0.194921,0.0089 -0.414766,0.100905 -0.642339,0.274919 0.826849,0.33685 0.0093,2.383736 -1.270278,3.993155 0.203824,0.07425 1.000511,0.442329 1.220153,0.48099 2.00126,-2.992717 1.62973,-4.79169 0.692464,-4.749064 z"
       id="path9538-5-4"
       inkscape:connector-curvature="0"
       sodipodi:nodetypes="ccccc"
       inkscape:export-xdpi="517.03973"
       inkscape:export-ydpi="517.03973" />
    <path
       style="opacity:1;fill:none;stroke:#000000;stroke-width:0.25;stroke-linecap:butt;stroke-linejoin:miter;stroke-miterlimit:4;stroke-dasharray:none;stroke-opacity:1"
       d="m 59.555962,12.642116 c 0.237495,0.813257 0.203178,1.322478 0.01327,2.007805 0.228139,-0.669708 0.541236,-1.047095 1.027979,-1.649094"
       id="path7033"
       inkscape:connector-curvature="0"
       sodipodi:nodetypes="ccc"
       inkscape:export-xdpi="517.03973"
       inkscape:export-ydpi="517.03973" />
    <circle
       style="display:inline;opacity:1;fill:none;fill-opacity:1;stroke:#000000;stroke-width:0.5;stroke-linecap:round;stroke-linejoin:round;stroke-miterlimit:4;stroke-dasharray:none;stroke-opacity:1;paint-order:normal"
       id="path9334-08"
       cx="53.779846"
       cy="22.162132"
       r="6.3446083"
       inkscape:export-xdpi="517.03973"
       inkscape:export-ydpi="517.03973" />
    <path
       style="fill:none;stroke:#000000;stroke-width:0.5;stroke-linecap:round;stroke-linejoin:miter;stroke-miterlimit:4;stroke-dasharray:none;stroke-opacity:1"
       d="m 46.33401,24.701381 c 0.304083,-0.533785 0.660944,-0.95002 1.646132,0.0332"
       id="path6493"
       inkscape:connector-curvature="0"
       sodipodi:nodetypes="cc"
       inkscape:export-xdpi="517.03973"
       inkscape:export-ydpi="517.03973" />
    <ellipse
       style="opacity:0.15;fill:#000000;fill-opacity:1;stroke:none;stroke-width:0.5;stroke-linecap:round;stroke-linejoin:round;stroke-miterlimit:4;stroke-dasharray:none;stroke-dashoffset:0;stroke-opacity:1;paint-order:normal"
       id="path6588"
       cx="53.697918"
       cy="46.248539"
       rx="7.6067705"
       ry="0.66145831"
       inkscape:export-xdpi="517.03973"
       inkscape:export-ydpi="517.03973" />
    <ellipse
       style="display:inline;opacity:0.15;fill:#000000;fill-opacity:1;stroke:none;stroke-width:0.46115971;stroke-linecap:round;stroke-linejoin:round;stroke-miterlimit:4;stroke-dasharray:none;stroke-dashoffset:0;stroke-opacity:1;paint-order:normal"
       id="path6588-4"
       cx="37.74881"
       cy="47.155182"
       rx="6.4708757"
       ry="0.66145831"
       inkscape:export-xdpi="517.03973"
       inkscape:export-ydpi="517.03973" />
    <ellipse
       style="display:inline;opacity:0.15;fill:#000000;fill-opacity:1;stroke:none;stroke-width:0.41873208;stroke-linecap:round;stroke-linejoin:round;stroke-miterlimit:4;stroke-dasharray:none;stroke-dashoffset:0;stroke-opacity:1;paint-order:normal"
       id="path6588-4-0"
       cx="23.720173"
       cy="47.493008"
       rx="5.3349805"
       ry="0.66145831"
       inkscape:export-xdpi="517.03973"
       inkscape:export-ydpi="517.03973" />
    <ellipse
       style="display:inline;opacity:0.15;fill:#000000;fill-opacity:1;stroke:none;stroke-width:0.41873208;stroke-linecap:round;stroke-linejoin:round;stroke-miterlimit:4;stroke-dasharray:none;stroke-dashoffset:0;stroke-opacity:1;paint-order:normal"
       id="path6588-4-0-5"
       cx="10.824416"
       cy="47.960732"
       rx="5.3349805"
       ry="0.66145831"
       inkscape:export-xdpi="517.03973"
       inkscape:export-ydpi="517.03973" />
  </g>
  <g
     inkscape:groupmode="layer"
     id="layer6"
     inkscape:label="text"
     style="display:inline"
     transform="translate(-5.1311636,-9.3215334)" />
  <g
     inkscape:groupmode="layer"
     id="layer4"
     inkscape:label="papershadows 3"
     style="display:inline"
     transform="translate(-5.1311636,-9.3215334)">
    <path
       style="fill:#ffffff;fill-opacity:1;stroke:#000000;stroke-width:1.88976383;stroke-linecap:butt;stroke-linejoin:miter;stroke-miterlimit:4;stroke-dasharray:none;stroke-opacity:1"
       d="m 126.25977,68.830078 c -11.05218,-0.15427 -28.41602,0.806641 -28.41602,0.806641 -12.529731,4.659348 -14.178481,13.36125 -15.142578,22.316406 6.224519,-9.641272 20.217808,-2.774746 31.300778,-2.091797 -0.22889,-6.863425 1.01627,-8.762087 2.71094,-13.382812 12.71806,2.3544 19.05004,14.719254 22.74609,25.140624 3.69606,10.42137 4.55696,30.65284 14.49024,33.31445 9.93329,2.66162 3.87466,24.57893 -2.2461,32.3125 -2.38928,3.35161 -5.48448,5.29345 -8.52539,7.3418 -10.25002,-5.78615 -21.20632,-19.59585 -24.92773,-19.77148 -3.72141,-0.17563 -14.1391,0.49804 -20.96875,0.49804 -6.829648,0 -10.674767,15.30617 -10.644531,15.34571 0,0 -10.926961,-10.60352 -14.158203,-10.60352 -3.231247,0 -20.718678,0.70313 -22.964844,0.70313 -2.246166,0 -6.943504,7.70823 -9.519531,11.93359 -15.710267,0.0631 -19.611329,-4.24805 -19.611329,-4.24805 -0.580208,3.33699 5.315219,10.88575 7.703126,11.9961 2.387906,1.11032 23.022038,0.83299 25.578124,-0.2461 2.556084,-1.07908 9.060547,-12.64258 9.060547,-12.64258 0,0 11.141524,11.24805 15.236329,11.24805 4.094804,0 18.10844,-0.5 22.421872,-0.5 4.31344,0 8.59961,-14.51172 8.59961,-14.51172 8.66094,6.54257 11.84647,18.12218 44.35547,13.37696 7.18876,-0.39144 13.04309,-4.66457 18.38867,-10.41797 10.13696,-14.3308 6.52448,-31.85271 -0.66015,-36.51758 -7.18464,-4.66487 -9.47547,-24.74236 -15.75586,-38.664064 -6.28039,-13.921704 -15.35926,-20.627135 -20.97852,-22.132812 -1.40481,-0.376419 -4.38821,-0.552092 -8.07226,-0.603516 z"
       id="path5366"
       inkscape:connector-curvature="0"
       transform="scale(0.26458333)"
       inkscape:export-xdpi="517.03973"
       inkscape:export-ydpi="517.03973" />
    <path
       style="fill:none;stroke:#000000;stroke-width:0.5;stroke-linecap:butt;stroke-linejoin:miter;stroke-miterlimit:4;stroke-dasharray:none;stroke-opacity:1"
       d="m 30.880327,20.235017 c 0.426229,-1.086228 1.227033,-2.454788 4.66148,-1.8642"
       id="path5380"
       inkscape:connector-curvature="0"
       sodipodi:nodetypes="cc"
       inkscape:export-xdpi="517.03973"
       inkscape:export-ydpi="517.03973" />
    <path
       style="fill:none;stroke:#000000;stroke-width:0.5;stroke-linecap:butt;stroke-linejoin:miter;stroke-miterlimit:4;stroke-dasharray:none;stroke-opacity:1"
       d="m 10.581783,45.691784 h 0.782923 c 0.508425,1.305728 1.205342,2.333169 2.833868,1.985182"
       id="path5368"
       inkscape:connector-curvature="0"
       sodipodi:nodetypes="ccc"
       inkscape:export-xdpi="517.03973"
       inkscape:export-ydpi="517.03973" />
    <path
       style="fill:none;stroke:#000000;stroke-width:0.5;stroke-linecap:butt;stroke-linejoin:miter;stroke-miterlimit:4;stroke-dasharray:none;stroke-opacity:1"
       d="m 16.595972,44.331933 c 0.717032,-1.148503 1.475775,-2.155 2.580496,-1.98365"
       id="path5370"
       inkscape:connector-curvature="0"
       sodipodi:nodetypes="cc"
       inkscape:export-xdpi="517.03973"
       inkscape:export-ydpi="517.03973" />
    <path
       style="fill:none;stroke:#000000;stroke-width:0.5;stroke-linecap:butt;stroke-linejoin:miter;stroke-miterlimit:4;stroke-dasharray:none;stroke-opacity:1"
       d="m 22.922682,45.154135 c 1.154356,1.207024 2.358408,1.957246 3.637065,2.021702"
       id="path5372"
       inkscape:connector-curvature="0"
       sodipodi:nodetypes="cc"
       inkscape:export-xdpi="517.03973"
       inkscape:export-ydpi="517.03973" />
    <path
       style="fill:none;stroke:#000000;stroke-width:0.5;stroke-linecap:butt;stroke-linejoin:miter;stroke-miterlimit:4;stroke-dasharray:none;stroke-opacity:1"
       d="m 28.834822,43.336093 c 0.45375,-1.512044 1.230098,-2.384873 2.452293,-2.374272"
       id="path5374"
       inkscape:connector-curvature="0"
       sodipodi:nodetypes="cc"
       inkscape:export-xdpi="517.03973"
       inkscape:export-ydpi="517.03973" />
    <path
       style="fill:none;stroke:#000000;stroke-width:0.5;stroke-linecap:butt;stroke-linejoin:miter;stroke-miterlimit:4;stroke-dasharray:none;stroke-opacity:1"
       d="m 37.88238,46.192996 c 0.929257,0.537069 1.811587,0.637301 2.688006,0.682508"
       id="path5376"
       inkscape:connector-curvature="0"
       sodipodi:nodetypes="cc"
       inkscape:export-xdpi="517.03973"
       inkscape:export-ydpi="517.03973" />
    <path
       style="display:inline;opacity:0.15;fill:#000000;fill-opacity:1;stroke:none;stroke-width:1.88976383;stroke-linecap:butt;stroke-linejoin:miter;stroke-miterlimit:4;stroke-dasharray:none;stroke-opacity:1"
       d="m 20.382812,168.44531 c -0.580207,3.33699 5.315218,10.88575 7.703126,11.9961 2.385307,1.10911 22.973831,0.83396 25.566406,-0.24219 -4.661138,0.63946 -8.674891,-0.88275 -10.699219,-7.50586 h -2.958984 c -15.710268,0.0631 -19.611328,-4.24805 -19.611329,-4.24805 z"
       transform="scale(0.26458333)"
       id="path5366-0"
       inkscape:connector-curvature="0"
       inkscape:export-xdpi="517.03973"
       inkscape:export-ydpi="517.03973" />
    <path
       style="display:inline;opacity:0.15;fill:#010101;fill-opacity:1;stroke:none;stroke-width:1.88976383;stroke-linecap:butt;stroke-linejoin:miter;stroke-miterlimit:4;stroke-dasharray:none;stroke-opacity:1"
       d="m 72.478516,160.05664 c -0.241595,0 -0.998062,0.0259 -1.386719,0.0332 -3.815934,0.43712 -6.269044,3.93032 -8.367188,7.46289 0,0 0.02513,0.0232 0.02539,0.0234 2.186444,1.88023 4.152587,3.92232 6.320312,5.81641 0.778463,0.65844 1.576077,1.3135 2.375,1.92773 1.873542,1.38079 3.972277,2.59551 6.515626,3.48047 l 10.785156,-0.24023 c 3.787848,-0.10396 7.291227,-0.19204 9.792968,-0.22852 -7.963573,-1.18231 -21.781109,-17.94748 -26.060546,-18.27539 z"
       transform="scale(0.26458333)"
       id="path5366-2"
       inkscape:connector-curvature="0"
       inkscape:export-xdpi="517.03973"
       inkscape:export-ydpi="517.03973" />
    <path
       style="display:inline;opacity:0.15;fill:#000000;fill-opacity:1;stroke:none;stroke-width:1.88976383;stroke-linecap:butt;stroke-linejoin:miter;stroke-miterlimit:4;stroke-dasharray:none;stroke-opacity:1"
       d="m 117.06445,154.79688 c -4.07306,0.0861 -6.60558,4.70918 -8.08203,8.99218 2.41672,1.82562 4.41817,4.04162 6.73828,6.1875 8.27023,6.45187 15.79703,8.16463 22.71485,8.28516 0.0909,0.002 0.18568,6e-4 0.27734,0.002 4.72412,0.0538 9.14644,-0.5921 13.34375,-0.97265 -2.63644,0.0697 -5.64554,-1.02451 -8.77734,-2.77149 -0.0339,0.0228 -0.0677,0.0456 -0.10157,0.0684 -1.67145,-0.94354 -3.36057,-2.11233 -5.03515,-3.38867 -9.188,-6.61534 -18.20726,-16.24838 -20.89649,-16.39844 -0.0626,-7.8e-4 -0.11689,-0.003 -0.18164,-0.004 z m 34.99219,22.49414 c 0.43661,-0.0115 0.86644,-0.0469 1.28125,-0.125 -0.41808,0.0314 -0.8583,0.0866 -1.28125,0.125 z"
       transform="scale(0.26458333)"
       id="path5366-1"
       inkscape:connector-curvature="0"
       inkscape:export-xdpi="517.03973"
       inkscape:export-ydpi="517.03973" />
    <path
       style="display:inline;opacity:0.15;fill:#000000;fill-opacity:1;stroke:none;stroke-width:1.88976383;stroke-linecap:butt;stroke-linejoin:miter;stroke-miterlimit:4;stroke-dasharray:none;stroke-opacity:1"
       d="m 126.25977,68.830078 c -7.6773,1.726454 -7.98532,4.801773 -9.54688,7.648438 7.36779,1.363943 12.58211,6.09452 16.39258,11.853515 h 20.61523 c -6.14986,-11.724477 -14.22618,-17.515152 -19.38867,-18.898437 -1.40481,-0.376403 -4.38821,-0.552092 -8.07226,-0.603516 z"
       transform="scale(0.26458333)"
       id="path5366-6"
       inkscape:connector-curvature="0"
       inkscape:export-xdpi="517.03973"
       inkscape:export-ydpi="517.03973" />
  </g>
  <g
     inkscape:groupmode="layer"
     id="layer2"
     inkscape:label="papershadows 1"
     style="display:inline;opacity:0.5"
     transform="translate(-5.1311636,-9.3215334)">
    <path
       style="fill:none;stroke:#000000;stroke-width:0.26499999;stroke-linecap:round;stroke-linejoin:miter;stroke-miterlimit:4;stroke-dasharray:1.05999995, 1.05999995;stroke-dashoffset:0;stroke-opacity:1"
       d="m 29.518315,42.916018 3.023486,0.05011"
       id="path5207"
       inkscape:connector-curvature="0"
       sodipodi:nodetypes="cc"
       inkscape:export-xdpi="517.03973"
       inkscape:export-ydpi="517.03973" />
    <path
       style="fill:none;stroke:#000000;stroke-width:0.26499999;stroke-linecap:round;stroke-linejoin:miter;stroke-miterlimit:4;stroke-dasharray:none;stroke-opacity:1"
       d="m 30.118239,43.559137 2.338404,0.02649"
       id="path5207-2"
       inkscape:connector-curvature="0"
       sodipodi:nodetypes="cc"
       inkscape:export-xdpi="517.03973"
       inkscape:export-ydpi="517.03973" />
    <path
       style="fill:none;stroke:#000000;stroke-width:0.26499999;stroke-linecap:round;stroke-linejoin:miter;stroke-miterlimit:4;stroke-dasharray:none;stroke-opacity:1"
       d="m 30.916689,44.227311 3.023486,0.05011"
       id="path5207-2-8"
       inkscape:connector-curvature="0"
       sodipodi:nodetypes="cc"
       inkscape:export-xdpi="517.03973"
       inkscape:export-ydpi="517.03973" />
    <path
       style="fill:none;stroke:#000000;stroke-width:0.26499999;stroke-linecap:round;stroke-linejoin:miter;stroke-miterlimit:4;stroke-dasharray:none;stroke-opacity:1"
       d="m 31.809286,44.895485 0.701582,0.0083"
       id="path5207-2-8-4"
       inkscape:connector-curvature="0"
       sodipodi:nodetypes="cc"
       inkscape:export-xdpi="517.03973"
       inkscape:export-ydpi="517.03973" />
    <path
       style="fill:none;stroke:#000000;stroke-width:0.26499999;stroke-linecap:round;stroke-linejoin:miter;stroke-miterlimit:4;stroke-dasharray:1.05999995, 1.05999995;stroke-dashoffset:0;stroke-opacity:1"
       d="m 32.618362,45.580363 3.023487,0.05011"
       id="path5207-2-8-4-7"
       inkscape:connector-curvature="0"
       sodipodi:nodetypes="cc"
       inkscape:export-xdpi="517.03973"
       inkscape:export-ydpi="517.03973" />
    <path
       style="fill:none;stroke:#000000;stroke-width:0.26499999;stroke-linecap:round;stroke-linejoin:miter;stroke-miterlimit:4;stroke-dasharray:none;stroke-opacity:1"
       d="m 34.080298,46.198424 2.424766,0.0383"
       id="path5207-2-8-4-7-2"
       inkscape:connector-curvature="0"
       sodipodi:nodetypes="cc"
       inkscape:export-xdpi="517.03973"
       inkscape:export-ydpi="517.03973" />
    <path
       style="fill:none;stroke:#000000;stroke-width:0.26499999;stroke-linecap:round;stroke-linejoin:miter;stroke-miterlimit:4;stroke-dasharray:0.52999997, 1.58999992;stroke-dashoffset:0;stroke-opacity:1"
       d="m 17.14701,43.610982 3.023486,0.05011"
       id="path5207-5"
       inkscape:connector-curvature="0"
       sodipodi:nodetypes="cc"
       inkscape:export-xdpi="517.03973"
       inkscape:export-ydpi="517.03973" />
    <path
       style="fill:none;stroke:#000000;stroke-width:0.26499999;stroke-linecap:round;stroke-linejoin:miter;stroke-miterlimit:4;stroke-dasharray:0.52999997, 1.58999992;stroke-dashoffset:0;stroke-opacity:1"
       d="m 19.042953,45.490223 2.338404,0.02649"
       id="path5207-2-3"
       inkscape:connector-curvature="0"
       sodipodi:nodetypes="cc"
       inkscape:export-xdpi="517.03973"
       inkscape:export-ydpi="517.03973" />
    <path
       style="fill:none;stroke:#000000;stroke-width:0.26499999;stroke-linecap:round;stroke-linejoin:miter;stroke-miterlimit:4;stroke-dasharray:1.06, 0.53, 0.265, 0.53;stroke-dashoffset:0;stroke-opacity:1"
       d="m 17.856943,44.28751 3.023486,0.05011"
       id="path5207-2-8-2"
       inkscape:connector-curvature="0"
       sodipodi:nodetypes="cc"
       inkscape:export-xdpi="517.03973"
       inkscape:export-ydpi="517.03973" />
    <path
       style="fill:none;stroke:#000000;stroke-width:0.26499999;stroke-linecap:round;stroke-linejoin:miter;stroke-miterlimit:4;stroke-dasharray:none;stroke-opacity:1"
       d="m 20.596457,46.70964 0.701582,0.0083"
       id="path5207-2-8-4-1"
       inkscape:connector-curvature="0"
       sodipodi:nodetypes="cc"
       inkscape:export-xdpi="517.03973"
       inkscape:export-ydpi="517.03973" />
    <path
       style="fill:none;stroke:#000000;stroke-width:0.26499999;stroke-linecap:round;stroke-linejoin:miter;stroke-miterlimit:4;stroke-dasharray:none;stroke-opacity:1"
       d="m 19.750267,46.11115 3.023487,0.05011"
       id="path5207-2-8-4-7-9"
       inkscape:connector-curvature="0"
       sodipodi:nodetypes="cc"
       inkscape:export-xdpi="517.03973"
       inkscape:export-ydpi="517.03973" />
  </g>
  <g
     inkscape:groupmode="layer"
     id="layer5"
     inkscape:label="papershadows 2"
     style="display:inline"
     transform="translate(-5.1311636,-9.3215334)" />
</svg>
