<?xml version="1.0" encoding="UTF-8" standalone="no"?>
<!-- Created with Inkscape (http://www.inkscape.org/) -->

<svg
   xmlns:dc="http://purl.org/dc/elements/1.1/"
   xmlns:cc="http://creativecommons.org/ns#"
   xmlns:rdf="http://www.w3.org/1999/02/22-rdf-syntax-ns#"
   xmlns:svg="http://www.w3.org/2000/svg"
   xmlns="http://www.w3.org/2000/svg"
   xmlns:sodipodi="http://sodipodi.sourceforge.net/DTD/sodipodi-0.dtd"
   xmlns:inkscape="http://www.inkscape.org/namespaces/inkscape"
   width="57.41544mm"
   height="55.563961mm"
   viewBox="0 0 57.415441 55.563961"
   version="1.1"
   id="svg8"
   inkscape:version="0.92.1 r15371"
   sodipodi:docname="scientist.svg"
   inkscape:export-filename="C:\Users\Marcus Olsson\Desktop\data-science\scientist\scientist.png"
   inkscape:export-xdpi="68.417511"
   inkscape:export-ydpi="68.417511">
  <defs
     id="defs2" />
  <sodipodi:namedview
     id="base"
     pagecolor="#ffffff"
     bordercolor="#666666"
     borderopacity="1.0"
     inkscape:pageopacity="0.0"
     inkscape:pageshadow="2"
     inkscape:zoom="2.0000001"
     inkscape:cx="56.359267"
     inkscape:cy="233.40237"
     inkscape:document-units="mm"
     inkscape:current-layer="layer1"
     showgrid="false"
     fit-margin-top="0"
     fit-margin-left="0"
     fit-margin-right="0"
     fit-margin-bottom="0"
     inkscape:showpageshadow="false"
     inkscape:object-paths="true"
     inkscape:snap-global="true"
     inkscape:window-width="1278"
     inkscape:window-height="1368"
     inkscape:window-x="-7"
     inkscape:window-y="0"
     inkscape:window-maximized="1"
     inkscape:snap-midpoints="true"
     inkscape:snap-smooth-nodes="true"
     inkscape:snap-intersection-paths="true" />
  <metadata
     id="metadata5">
    <rdf:RDF>
      <cc:Work
         rdf:about="">
        <dc:format>image/svg+xml</dc:format>
        <dc:type
           rdf:resource="http://purl.org/dc/dcmitype/StillImage" />
        <dc:title></dc:title>
      </cc:Work>
    </rdf:RDF>
  </metadata>
  <g
     inkscape:groupmode="layer"
     id="layer1"
     inkscape:label="gopher 1" />
  <g
     inkscape:groupmode="layer"
     id="layer2"
     inkscape:label="gopher"
     style="display:inline;opacity:1"
     transform="translate(-8.7165287,-5.1350247)">
    <path
       style="fill:#bcbde3;fill-opacity:1;stroke:#000000;stroke-width:1.5;stroke-linecap:round;stroke-linejoin:miter;stroke-miterlimit:4;stroke-dasharray:none;stroke-opacity:1;paint-order:stroke fill markers"
       d="M 20.513133,11.330468 C 15.724714,5.6259414 22.805623,3.2276567 22.952647,9.9823159 Z"
       id="path4554"
       inkscape:connector-curvature="0"
       sodipodi:nodetypes="ccc"
       inkscape:export-xdpi="370.83069"
       inkscape:export-ydpi="370.83069" />
    <path
       style="display:inline;opacity:1;fill:#dbb69a;fill-opacity:1;stroke:#000000;stroke-width:1.5;stroke-linecap:round;stroke-linejoin:miter;stroke-miterlimit:4;stroke-dasharray:none;stroke-opacity:1;paint-order:stroke fill markers"
       d="m 16.508232,37.09042 c -6.6147976,1.463869 -3.879629,6.765971 1.185776,2.393804 0.126497,-0.988052 -0.05208,-1.86494 -1.185776,-2.393804 z"
       id="path4556-2-9-2"
       inkscape:connector-curvature="0"
       sodipodi:nodetypes="ccc"
       inkscape:export-xdpi="370.83069"
       inkscape:export-ydpi="370.83069" />
    <path
       style="display:inline;opacity:0.15;fill:#000000;fill-opacity:1;stroke:none;stroke-width:3.63134789;stroke-linecap:round;stroke-linejoin:miter;stroke-miterlimit:4;stroke-dasharray:none;stroke-opacity:1;paint-order:stroke fill markers"
       d="m 76.923828,22.234375 c -5.559706,0.28716 -9.574635,8.46211 0.605469,20.589844 l 1.798828,-0.994141 C 78.541731,35.450537 70.418824,27.423615 81.462891,23.779297 79.999074,22.657134 78.407958,22.157719 76.923828,22.234375 Z"
       transform="scale(0.26458333)"
       id="path4554-3"
       inkscape:connector-curvature="0"
       sodipodi:nodetypes="scccs"
       inkscape:export-xdpi="370.83069"
       inkscape:export-ydpi="370.83069" />
    <path
       style="display:inline;opacity:1;fill:#dbb69a;fill-opacity:1;stroke:#000000;stroke-width:1.5;stroke-linecap:butt;stroke-linejoin:miter;stroke-miterlimit:4;stroke-dasharray:none;stroke-opacity:1;paint-order:stroke fill markers"
       d="m 21.399425,51.176204 c -0.599238,0.34597 -3.129827,5.191742 -1.703218,5.922183 1.42661,0.730442 5.137618,-4.188164 5.191731,-4.719196 0.114426,-1.122897 -2.351629,-1.859367 -3.488513,-1.202987 z"
       id="path7191-0-9"
       inkscape:connector-curvature="0"
       sodipodi:nodetypes="szss" />
    <path
       style="display:inline;opacity:0.15;fill:#000000;fill-opacity:1;stroke:none;stroke-width:5.6692915;stroke-linecap:butt;stroke-linejoin:miter;stroke-miterlimit:4;stroke-dasharray:none;stroke-opacity:1;paint-order:stroke fill markers"
       d="m 58.615234,172.06836 c -1.471291,0.0216 -2.859372,0.31144 -3.933593,0.93164 -2.264837,1.3076 -11.829408,19.62209 -6.4375,22.38281 0.487942,0.24983 1.049395,0.32176 1.662109,0.25 -3.246512,-10.63602 9.206094,-15.12615 13.908203,-22.59375 -1.594501,-0.63472 -3.452676,-0.99634 -5.199219,-0.9707 z"
       transform="matrix(0.26458333,0,0,0.26458333,6.9314208,5.403166)"
       id="path7191-0-9-0"
       inkscape:connector-curvature="0"
       sodipodi:nodetypes="sscccs" />
    <path
       style="opacity:1;fill:#bcbde3;fill-opacity:1;stroke:#050505;stroke-width:1.5;stroke-linecap:round;stroke-linejoin:round;stroke-miterlimit:4;stroke-dasharray:none;stroke-opacity:1;paint-order:stroke fill markers"
       d="m 50.045283,32.242306 c -4.357888,11.550349 4.869606,15.797822 -3.522992,20.67872 -8.392599,4.880897 -20.784818,3.106716 -26.362133,-1.008388 -5.577317,-4.115106 -3.276872,-13.763313 -3.276872,-20.578225 0,-6.404192 -2.503438,-14.771377 1.285458,-19.008284 C 21.84745,8.2124392 30.739257,6.1415601 40.240063,8.3647124 49.740869,10.587865 54.403197,20.691957 50.04531,32.242306 Z"
       id="path4497"
       inkscape:connector-curvature="0"
       sodipodi:nodetypes="czzsszzc"
       inkscape:export-xdpi="370.83069"
       inkscape:export-ydpi="370.83069" />
    <path
       style="opacity:0.15;fill:#000000;fill-opacity:1;stroke:none;stroke-width:0.26458332px;stroke-linecap:butt;stroke-linejoin:miter;stroke-opacity:1"
       d="M 33.284063,33.712366 C 20.691604,32.837518 23.708645,15.680269 34.697522,17.655398 Z"
       id="path5512"
       inkscape:connector-curvature="0"
       sodipodi:nodetypes="ccc" />
    <path
       style="opacity:0.15;fill:#000000;fill-opacity:1;stroke:none;stroke-width:0.26458332px;stroke-linecap:butt;stroke-linejoin:miter;stroke-opacity:1"
       d="m 42.875831,13.005944 c -2.680686,-0.07072 -4.761289,-2.649055 -1.753956,-2.549083 z"
       id="path5591"
       inkscape:connector-curvature="0"
       sodipodi:nodetypes="ccc" />
    <path
       style="fill:#bcbde3;fill-opacity:1;stroke:#000000;stroke-width:1.5;stroke-linecap:round;stroke-linejoin:miter;stroke-miterlimit:4;stroke-dasharray:none;stroke-opacity:1;paint-order:stroke fill markers"
       d="m 41.574913,11.283581 c 1.548593,-7.9073677 8.977082,-4.5455159 3.350484,1.458947 -1.340944,0.136228 -2.550843,-0.09155 -3.350484,-1.458947 z"
       id="path4556"
       inkscape:connector-curvature="0"
       sodipodi:nodetypes="ccc"
       inkscape:export-xdpi="370.83069"
       inkscape:export-ydpi="370.83069" />
    <circle
       style="display:inline;opacity:1;fill:#ffffff;fill-opacity:1;stroke:#000000;stroke-width:1.5;stroke-linecap:round;stroke-linejoin:round;stroke-miterlimit:4;stroke-dasharray:none;stroke-opacity:1;paint-order:stroke fill markers"
       id="path4500-7"
       cx="34.699482"
       cy="25.836006"
       r="8.0906954"
       inkscape:export-xdpi="370.83069"
       inkscape:export-ydpi="370.83069" />
    <circle
       style="display:inline;opacity:1;fill:#000000;fill-opacity:1;stroke:none;stroke-width:0.14223038;stroke-linecap:round;stroke-linejoin:round;stroke-miterlimit:4;stroke-dasharray:none;stroke-opacity:1;paint-order:stroke fill markers"
       id="path4500-4-1"
       cx="37.991032"
       cy="27.594046"
       r="1.7740699"
       inkscape:export-xdpi="370.83069"
       inkscape:export-ydpi="370.83069" />
    <path
       style="display:inline;opacity:0.15;fill:#000000;fill-opacity:1;stroke:none;stroke-width:3.63134789;stroke-linecap:round;stroke-linejoin:round;stroke-miterlimit:4;stroke-dasharray:none;stroke-opacity:1;paint-order:stroke fill markers"
       d="m 103.07617,29.949219 c -15.059996,2.779606 -27.305772,8.698609 -34.406248,16.638672 -14.320237,16.013506 -4.859375,47.636973 -4.859375,71.841799 0,25.75715 -8.694858,62.22223 12.384765,77.77539 3.740757,2.76004 0.626285,2.46618 5.760882,4.57785 -6.802434,-26.5189 -19.344619,-73.05091 -8.073282,-79.78489 L 71.203125,71.839844 C 68.618221,59.022445 83.416017,33.087181 103.07617,29.949219 Z"
       transform="scale(0.26458333)"
       id="path4497-0"
       inkscape:connector-curvature="0"
       sodipodi:nodetypes="cssscccc"
       inkscape:export-xdpi="370.83069"
       inkscape:export-ydpi="370.83069" />
    <path
       style="opacity:1;fill:#ffffff;fill-opacity:1;stroke:#000000;stroke-width:1.5;stroke-linecap:round;stroke-linejoin:round;stroke-miterlimit:4;stroke-dasharray:none;stroke-opacity:1;paint-order:stroke fill markers"
       d="m 21.135159,25.665364 c 0,3.876138 -0.77412,6.797548 -4.650259,6.797548 -3.876139,0 -7.0183713,-3.142231 -7.0183713,-7.01837 0,-3.876139 3.1422323,-7.01837 7.0183713,-7.01837 3.876139,0 4.650259,3.363053 4.650259,7.239192 z"
       id="path4500"
       inkscape:connector-curvature="0"
       sodipodi:nodetypes="sssss"
       inkscape:export-xdpi="370.83069"
       inkscape:export-ydpi="370.83069" />
    <circle
       style="display:inline;opacity:1;fill:#ffffff;fill-opacity:1;stroke:none;stroke-width:0.03777141;stroke-linecap:round;stroke-linejoin:round;stroke-miterlimit:4;stroke-dasharray:none;stroke-opacity:1;paint-order:stroke fill markers"
       id="path4500-4-1-3"
       cx="38.587036"
       cy="26.8745"
       r="0.47113094"
       inkscape:export-xdpi="370.83069"
       inkscape:export-ydpi="370.83069" />
    <circle
       style="display:inline;opacity:1;fill:#000000;fill-opacity:1;stroke:none;stroke-width:0.14223038;stroke-linecap:round;stroke-linejoin:round;stroke-miterlimit:4;stroke-dasharray:none;stroke-opacity:1;paint-order:stroke fill markers"
       id="path4500-4-1-5"
       cx="17.781668"
       cy="26.556856"
       r="1.7740699"
       inkscape:export-xdpi="370.83069"
       inkscape:export-ydpi="370.83069" />
    <circle
       style="display:inline;opacity:1;fill:#ffffff;fill-opacity:1;stroke:none;stroke-width:0.03777141;stroke-linecap:round;stroke-linejoin:round;stroke-miterlimit:4;stroke-dasharray:none;stroke-opacity:1;paint-order:stroke fill markers"
       id="path4500-4-1-3-3"
       cx="18.377672"
       cy="25.837311"
       r="0.47113094"
       inkscape:export-xdpi="370.83069"
       inkscape:export-ydpi="370.83069" />
    <path
       style="display:inline;opacity:0.15;fill:#000000;fill-opacity:1;stroke:none;stroke-width:3.63134789;stroke-linecap:round;stroke-linejoin:round;stroke-miterlimit:4;stroke-dasharray:none;stroke-opacity:1;paint-order:stroke fill markers"
       d="m 126.83008,67.40625 c -15.05651,2.147248 -26.24654,15.033349 -26.26172,30.242188 0.0177,12.784552 7.9867,24.208752 19.97852,28.640622 -15.45511,-12.63595 -9.50167,-51.683892 6.2832,-58.88281 z"
       transform="scale(0.26458333)"
       id="path4500-7-4"
       inkscape:connector-curvature="0"
       sodipodi:nodetypes="cccc"
       inkscape:export-xdpi="370.83069"
       inkscape:export-ydpi="370.83069" />
    <path
       style="display:inline;opacity:0.15;fill:#000000;fill-opacity:1;stroke:none;stroke-width:3.98415828;stroke-linecap:round;stroke-linejoin:round;stroke-miterlimit:4;stroke-dasharray:none;stroke-opacity:1;paint-order:stroke fill markers"
       d="M 59.607422,69.777344 C 46.224909,71.12944 35.779297,82.428943 35.779297,96.167969 c 0,8.858081 4.345903,16.695961 11.017578,21.513671 C 35.779007,96.168349 44.335694,76.65574 59.607422,69.777344 Z"
       transform="scale(0.26458333)"
       id="path4500-1"
       inkscape:connector-curvature="0"
       sodipodi:nodetypes="cscc"
       inkscape:export-xdpi="370.83069"
       inkscape:export-ydpi="370.83069" />
    <path
       style="display:inline;opacity:0.15;fill:#000000;fill-opacity:1;stroke:none;stroke-width:0.96079409;stroke-linecap:round;stroke-linejoin:miter;stroke-miterlimit:4;stroke-dasharray:none;stroke-opacity:1;paint-order:stroke fill markers"
       d="m 45.103705,6.64758 c -1.300403,0.071034 -2.899868,1.4235245 -3.528983,4.635893 0.385596,0.659375 0.867235,1.052301 1.412316,1.268657 C 42.694063,9.4215468 44.3325,6.8334905 46.395618,7.0987152 46.056536,6.7818341 45.60226,6.6203464 45.103705,6.64758 Z"
       id="path4556-9"
       inkscape:connector-curvature="0"
       sodipodi:nodetypes="scccs"
       inkscape:export-xdpi="370.83069"
       inkscape:export-ydpi="370.83069" />
    <path
       style="display:inline;opacity:1;fill:#dbb69a;fill-opacity:1;stroke:#000000;stroke-width:1.5;stroke-linecap:butt;stroke-linejoin:miter;stroke-miterlimit:4;stroke-dasharray:none;stroke-opacity:1;paint-order:stroke fill markers"
       d="m 42.072791,53.95433 c 0.599238,0.34597 3.129827,5.191741 1.703218,5.922182 -1.42661,0.730442 -5.137618,-4.188163 -5.191731,-4.719195 -0.114426,-1.122897 2.351629,-1.859367 3.488513,-1.202987 z"
       id="path7191-0"
       inkscape:connector-curvature="0"
       sodipodi:nodetypes="szss" />
    <path
       style="display:inline;opacity:0.15;fill:#000000;fill-opacity:1;stroke:none;stroke-width:5.6692915;stroke-linecap:butt;stroke-linejoin:miter;stroke-miterlimit:4;stroke-dasharray:none;stroke-opacity:1;paint-order:stroke fill markers"
       d="m 129.70898,187.625 -8.75195,2.89258 c 3.64045,5.52466 13.87248,17.63158 18.29883,15.36523 -6.61584,-0.57983 -8.00387,-12.42315 -9.54688,-18.25781 z"
       transform="matrix(0.26458333,0,0,0.26458333,6.9314208,5.403166)"
       id="path7191-0-99"
       inkscape:connector-curvature="0"
       sodipodi:nodetypes="cccc" />
    <path
       style="display:inline;opacity:1;fill:none;stroke:#000000;stroke-width:0.59167087;stroke-linecap:butt;stroke-linejoin:miter;stroke-miterlimit:4;stroke-dasharray:none;stroke-opacity:1"
       d="m 43.363985,9.455766 c 0.270113,1.369779 0.04681,2.153821 -0.561897,3.151183 0.686078,-0.957509 1.468372,-1.422822 2.689032,-2.170187"
       id="path7033"
       inkscape:connector-curvature="0"
       sodipodi:nodetypes="ccc" />
    <path
       style="fill:#ffffff;fill-opacity:1;stroke:#050505;stroke-width:1.5;stroke-linecap:butt;stroke-linejoin:miter;stroke-miterlimit:4;stroke-dasharray:none;stroke-opacity:1;paint-order:stroke fill markers"
       d="m 21.333509,33.115378 c 0,0 -0.550782,2.874373 0.229728,3.654883 0.78051,0.78051 2.201521,0.300664 2.993294,-0.491108 0.791772,-0.791772 -0.136184,-3.259342 -0.136184,-3.259342 z"
       id="path4552"
       inkscape:connector-curvature="0"
       sodipodi:nodetypes="czzcc"
       inkscape:export-xdpi="370.83069"
       inkscape:export-ydpi="370.83069" />
    <path
       style="fill:none;stroke:#000000;stroke-width:0.5;stroke-linecap:round;stroke-linejoin:miter;stroke-miterlimit:4;stroke-dasharray:none;stroke-opacity:1;paint-order:stroke fill markers"
       d="m 22.766432,33.570425 c -0.222328,0.953254 -0.414067,2.162011 -0.104898,3.823933"
       id="path5299"
       inkscape:connector-curvature="0"
       sodipodi:nodetypes="cc"
       inkscape:export-xdpi="370.83069"
       inkscape:export-ydpi="370.83069" />
    <path
       style="display:inline;opacity:0.15;fill:#000000;fill-opacity:1;stroke:none;stroke-width:0.26458332px;stroke-linecap:butt;stroke-linejoin:miter;stroke-opacity:1"
       d="m 21.26853,34.633696 c 2.703313,0.196551 2.331302,1.75534 3.472656,2.017448 l 0.132292,-3.571875 -4.001823,0.529167 z"
       id="path5574"
       inkscape:connector-curvature="0"
       sodipodi:nodetypes="ccccc" />
    <path
       style="opacity:1;fill:#dbb69a;fill-opacity:1;stroke:#000000;stroke-width:1.5;stroke-linecap:round;stroke-linejoin:round;stroke-miterlimit:4;stroke-dasharray:none;stroke-opacity:1;paint-order:stroke fill markers"
       d="m 26.535997,33.694545 c -1.446509,1.783799 -2.698519,-0.128394 -4.076557,-0.160494 -1.378037,-0.0321 -1.690935,0.731287 -2.439514,-0.385186 -0.74858,-1.116473 0.997278,-2.632108 3.177788,-2.632108 2.18051,0 4.784792,1.39399 3.338283,3.177788 z"
       id="path4549"
       inkscape:connector-curvature="0"
       sodipodi:nodetypes="zzzsz"
       inkscape:export-xdpi="370.83069"
       inkscape:export-ydpi="370.83069" />
    <path
       style="display:inline;opacity:0.15;fill:#000000;fill-opacity:1;stroke:none;stroke-width:0.96079409;stroke-linecap:round;stroke-linejoin:round;stroke-miterlimit:4;stroke-dasharray:none;stroke-opacity:1;paint-order:stroke fill markers"
       d="m 22.184603,30.631134 c -1.664815,0.368988 -2.792233,1.58178 -2.164726,2.517677 0.707482,1.05518 1.026993,0.432163 2.22312,0.387573 -2.221304,-0.342025 -1.028242,-2.46697 -0.05839,-2.90525 z"
       id="path4549-6"
       inkscape:connector-curvature="0"
       sodipodi:nodetypes="cccc"
       inkscape:export-xdpi="370.83069"
       inkscape:export-ydpi="370.83069" />
    <ellipse
       style="opacity:1;fill:#000000;fill-opacity:1;stroke:none;stroke-width:0.58221525;stroke-linecap:round;stroke-linejoin:round;stroke-miterlimit:4;stroke-dasharray:none;stroke-opacity:1;paint-order:stroke fill markers"
       id="path4547"
       cx="22.378521"
       cy="30.176435"
       rx="2.1396155"
       ry="1.3226714"
       inkscape:export-xdpi="370.83069"
       inkscape:export-ydpi="370.83069" />
    <circle
       style="opacity:1;fill:#c0dfed;fill-opacity:0.52941165;stroke:#66767d;stroke-width:0.2;stroke-linecap:round;stroke-linejoin:round;stroke-miterlimit:4;stroke-dasharray:none;stroke-dashoffset:0;stroke-opacity:1;paint-order:normal"
       id="path5702"
       cx="61.147526"
       cy="17.936913"
       r="1.0583333"
       transform="rotate(8.0454105)" />
    <path
       style="fill:#ffffff;fill-opacity:1;stroke:none;stroke-width:0.30000001;stroke-linecap:butt;stroke-linejoin:miter;stroke-miterlimit:4;stroke-dasharray:none;stroke-opacity:1"
       d="m 58.788051,26.340868 c 0.189985,-0.201624 -0.107704,-0.649741 -0.3797,-0.641824 -0.271991,0.0079 0.189717,0.843446 0.3797,0.641824 z"
       id="path5704"
       inkscape:connector-curvature="0"
       sodipodi:nodetypes="zzz" />
    <circle
       style="display:inline;opacity:1;fill:#c0dfed;fill-opacity:0.52941165;stroke:#66767d;stroke-width:0.2;stroke-linecap:round;stroke-linejoin:round;stroke-miterlimit:4;stroke-dasharray:none;stroke-dashoffset:0;stroke-opacity:1;paint-order:normal"
       id="path5702-8"
       cx="59.956905"
       cy="15.522591"
       r="0.46302077"
       transform="rotate(8.0454105)" />
    <path
       style="display:inline;opacity:1;fill:#ffffff;fill-opacity:1;stroke:none;stroke-width:0.30000001;stroke-linecap:butt;stroke-linejoin:miter;stroke-miterlimit:4;stroke-dasharray:none;stroke-opacity:1"
       d="m 57.52361,23.771061 c 0.08311,-0.08822 -0.04712,-0.284262 -0.166119,-0.280798 -0.118996,0.0035 0.083,0.369007 0.166119,0.280798 z"
       id="path5704-8"
       inkscape:connector-curvature="0"
       sodipodi:nodetypes="zzz" />
    <circle
       style="display:inline;opacity:1;fill:#c0dfed;fill-opacity:0.52941165;stroke:#66767d;stroke-width:0.2;stroke-linecap:round;stroke-linejoin:round;stroke-miterlimit:4;stroke-dasharray:none;stroke-dashoffset:0;stroke-opacity:1;paint-order:normal"
       id="path5702-8-6"
       cx="58.865498"
       cy="19.425194"
       r="0.46302077"
       transform="rotate(8.0454105)" />
    <path
       style="display:inline;opacity:1;fill:#ffffff;fill-opacity:1;stroke:none;stroke-width:0.30000001;stroke-linecap:butt;stroke-linejoin:miter;stroke-miterlimit:4;stroke-dasharray:none;stroke-opacity:1"
       d="m 55.896743,27.482501 c 0.08311,-0.08822 -0.04712,-0.284261 -0.166119,-0.280798 -0.118996,0.0035 0.083,0.369007 0.166119,0.280798 z"
       id="path5704-8-9"
       inkscape:connector-curvature="0"
       sodipodi:nodetypes="zzz" />
  </g>
  <g
     inkscape:groupmode="layer"
     id="layer5"
     inkscape:label="flask one"
     style="display:inline"
     transform="translate(-1.7851079,0.26814133)">
    <path
       style="display:inline;opacity:1;fill:#01ff27;fill-opacity:1;stroke:none;stroke-width:0.5;stroke-linecap:round;stroke-linejoin:miter;stroke-miterlimit:4;stroke-dasharray:none;stroke-opacity:1;paint-order:normal"
       d="m 5.0726533,37.748952 c 2.4845177,-1.525153 2.5771458,1.235701 4.7740761,0.248206 0.3571186,0.255726 0.6779516,0.495396 0.8841946,0.678499 0.773194,0.686444 0.677839,0.895968 0.70962,1.087506 0.113507,0.68402 -0.125166,1.174599 -1.197768,1.975458 -1.0725988,0.800858 -4.110002,1.356033 -5.3365563,0.904415 -1.2265549,-0.45162 -1.5754506,-0.811498 -1.7011,-1.513325 0.2717537,-0.84605 1.5135539,-2.900285 1.8675336,-3.380759 z"
       id="path4619-5-1"
       inkscape:connector-curvature="0"
       sodipodi:nodetypes="cccccccc" />
    <path
       style="display:inline;opacity:1;fill:#c0dfed;fill-opacity:0.530303;stroke:none;stroke-width:0.5;stroke-linecap:round;stroke-linejoin:miter;stroke-miterlimit:4;stroke-dasharray:none;stroke-opacity:1;paint-order:normal"
       d="m 6.8386158,31.859085 c 0,0 -0.6707339,0.412795 -0.7286359,0.566171 -0.05791,0.153369 0.7065767,4.259729 0.7717227,4.425573 0.065151,0.165841 3.6714014,2.281522 3.9733564,3.297309 0.301941,1.01579 -1.5600792,1.97233 -2.4495057,2.552984 0.8451921,-0.221906 1.6091267,-0.538463 2.0145587,-0.902621 0.972405,-0.873402 1.163379,-1.33683 1.020432,-2.035339 -0.142952,-0.698508 -3.9195962,-2.952066 -4.1203481,-3.274454 -0.1914732,-0.307477 -0.9734992,-3.551271 -0.854816,-3.923036 0.1186874,-0.371769 0.4574854,-0.334638 0.3794245,-0.69282 -0.00104,-0.0047 -0.00428,-0.0092 -0.00616,-0.01379 z"
       id="path4619-2-7"
       inkscape:connector-curvature="0"
       sodipodi:nodetypes="czzzcscccccc" />
    <a
       transform="rotate(-16.440934,-140.37631,98.408076)"
       style="display:inline;stroke:#000000;stroke-width:0.75;stroke-miterlimit:4;stroke-dasharray:none;stroke-opacity:1"
       id="a5480">
      <path
         inkscape:export-ydpi="370.83069"
         inkscape:export-xdpi="370.83069"
         sodipodi:nodetypes="cssszszzzccsc"
         inkscape:connector-curvature="0"
         id="path4619-51"
         d="m 18.803616,75.561644 c 0.776715,0.104924 1.320924,0.432558 1.300163,0.601173 -0.0448,0.363839 -0.352513,0.216882 -0.587478,0.528474 -0.234966,0.31159 -0.569644,3.631367 -0.490652,3.984868 0.05963,0.266856 1.885485,2.331876 2.432784,3.209089 0.547298,0.877212 0.396527,1.051313 0.372799,1.244016 -0.08473,0.688174 -0.45267,1.091134 -1.708079,1.555671 -1.255409,0.464539 -4.325663,0.137364 -5.374245,-0.642937 -1.048584,-0.780303 -1.28151,-1.224253 -1.203389,-1.932945 0.07812,-0.708692 3.631756,-3.300039 3.802019,-3.639519 0.162387,-0.323781 0.643013,-3.625585 0.490652,-3.984868 -0.152366,-0.359281 -0.486533,-0.291361 -0.441733,-0.655199 0.02076,-0.168613 0.628192,-0.354448 1.407159,-0.267823 z"
         style="display:inline;opacity:1;fill:#c0dfed;fill-opacity:0.530303;stroke:#000000;stroke-width:0.75;stroke-linecap:round;stroke-linejoin:miter;stroke-miterlimit:4;stroke-dasharray:none;stroke-opacity:1;paint-order:normal" />
    </a>
    <path
       style="display:inline;fill:none;stroke:none;stroke-width:0.5;stroke-linecap:butt;stroke-linejoin:miter;stroke-miterlimit:4;stroke-dasharray:none;stroke-opacity:1"
       d="m 7.4733453,37.948271 c 0.8706754,0.60664 1.6284286,1.404392 3.2575787,0.727386 L 9.8467294,37.997158 c -0.7492576,0.383769 -1.5478888,0.295771 -2.3733841,-0.04889 z"
       id="path5417-8"
       inkscape:connector-curvature="0"
       sodipodi:nodetypes="cccc" />
    <path
       style="display:inline;opacity:0.15;fill:#000000;fill-opacity:0.530303;stroke:none;stroke-width:0.5;stroke-linecap:butt;stroke-linejoin:miter;stroke-miterlimit:4;stroke-dasharray:none;stroke-opacity:1"
       d="M 8.5256278,38.163112 C 7.6935613,38.050964 6.9889673,36.554655 5.1024251,37.729507 l -0.5853127,0.876322 c 1.5960671,0.901523 2.6840529,-0.530344 4.0085154,-0.442717 z"
       id="path5419-9"
       inkscape:connector-curvature="0"
       sodipodi:nodetypes="cccc" />
  </g>
  <g
     inkscape:groupmode="layer"
     id="layer3"
     inkscape:label="coat"
     transform="translate(-8.7165287,-5.1350247)"
     style="display:inline">
    <path
       style="opacity:0.15;fill:#000000;fill-opacity:1;stroke:none;stroke-width:0.26458332px;stroke-linecap:butt;stroke-linejoin:miter;stroke-opacity:1"
       d="m 26.108009,42.70627 -1.216076,0.748355 c -0.04944,2.025086 -0.05146,4.05025 -0.05978,6.080791 -0.0067,1.640339 0.111841,3.424439 0.293645,5.144527 l 2.572469,0.982216 z"
       id="path5508"
       inkscape:connector-curvature="0"
       sodipodi:nodetypes="ccsccc" />
    <path
       style="fill:#ffffff;fill-opacity:1;stroke:#000000;stroke-width:1.5;stroke-linecap:round;stroke-linejoin:round;stroke-miterlimit:4;stroke-dasharray:none;stroke-opacity:1;paint-order:stroke fill markers"
       d="m 50.185368,33.317285 c -3.592778,7.543184 -14.183545,11.676995 -23.908731,9.514317 0,0 -0.327405,4.368936 0,7.124354 0.327405,2.755418 0,7.163089 0,7.163089 0.952831,0.375138 0.525976,-0.714375 4.11185,-0.05454 3.585873,0.659832 13.783475,0.823464 20.260321,-4.828199 z"
       id="path4690"
       inkscape:connector-curvature="0"
       sodipodi:nodetypes="cczczcc"
       inkscape:export-xdpi="370.83069"
       inkscape:export-ydpi="370.83069" />
    <path
       style="opacity:0.15;fill:#000000;fill-opacity:1;stroke:none;stroke-width:0.26458332px;stroke-linecap:butt;stroke-linejoin:miter;stroke-opacity:1"
       d="m 25.967693,42.893359 c 0,0 9.310422,4.802702 10.14956,4.396584 0.839138,-0.406118 1.716199,-3.090617 2.198293,-4.536901 0,0 2.960768,2.667865 3.905475,2.525697 0.944707,-0.142167 1.099146,-4.630443 1.099146,-4.630443 -4.505596,2.252545 -10.748256,2.461485 -17.352474,2.245063 z"
       id="path5566"
       inkscape:connector-curvature="0"
       sodipodi:nodetypes="czczcc" />
    <path
       style="fill:#ffffff;fill-opacity:1;stroke:#000000;stroke-width:1.5;stroke-linecap:round;stroke-linejoin:round;stroke-miterlimit:4;stroke-dasharray:none;stroke-opacity:1;paint-order:stroke fill markers"
       d="m 26.276637,42.831602 11.473734,3.425869 c -0.292435,-2.379139 0.434368,-3.127499 0.981745,-4.162939 l 4.32945,2.098794 c 0.1933,-2.365256 1.248037,-3.947386 2.396471,-5.444339 -6.282304,4.718523 -14.670362,4.987407 -19.1814,4.082615 z"
       id="path4692"
       inkscape:connector-curvature="0"
       sodipodi:nodetypes="cccccc"
       inkscape:export-xdpi="370.83069"
       inkscape:export-ydpi="370.83069" />
    <path
       style="display:inline;opacity:0.15;fill:#000000;fill-opacity:1;stroke:none;stroke-width:0.26458332px;stroke-linecap:butt;stroke-linejoin:miter;stroke-opacity:1"
       d="m 20.917181,41.584345 1.378897,1.309012 c 0,0 -0.312867,1.369878 0.23294,5.004666 0.545807,3.634788 0.258473,5.55323 0.258473,5.55323 L 20.594209,52.29468 Z"
       id="path5265"
       inkscape:connector-curvature="0"
       sodipodi:nodetypes="cczccc" />
    <path
       style="fill:#ffffff;fill-opacity:1;stroke:#000000;stroke-width:1.5;stroke-linecap:round;stroke-linejoin:round;stroke-miterlimit:4;stroke-dasharray:none;stroke-opacity:1;paint-order:stroke fill markers"
       d="m 16.19602,35.660866 c -0.299912,4.714011 2.932305,5.864147 4.651003,6.414587 0,0 -0.104436,4.318244 0.407272,6.87306 0.511709,2.554816 0.417916,7.052673 0.417916,7.052673 -1.054492,-1.350338 -5.002241,-1.17988 -4.901049,-5.439924 -0.357145,-5.573657 -1.216718,-9.203045 -0.575142,-14.900396 z"
       id="path4694"
       inkscape:connector-curvature="0"
       sodipodi:nodetypes="cczccc"
       inkscape:export-xdpi="370.83069"
       inkscape:export-ydpi="370.83069" />
    <path
       style="opacity:0.15;fill:#000000;fill-opacity:1;stroke:none;stroke-width:0.26458332px;stroke-linecap:butt;stroke-linejoin:miter;stroke-opacity:1"
       d="m 21.044922,42.308706 c -1.277066,0.642652 -3.261602,2.476085 -3.741773,2.15152 -0.480171,-0.324565 0.245554,-4.326426 0.245554,-4.326426 l -1.789036,2.782945 -0.26894,-4.560286 z"
       id="path5510"
       inkscape:connector-curvature="0"
       sodipodi:nodetypes="czcccc" />
    <path
       style="fill:#ffffff;fill-opacity:1;stroke:#000000;stroke-width:1.5;stroke-linecap:round;stroke-linejoin:round;stroke-miterlimit:4;stroke-dasharray:none;stroke-opacity:1;paint-order:stroke fill markers"
       d="m 20.847023,42.075452 c -1.131976,-0.102309 -2.310725,0.06043 -3.57473,0.706286 -0.346578,-0.882236 0.06088,-1.827309 0.193003,-2.749437 l -1.767294,0.767586 c -0.729492,-2.361773 -0.165038,-3.64047 0.498018,-5.139026 -0.06808,4.787862 2.876454,5.653182 4.651003,6.414587 z"
       id="path4696"
       inkscape:connector-curvature="0"
       sodipodi:nodetypes="ccccccc"
       inkscape:export-xdpi="370.83069"
       inkscape:export-ydpi="370.83069" />
    <path
       style="opacity:0.15;fill:#000000;fill-opacity:1;stroke:none;stroke-width:0.26458332px;stroke-linecap:butt;stroke-linejoin:miter;stroke-opacity:1"
       d="m 32.702885,55.942792 c -1.76475,0 -2.075642,-0.05281 -2.268451,-2.97003 -0.192808,-2.917221 0.434188,-3.063579 1.987818,-3.063579 z"
       id="path5568"
       inkscape:connector-curvature="0"
       sodipodi:nodetypes="czcc" />
    <path
       style="display:inline;opacity:1;fill:#ffffff;fill-opacity:1;stroke:#000000;stroke-width:1.5;stroke-linecap:butt;stroke-linejoin:miter;stroke-miterlimit:4;stroke-dasharray:none;stroke-opacity:1;paint-order:stroke fill markers"
       d="m 38.1567,55.214 c -0.737016,0.468733 -5.266857,0.645947 -6.063292,0.103185 -0.796434,-0.542762 -0.373251,-4.759815 -0.373251,-4.759815 2.357351,-0.635397 3.595677,-0.33836 6.531711,0.114703 0,0 0.641848,4.073194 -0.09517,4.541927 z"
       id="path7226"
       inkscape:connector-curvature="0"
       sodipodi:nodetypes="zzccz"
       inkscape:transform-center-x="-0.18092967"
       inkscape:transform-center-y="-0.12203868" />
    <path
       style="display:inline;opacity:0.15;fill:#000000;fill-opacity:1;stroke:none;stroke-width:0.26458332px;stroke-linecap:butt;stroke-linejoin:miter;stroke-opacity:1"
       d="m 50.866284,41.346497 -0.06233,-7.357178 c -4.896271,3.08963 -2.819406,9.26928 0.06233,7.357178 z"
       id="path5572"
       inkscape:connector-curvature="0"
       sodipodi:nodetypes="ccc" />
    <path
       style="display:inline;opacity:1;fill:#dbb69a;fill-opacity:1;stroke:#000000;stroke-width:1.5;stroke-linecap:butt;stroke-linejoin:miter;stroke-miterlimit:4;stroke-dasharray:none;stroke-opacity:1;paint-order:stroke fill markers"
       d="m 52.438362,38.471979 c 6.682905,-3.620733 5.13645,-9.162543 -2.162861,-2.622951 0.283754,1.608599 0.76096,2.252952 2.162861,2.622951 z"
       id="path7191"
       inkscape:connector-curvature="0"
       sodipodi:nodetypes="ccc" />
    <path
       style="display:inline;opacity:1;fill:#ffffff;fill-opacity:1;stroke:#000000;stroke-width:1.5;stroke-linecap:butt;stroke-linejoin:round;stroke-miterlimit:4;stroke-dasharray:none;stroke-opacity:1;paint-order:stroke fill markers"
       d="m 51.645512,34.144349 c 0.585374,0.217543 1.661698,4.060653 1.409025,4.62475 -0.252678,0.564097 -2.528067,4.010176 -3.56495,0.860569 -1.036883,-3.149606 1.57055,-5.702862 2.155925,-5.485319 z"
       id="path7191-90"
       inkscape:connector-curvature="0"
       sodipodi:nodetypes="zzzz" />
    <path
       style="opacity:1;fill:none;stroke:#000000;stroke-width:0.26458332px;stroke-linecap:round;stroke-linejoin:miter;stroke-opacity:1"
       d="m 17.317929,51.332858 c -0.02344,0.240572 -0.01314,0.424295 0.102021,0.733484"
       id="path7247-9-8-8"
       inkscape:connector-curvature="0"
       sodipodi:nodetypes="cc" />
    <path
       style="opacity:1;fill:none;stroke:#000000;stroke-width:0.26458332px;stroke-linecap:round;stroke-linejoin:miter;stroke-opacity:1"
       d="m 17.750013,51.817191 c 0.0444,0.275026 0.130883,0.571266 0.346635,0.826271"
       id="path7247-9-8-9-2"
       inkscape:connector-curvature="0"
       sodipodi:nodetypes="cc" />
    <path
       style="opacity:1;fill:none;stroke:#000000;stroke-width:0.26499999;stroke-linecap:round;stroke-linejoin:miter;stroke-miterlimit:4;stroke-dasharray:none;stroke-opacity:1"
       d="m 38.156259,54.401257 c -0.104527,0.503512 -0.382696,0.833381 -1.169305,0.65481"
       id="path7245"
       inkscape:connector-curvature="0"
       sodipodi:nodetypes="cc" />
    <path
       style="opacity:1;fill:none;stroke:#000000;stroke-width:0.26458332px;stroke-linecap:round;stroke-linejoin:miter;stroke-opacity:1"
       d="m 43.884349,49.190189 c -0.0242,0.240496 -0.01448,0.424253 0.0997,0.733802"
       id="path7247-9-8-8-9"
       inkscape:connector-curvature="0"
       sodipodi:nodetypes="cc" />
    <path
       style="opacity:1;fill:none;stroke:#000000;stroke-width:0.26458332px;stroke-linecap:round;stroke-linejoin:miter;stroke-opacity:1"
       d="m 44.346237,49.416528 c -0.02496,0.277467 -0.01438,0.585892 0.13165,0.886312"
       id="path7247-9-8-9-2-1"
       inkscape:connector-curvature="0"
       sodipodi:nodetypes="cc" />
    <circle
       style="display:inline;opacity:1;fill:#c0dfed;fill-opacity:0.52941165;stroke:#66767d;stroke-width:0.2;stroke-linecap:round;stroke-linejoin:round;stroke-miterlimit:4;stroke-dasharray:none;stroke-dashoffset:0;stroke-opacity:1;paint-order:normal"
       id="path5702-8-8"
       cx="11.428508"
       cy="35.563568"
       r="0.46302077" />
    <path
       style="display:inline;opacity:1;fill:#ffffff;fill-opacity:1;stroke:none;stroke-width:0.2;stroke-linecap:butt;stroke-linejoin:miter;stroke-miterlimit:4;stroke-dasharray:none;stroke-opacity:1;paint-order:normal"
       d="m 11.681568,35.535454 c 0.06995,-0.09898 -0.08644,-0.274869 -0.203784,-0.254785 -0.11734,0.02008 0.13383,0.353759 0.203784,0.254785 z"
       id="path5704-8-7"
       inkscape:connector-curvature="0"
       sodipodi:nodetypes="zzz" />
    <circle
       style="display:inline;opacity:1;fill:#c0dfed;fill-opacity:0.52941165;stroke:#66767d;stroke-width:0.2;stroke-linecap:round;stroke-linejoin:round;stroke-miterlimit:4;stroke-dasharray:none;stroke-dashoffset:0;stroke-opacity:1;paint-order:normal"
       id="path5702-8-8-7"
       cx="13.218349"
       cy="35.290005"
       r="0.26423907" />
    <path
       style="display:inline;opacity:1;fill:#ffffff;fill-opacity:1;stroke:none;stroke-width:0.2;stroke-linecap:butt;stroke-linejoin:miter;stroke-miterlimit:4;stroke-dasharray:none;stroke-opacity:1;paint-order:normal"
       d="m 13.339089,35.302316 c 0.03992,-0.05649 -0.04933,-0.156864 -0.116297,-0.145402 -0.06696,0.01146 0.07638,0.201885 0.116297,0.145402 z"
       id="path5704-8-7-2"
       inkscape:connector-curvature="0"
       sodipodi:nodetypes="zzz" />
    <circle
       style="display:inline;opacity:1;fill:#c0dfed;fill-opacity:0.52941165;stroke:#66767d;stroke-width:0.2;stroke-linecap:round;stroke-linejoin:round;stroke-miterlimit:4;stroke-dasharray:none;stroke-dashoffset:0;stroke-opacity:1;paint-order:normal"
       id="path5702-8-8-7-9"
       cx="9.9466419"
       cy="33.59573"
       r="0.26423907" />
    <path
       style="display:inline;opacity:1;fill:#ffffff;fill-opacity:1;stroke:none;stroke-width:0.2;stroke-linecap:butt;stroke-linejoin:miter;stroke-miterlimit:4;stroke-dasharray:none;stroke-opacity:1;paint-order:normal"
       d="m 10.067381,33.608042 c 0.03992,-0.05649 -0.04933,-0.156864 -0.1162967,-0.145402 -0.06696,0.01146 0.07638,0.201885 0.1162967,0.145402 z"
       id="path5704-8-7-2-0"
       inkscape:connector-curvature="0"
       sodipodi:nodetypes="zzz" />
  </g>
  <g
     inkscape:groupmode="layer"
     id="layer4"
     inkscape:label="flask two"
     style="display:inline"
     transform="translate(-8.7165287,-5.1350247)">
    <path
       style="display:inline;opacity:1;fill:#ff0101;fill-opacity:1;stroke:none;stroke-width:0.75;stroke-linecap:round;stroke-linejoin:miter;stroke-miterlimit:4;stroke-dasharray:none;stroke-opacity:1;paint-order:normal"
       d="m 60.782873,38.040154 c -4.612378,-0.534529 -2.892407,3.515093 -6.728427,3.563986 -0.344071,0.609122 -0.646517,1.170693 -0.821446,1.573623 -0.6558,1.51057 -0.377399,1.749157 -0.294712,2.047126 0.29535,1.064125 0.969451,1.612403 3.056309,2.048873 2.086862,0.436473 6.846473,-0.801139 8.314723,-2.276956 1.468246,-1.475822 1.730511,-2.229846 1.440749,-3.327843 -0.960561,-1.039464 -4.133358,-3.17255 -4.967214,-3.628812 z"
       id="path4619-5"
       inkscape:connector-curvature="0"
       sodipodi:nodetypes="cccccccc" />
    <path
       style="display:inline;opacity:1;fill:#c0dfed;fill-opacity:0.530303;stroke:none;stroke-width:0.75;stroke-linecap:round;stroke-linejoin:miter;stroke-miterlimit:4;stroke-dasharray:none;stroke-opacity:1;paint-order:normal"
       d="m 57.631604,29.533151 c 0,0 -1.029705,0.716398 -1.108071,0.96547 -0.07837,0.24907 1.504406,6.710704 1.622827,6.968607 0.118426,0.257903 6.042264,3.299895 6.613245,4.888216 0.570979,1.588323 -2.304537,3.27589 -3.667003,4.27876 1.324195,-0.428428 2.510713,-1.00012 3.122885,-1.615446 1.468249,-1.475822 1.730511,-2.229846 1.440753,-3.327845 -0.289762,-1.097999 -6.496893,-4.344011 -6.844952,-4.838731 -0.331961,-0.471841 -1.865543,-5.56024 -1.710041,-6.162041 0.155507,-0.601798 0.697577,-0.573046 0.541428,-1.135646 -0.002,-0.0074 -0.0077,-0.01422 -0.01112,-0.02134 z"
       id="path4619-2"
       inkscape:connector-curvature="0"
       sodipodi:nodetypes="czzzcscccccc" />
    <path
       style="display:inline;opacity:1;fill:#c0dfed;fill-opacity:0.530303;stroke:#000000;stroke-width:0.75;stroke-linecap:round;stroke-linejoin:miter;stroke-miterlimit:4;stroke-dasharray:none;stroke-opacity:1;paint-order:normal"
       d="m 55.362876,29.463342 c -1.198844,0.347981 -1.979049,0.992096 -1.906684,1.252825 0.156148,0.562603 0.606313,0.258729 1.049737,0.694297 0.443424,0.435567 1.751501,5.586346 1.710216,6.161783 -0.03115,0.434392 -2.421626,4.116807 -3.077426,5.627377 -0.655799,1.51057 -0.377343,1.74936 -0.29464,2.047333 0.295348,1.064123 0.969725,1.612342 3.056587,2.048814 2.086861,0.436473 6.846345,-0.801095 8.314593,-2.276914 1.468247,-1.475822 1.73074,-2.229947 1.440981,-3.327944 -0.289759,-1.097996 -6.497182,-4.344154 -6.845241,-4.838876 -0.33196,-0.47184 -1.865715,-5.559983 -1.710214,-6.161782 0.155517,-0.601798 0.69788,-0.57341 0.541728,-1.136011 -0.07236,-0.260727 -1.072939,-0.410587 -2.279636,-0.0909 z"
       id="path4619"
       inkscape:connector-curvature="0"
       sodipodi:nodetypes="cssszszzzccsc"
       inkscape:export-xdpi="370.83069"
       inkscape:export-ydpi="370.83069" />
    <path
       style="fill:none;stroke:none;stroke-width:0.26458332px;stroke-linecap:butt;stroke-linejoin:miter;stroke-opacity:1"
       d="M 57.449443,39.93995 C 56.599271,41.40071 56.04051,43.061669 53.233,43.177763 l 0.821446,-1.573623 c 1.339814,0.05119 2.434171,-0.612141 3.394997,-1.66419 z"
       id="path5417"
       inkscape:connector-curvature="0"
       sodipodi:nodetypes="cccc" />
    <path
       style="display:inline;opacity:0.15;fill:#000000;fill-opacity:0.530303;stroke:none;stroke-width:0.26458332px;stroke-linecap:butt;stroke-linejoin:miter;stroke-opacity:1"
       d="m 56.073908,40.956782 c 1.126434,-0.720656 1.139381,-3.354833 4.65291,-2.924723 l 1.433751,0.872649 c -1.699842,2.373714 -4.232605,1.036218 -6.086661,2.052074 z"
       id="path5419"
       inkscape:connector-curvature="0"
       sodipodi:nodetypes="cccc" />
  </g>
</svg>
